<svg width="22" height="22" viewBox="0 0 22 22" xmlns="http://www.w3.org/2000/svg">
    <path d="M18.763 1.036c-.086.02-.227.059-.313.09-.324.118-16.33 6.715-16.487 6.793-.23.117-.625.524-.75.77-.38.75-.243 1.637.343 2.216.133.129.337.281.454.336.117.058 1.482.54 3.03 1.07 2.983 1.02 3.065 1.044 3.335.903.14-.07 7.092-5.948 7.244-6.128.411-.46.075-1.203-.539-1.203a.889.889 0 0 0-.336.062c-.067.035-1.619 1.333-3.449 2.884a458.849 458.849 0 0 1-3.37 2.85c-.039.023-4.19-1.364-5.063-1.693-.266-.097-.383-.23-.383-.426 0-.16.086-.281.254-.367.403-.196 16.241-6.683 16.362-6.699.133-.02.168-.004.27.094.16.16.18.274.09.524-.043.117-1.556 3.806-3.366 8.203-2.694 6.546-3.312 8.012-3.406 8.098-.144.133-.336.145-.48.031-.126-.097-.141-.144-1.001-2.67-.387-1.133-.74-2.113-.786-2.172-.168-.238-.587-.344-.876-.223-.274.113-.48.461-.442.743.031.203 1.525 4.58 1.662 4.87.144.296.524.664.836.816.352.168.775.23 1.134.168.54-.094 1.044-.43 1.31-.871.11-.188 6.678-16.083 6.858-16.602.469-1.349-.747-2.748-2.135-2.467" fill="#161823" fill-rule="evenodd"/>
</svg>
