<svg width="22" height="22" viewBox="0 0 22 22" xmlns="http://www.w3.org/2000/svg">
    <g fill="#161823" fill-rule="nonzero">
        <path d="M2.08 1.05c-.422.15-.747.435-.96.845L1 2.122V8.44l.115.243c.158.337.419.606.756.773l.282.137h6.278l.282-.137a1.62 1.62 0 0 0 .756-.773l.115-.243V2.164l-.137-.282a1.62 1.62 0 0 0-.773-.755l-.243-.116-3.096-.008c-2.469-.009-3.126 0-3.255.047zm6.108 1.358c.072.072.072 5.717 0 5.79-.073.072-5.719.072-5.791 0-.073-.073-.073-5.718 0-5.79.072-.073 5.718-.073 5.79 0zM13.013 1.05c-.422.15-.747.435-.96.845l-.12.227V8.44l.115.243c.158.337.419.606.756.773l.282.137h6.278l.282-.137a1.62 1.62 0 0 0 .756-.773l.115-.243V2.164l-.137-.282a1.62 1.62 0 0 0-.773-.755l-.243-.116-3.096-.008c-2.469-.009-3.126 0-3.255.047zm6.107 1.358c.073.072.073 5.717 0 5.79-.072.072-5.718.072-5.79 0-.073-.073-.073-5.718 0-5.79.072-.073 5.718-.073 5.79 0zM15.798 11.52c-.128.033-.32.119-.427.187-.107.068-.974.91-1.926 1.866-1.286 1.294-1.76 1.793-1.828 1.943a1.638 1.638 0 0 0 0 1.426c.132.294 3.587 3.757 3.89 3.898.457.213.978.213 1.435 0 .304-.141 3.759-3.604 3.891-3.898.15-.325.2-.662.145-.957-.098-.525-.12-.55-1.973-2.412-.952-.957-1.82-1.798-1.926-1.866a1.885 1.885 0 0 0-.875-.252c-.094 0-.278.03-.406.064zm2.186 2.954c1.286 1.285 1.657 1.678 1.657 1.759 0 .154-3.262 3.416-3.416 3.416-.154 0-3.417-3.262-3.417-3.416 0-.154 3.263-3.416 3.417-3.416.081 0 .474.372 1.76 1.657zM2.08 11.98c-.422.15-.747.436-.96.846l-.12.226v6.32l.115.242c.158.338.419.607.756.773l.282.137h6.278l.282-.137a1.62 1.62 0 0 0 .756-.773l.115-.243v-6.276l-.137-.282a1.62 1.62 0 0 0-.773-.756l-.243-.115-3.096-.009c-2.469-.008-3.126 0-3.255.047zm6.108 1.358c.072.073.072 5.717 0 5.79-.073.072-5.719.072-5.791 0-.073-.073-.073-5.717 0-5.79.072-.073 5.718-.073 5.79 0z"/>
    </g>
</svg>
