<svg width="22" height="22" viewBox="0 0 22 22" xmlns="http://www.w3.org/2000/svg">
    <g fill="#161823" fill-rule="nonzero">
        <path d="M10.225 3.035C7.6 3.28 5.224 4.887 4.038 7.22l-.153.305h-.21c-.516 0-1.267.3-1.706.691-.48.418-.783.938-.912 1.563-.056.266-.064.508-.052 1.426.02 1.239.036 1.348.314 1.887.283.56.706.966 1.311 1.25.585.282 1.218.36 1.836.235.613-.125.843-.293.879-.648.016-.164-.008-.235-.186-.59-.508-1.02-.73-2.028-.681-3.099.08-1.68.758-3.13 2.016-4.306 2.207-2.055 5.566-2.34 8.128-.691A6.365 6.365 0 0 1 17.42 9.33c.12.594.129 1.696.016 2.278-.17.887-.585 1.856-1.093 2.54a6.527 6.527 0 0 1-3.626 2.461c-.48.13-.528.125-.593-.023-.089-.211-.452-.536-.75-.668a1.767 1.767 0 0 0-1.646.125 1.589 1.589 0 0 0-.238 2.485 1.7 1.7 0 0 0 2.67-.415l.113-.207.42-.09a7.758 7.758 0 0 0 4.513-2.84l.295-.38.41.028c.94.055 1.84-.316 2.433-1.008.206-.246.468-.738.565-1.07.1-.356.125-2.318.032-2.767a2.755 2.755 0 0 0-.912-1.563c-.443-.39-1.19-.691-1.71-.691h-.205l-.121-.243c-1.392-2.84-4.518-4.552-7.769-4.247zM3.437 8.88c-.121.606-.145.805-.165 1.36-.04.973.117 1.958.463 2.864.069.18.126.336.126.348 0 .055-.448-.043-.674-.145a1.617 1.617 0 0 1-.92-1.074c-.072-.274-.084-1.993-.016-2.282.113-.473.46-.903.9-1.102.137-.062.262-.113.282-.113.016 0 .02.066.004.144zm15.476-.004c.387.192.73.63.835 1.075.024.094.044.594.044 1.11 0 1.023-.028 1.234-.23 1.59-.221.395-.746.738-1.218.797-.201.024-.217.024-.193-.047.012-.039.097-.277.185-.527a6.98 6.98 0 0 0 .392-2.673c-.02-.52-.049-.727-.166-1.325-.028-.144-.028-.148.065-.12.052.015.181.07.286.12zm-7.93 8.198c.117.113.138.16.138.309 0 .418-.513.61-.783.297-.137-.157-.165-.274-.105-.446.06-.176.246-.293.46-.293.121 0 .182.028.29.133z"/>
        <path d="M7.68 9.224c-.248.104-.55.435-.61.663-.107.415.155.948.55 1.104.664.266 1.341-.104 1.421-.786a.947.947 0 0 0-.556-.942c-.322-.15-.523-.162-.805-.039zM11.027 9.227c-.274.116-.555.447-.609.72-.06.33.027.596.281.843.636.616 1.7.181 1.7-.7 0-.61-.803-1.116-1.372-.863zM14.312 9.225c-.95.464-.609 1.855.451 1.855.575 0 .992-.404.992-.974a.984.984 0 0 0-1.443-.88z"/>
    </g>
</svg>
