<svg width="22" height="22" viewBox="0 0 22 22" xmlns="http://www.w3.org/2000/svg">
    <path d="M10.384 2.594a6.73 6.73 0 0 1 4.083 2.56c.592.787.99 1.67 1.212 2.684.135.607.144 1.921.023 2.51-.351 1.707-1.23 3.114-2.568 4.119-.787.592-1.671.99-2.685 1.212-.648.144-1.963.144-2.61 0-2.056-.449-3.74-1.74-4.638-3.545a6.331 6.331 0 0 1-.704-2.69C2.363 6.626 4.011 4.057 6.653 2.97a7.608 7.608 0 0 1 1.634-.44c.454-.064 1.639-.027 2.097.065M8.102 1.071c-5.119.69-8.322 5.842-6.66 10.706a8.2 8.2 0 0 0 4.115 4.67c1.828.912 4.036 1.088 6.017.468.828-.26 2.027-.893 2.638-1.402l.139-.116 2.777 2.772c3.013 3.004 2.865 2.884 3.296 2.8.226-.04.504-.319.546-.545.083-.43.203-.283-2.8-3.296l-2.773-2.777.116-.139c.273-.329.726-1.06.962-1.55 1.528-3.18.852-6.92-1.694-9.378C13 1.562 10.523.743 8.102 1.07" fill="#161823" fill-rule="evenodd"/>
</svg>
