<svg width="40" height="40" viewBox="0 0 40 40" xmlns="http://www.w3.org/2000/svg">
    <g fill="none" fill-rule="evenodd">
        <path d="m18.376 15.907-1.786 1.16a1.535 1.535 0 0 1-2.365-1.153l-.185-2.122a1 1 0 0 0-.367-.69l-1.655-1.34a1.535 1.535 0 0 1 .366-2.606l1.96-.832a1 1 0 0 0 .543-.562l.763-1.988a1.535 1.535 0 0 1 2.591-.457l1.398 1.607a1 1 0 0 0 .702.343l2.127.111a1.535 1.535 0 0 1 1.235 2.323l-1.097 1.826a1 1 0 0 0-.109.774l.552 2.057a1.535 1.535 0 0 1-1.828 1.892l-2.075-.479a1 1 0 0 0-.77.136zM14.142 31.017l-1.302 1.258a1.343 1.343 0 0 1-2.224-.596l-.5-1.74a1 1 0 0 0-.49-.607l-1.6-.85a1.343 1.343 0 0 1-.12-2.3l1.501-1.012a1 1 0 0 0 .426-.655l.314-1.783a1.343 1.343 0 0 1 2.15-.825l1.426 1.115a1 1 0 0 0 .755.202l1.792-.252a1.343 1.343 0 0 1 1.45 1.789l-.62 1.701a1 1 0 0 0 .04.78l.795 1.628a1.343 1.343 0 0 1-1.254 1.93l-1.81-.063a1 1 0 0 0-.73.28zM29.406 26.294h-1.81a1.343 1.343 0 0 1-1.186-1.974l.85-1.598a1 1 0 0 0 .068-.779l-.56-1.721a1.343 1.343 0 0 1 1.51-1.738l1.783.315a1 1 0 0 0 .762-.176l1.465-1.064a1.343 1.343 0 0 1 2.119.9l.252 1.792a1 1 0 0 0 .402.67l1.465 1.064a1.343 1.343 0 0 1-.2 2.293l-1.628.794a1 1 0 0 0-.513.59l-.56 1.721a1.343 1.343 0 0 1-2.242.518L30.125 26.6a1 1 0 0 0-.72-.305z" fill="#FFDC00"/>
        <path d="m16.376 16.907-1.786 1.16a1.535 1.535 0 0 1-2.365-1.153l-.185-2.122a1 1 0 0 0-.367-.69l-1.655-1.34a1.535 1.535 0 0 1 .366-2.606l1.96-.832a1 1 0 0 0 .543-.562l.763-1.988a1.535 1.535 0 0 1 2.591-.457l1.398 1.607a1 1 0 0 0 .702.343l2.127.111a1.535 1.535 0 0 1 1.235 2.323l-1.097 1.826a1 1 0 0 0-.109.774l.552 2.057a1.535 1.535 0 0 1-1.828 1.892l-2.075-.479a1 1 0 0 0-.77.136zM12.142 32.017l-1.302 1.258a1.343 1.343 0 0 1-2.224-.596l-.5-1.74a1 1 0 0 0-.49-.607l-1.6-.85a1.343 1.343 0 0 1-.12-2.3l1.501-1.012a1 1 0 0 0 .426-.655l.314-1.783a1.343 1.343 0 0 1 2.15-.825l1.426 1.115a1 1 0 0 0 .755.202l1.792-.252a1.343 1.343 0 0 1 1.45 1.789l-.62 1.701a1 1 0 0 0 .04.78l.795 1.628a1.343 1.343 0 0 1-1.254 1.93l-1.81-.063a1 1 0 0 0-.73.28zM27.406 27.294h-1.81a1.343 1.343 0 0 1-1.186-1.974l.85-1.598a1 1 0 0 0 .068-.779l-.56-1.721a1.343 1.343 0 0 1 1.51-1.738l1.783.315a1 1 0 0 0 .762-.176l1.465-1.064a1.343 1.343 0 0 1 2.119.9l.252 1.792a1 1 0 0 0 .402.67l1.465 1.064a1.343 1.343 0 0 1-.2 2.293l-1.628.794a1 1 0 0 0-.513.59l-.56 1.721a1.343 1.343 0 0 1-2.242.518L28.125 27.6a1 1 0 0 0-.72-.305z" stroke="#090909" stroke-width="1.5" stroke-linejoin="round"/>
    </g>
</svg>
