<svg width="22" height="22" viewBox="0 0 22 22" xmlns="http://www.w3.org/2000/svg">
    <g transform="translate(2 3.5)" fill="none" fill-rule="evenodd">
        <path d="M3.5 3H6v7H3.5a3.5 3.5 0 0 1 0-7z" fill="#FFE962"/>
        <rect fill="#FFE962" x="5" y="8" width="5" height="7" rx="2.5"/>
        <path d="M4 3 14.371.778A3 3 0 0 1 18 3.71v6.312a3 3 0 0 1-3.824 2.884L4 10V3z" fill="#FFE962"/>
        <path d="M17.933 3.082a3 3 0 0 1 .067.629v6.312a3 3 0 0 1-3.824 2.884L10 11.714v.786a2.5 2.5 0 1 1-5 0v-2c0-.078.004-.149.01-.213L4 10h-.5a3.5 3.5 0 0 1 0-7H4L14.371.778a3 3 0 0 1 3.562 2.304zM6.5 10.713V12.5a1 1 0 0 0 1.993.117L8.5 12.5v-1.215l-2-.572zm8.328-8.492-.142.023L5.5 4.212v4.656l9.088 2.597c.09.026.18.043.273.051l.139.007a1.5 1.5 0 0 0 1.493-1.356l.007-.144V3.71a1.5 1.5 0 0 0-.015-.21l-.018-.104a1.5 1.5 0 0 0-1.639-1.176zM4 4.499l-.5.001a2 2 0 0 0-1.995 1.85L1.5 6.5a2 2 0 0 0 1.85 1.995l.15.005H4v-4z" fill="#000" fill-rule="nonzero"/>
    </g>
</svg>
