<svg width="22" height="22" viewBox="0 0 22 22" xmlns="http://www.w3.org/2000/svg">
    <g stroke="#000" stroke-width="1.5" fill="none" fill-rule="evenodd">
        <path d="M11 2.75c2.111 0 4.223.805 5.834 2.416A8.224 8.224 0 0 1 19.25 11a8.224 8.224 0 0 1-2.416 5.834A8.224 8.224 0 0 1 11 19.25a8.224 8.224 0 0 1-5.834-2.416A8.224 8.224 0 0 1 2.75 11c0-2.111.805-4.223 2.416-5.834A8.224 8.224 0 0 1 11 2.75z" fill="#FFF"/>
        <path stroke-linecap="round" d="m17.364 17.364 2.121 2.121"/>
    </g>
</svg>
