<svg width="40" height="40" viewBox="0 0 40 40" xmlns="http://www.w3.org/2000/svg">
    <g transform="translate(5 4)" fill="none" fill-rule="evenodd">
        <rect fill="#FFDC00" x="2" y="22.5" width="29" height="5" rx="2.5"/>
        <rect fill="#FFDC00" transform="rotate(-90 8 13)" x="3" y="10.5" width="10" height="5" rx="2.5"/>
        <rect fill="#FFDC00" transform="rotate(-90 16 9)" x="7" y="6.5" width="18" height="5" rx="2.5"/>
        <rect fill="#FFDC00" transform="rotate(-90 25 14)" x="21" y="11.5" width="8" height="5" rx="2.5"/>
        <rect stroke="#000" stroke-width="1.5" stroke-linejoin="round" y="24.5" width="29" height="5" rx="2.5"/>
        <rect stroke="#000" stroke-width="1.5" stroke-linejoin="round" transform="rotate(-90 5.5 15.5)" x=".5" y="13" width="10" height="5" rx="2.5"/>
        <rect stroke="#000" stroke-width="1.5" stroke-linejoin="round" transform="rotate(-90 14.5 11.5)" x="5.5" y="9" width="18" height="5" rx="2.5"/>
        <rect stroke="#000" stroke-width="1.5" stroke-linejoin="round" transform="rotate(-90 23.5 16.5)" x="19.5" y="14" width="8" height="5" rx="2.5"/>
    </g>
</svg>
