<svg width="22" height="22" viewBox="0 0 22 22" xmlns="http://www.w3.org/2000/svg">
    <g fill="none" fill-rule="evenodd">
        <path d="M11 17.869c1.006 0 1.97-.161 2.856-.455.102-.034.249-.05.443-.051l.254.007c.046.002.094.006.144.01l.32.03.366.048.409.063c.072.011.145.024.221.037l.476.087.254.049.542.11.586.127.31.069c-.571-1.816-.679-2.981-.323-3.494.725-1.043 1.142-2.265 1.142-3.572C19 7.104 15.418 4 11 4s-8 3.105-8 6.934c0 3.83 3.582 6.935 8 6.935z" stroke="#FFF" stroke-width="1.5"/>
        <circle fill="#FFF" cx="7" cy="11" r="1"/>
        <circle fill="#FFF" cx="11" cy="11" r="1"/>
        <circle fill="#FFF" cx="15" cy="11" r="1"/>
    </g>
</svg>
