<svg width="22" height="22" viewBox="0 0 22 22" xmlns="http://www.w3.org/2000/svg">
    <g fill="none" fill-rule="evenodd">
        <path d="M4 2h14a4 4 0 0 1 4 4v7a4 4 0 0 1-4 4h-.49l-2.21 2.757a2 2 0 0 1-2.883.25L9.008 17H4a4 4 0 0 1-4-4V6a4 4 0 0 1 4-4z" fill="#FFDC00"/>
        <path d="M18 2a4 4 0 0 1 4 4v7a4 4 0 0 1-4 4h-.49l-2.21 2.757a2 2 0 0 1-2.81.31l-.073-.06L9.008 17H4a4 4 0 0 1-4-4V6a4 4 0 0 1 4-4h14zm0 1.5H4a2.5 2.5 0 0 0-2.495 2.336L1.5 6v7a2.5 2.5 0 0 0 2.336 2.495L4 15.5h5.575l3.852 3.397a.5.5 0 0 0 .64-.013l.063-.065 2.66-3.319H18a2.5 2.5 0 0 0 2.495-2.336L20.5 13V6a2.5 2.5 0 0 0-2.336-2.495L18 3.5z" fill="#000" fill-rule="nonzero"/>
        <circle fill="#000" cx="5" cy="9.5" r="1.5"/>
        <circle fill="#000" cx="11" cy="9.5" r="1.5"/>
        <circle fill="#000" cx="17" cy="9.5" r="1.5"/>
    </g>
</svg>
