<svg width="32" height="32" viewBox="0 0 32 32" xmlns="http://www.w3.org/2000/svg">
    <g fill="none" fill-rule="evenodd">
        <path d="M16 2.75a9.221 9.221 0 0 1 6.54 2.71A9.221 9.221 0 0 1 25.25 12a9.206 9.206 0 0 1-1.56 5.143 9.285 9.285 0 0 1-4.177 3.417c-.643 1.116-1.063 1.68-1.612 2.076A3.234 3.234 0 0 1 16 23.25c-.71 0-1.367-.228-1.902-.614a3.258 3.258 0 0 1-1.186-1.618c-2.135-1.16-3.586-2.36-4.602-3.876A9.207 9.207 0 0 1 6.75 12a9.221 9.221 0 0 1 2.71-6.54A9.221 9.221 0 0 1 16 2.75z" stroke="#000" stroke-width="1.5" fill="#FFF"/>
        <rect stroke="#000" stroke-width="1.5" fill="#FFF" x="13.75" y="25.75" width="4.5" height="3.5" rx="1.75"/>
        <rect fill="#FFDC00" x="12" y="10" width="8" height="1.5" rx=".75"/>
        <rect fill="#FFDC00" x="14" y="14" width="4" height="1.5" rx=".75"/>
    </g>
</svg>
