<svg width="14" height="14" viewBox="0 0 14 14" xmlns="http://www.w3.org/2000/svg">
    <g fill="none" fill-rule="evenodd">
        <path d="M7 12c3.244 0 5.577-1.667 7-5-1.423-3.333-3.756-5-7-5S1.423 3.667 0 7c1.423 3.333 3.756 5 7 5z" fill="#FFF"/>
        <path d="M7 2c3.244 0 5.577 1.667 7 5-1.423 3.333-3.756 5-7 5s-5.577-1.667-7-5c1.423-3.333 3.756-5 7-5zm0 1C4.354 3 2.45 4.238 1.175 6.836L1.096 7l.079.164c1.23 2.508 3.049 3.749 5.554 3.832L7 11c2.646 0 4.55-1.238 5.825-3.836L12.903 7l-.078-.163c-1.23-2.508-3.049-3.749-5.554-3.832L7 3z" fill="#979797" fill-rule="nonzero"/>
        <circle stroke="#979797" fill="#979797" cx="7" cy="7" r="2"/>
    </g>
</svg>
