<svg width="22" height="22" viewBox="0 0 22 22" xmlns="http://www.w3.org/2000/svg">
    <g fill="none" fill-rule="evenodd">
        <circle fill="#FFF" cx="11" cy="11" r="10"/>
        <path d="M11 1c5.523 0 10 4.477 10 10s-4.477 10-10 10S1 16.523 1 11 5.477 1 11 1zm0 1.5a8.5 8.5 0 1 0 0 17 8.5 8.5 0 0 0 0-17z" fill="#979797" fill-rule="nonzero"/>
        <path d="m5.773 10.508-.085.049a.75.75 0 0 0 .183 1.333l3.18 1.06 1.06 3.18a.75.75 0 0 0 1.382.098L16.207 6.8c.323-.644-.361-1.328-1.006-1.006l-9.428 4.714zm8.086-2.366-2.898 5.795-.606-1.817-.045-.108a.75.75 0 0 0-.429-.366l-1.817-.606 5.795-2.898z" fill="#979797" fill-rule="nonzero"/>
    </g>
</svg>
