<?xml version="1.0" encoding="UTF-8"?>
<svg width="22px" height="22px" viewBox="0 0 22 22" version="1.1" xmlns="http://www.w3.org/2000/svg" xmlns:xlink="http://www.w3.org/1999/xlink">
    <title>B7657B05-B66A-4D2E-9CEF-C9C78C96571F</title>
    <g id="首頁" stroke="none" stroke-width="1" fill="none" fill-rule="evenodd">
        <g id="UI" transform="translate(-157.000000, -211.000000)">
            <g id="icon/footer/live/active" transform="translate(157.000000, 211.000000)">
                <rect id="Rectangle-Copy-6" fill="#FFDC00" x="0" y="3" width="15" height="16" rx="4"></rect>
                <path d="M18.1587313,5.99176893 L19,5.55555556 C20.0072332,5.03328651 21.2471397,5.4264276 21.7694087,6.43366076 C21.9209166,6.72585453 22,7.05017449 22,7.37931252 L22,14.6206875 C22,15.7552727 21.080237,16.6750357 19.9456518,16.6750357 C19.6165137,16.6750357 19.2921938,16.5959523 19,16.4444444 L18.1587313,16.0082311 C16.8324957,15.3205533 16,13.9511345 16,12.4572129 L16,9.54278706 C16,8.0488655 16.8324957,6.67944667 18.1587313,5.99176893 Z" id="Rectangle-Copy-6" fill="#FFDC00"></path>
                <path d="M21.7694087,6.43366076 C21.9209166,6.72585453 22,7.05017449 22,7.37931252 L22,14.6206875 C22,15.7552727 21.080237,16.6750357 19.9456518,16.6750357 C19.6165137,16.6750357 19.2921938,16.5959523 19,16.4444444 L18.1587313,16.0082311 C16.8324957,15.3205533 16,13.9511345 16,12.4572129 L16,9.54278706 C16,8.0488655 16.8324957,6.67944667 18.1587313,5.99176893 L19,5.55555556 C20.0072332,5.03328651 21.2471397,5.4264276 21.7694087,6.43366076 Z M20.4377769,7.12413651 C20.312506,6.88254253 20.0342289,6.77187792 19.7830471,6.84924794 L19.6904757,6.88718735 L18.8492071,7.32340073 C18.0755696,7.72454608 17.5707461,8.49686158 17.5068747,9.35718758 L17.5,9.54278706 L17.5,12.4572129 C17.5,13.3286672 17.9532477,14.1323366 18.6876049,14.5850616 L18.8492071,14.6765993 L19.6904757,15.1128126 C19.7693217,15.1536957 19.8568367,15.1750357 19.9456518,15.1750357 C20.221194,15.1750357 20.4497823,14.9740017 20.4927445,14.7106056 L20.5,14.6206875 L20.5,7.37931252 C20.5,7.32010247 20.4905156,7.26147025 20.4720791,7.20559923 L20.4377769,7.12413651 Z" id="Rectangle-Copy-6" fill="#000000" fill-rule="nonzero"></path>
                <circle id="Oval" fill="#FFDC00" cx="7" cy="9" r="3"></circle>
                <path d="M11,3 C13.209139,3 15,4.790861 15,7 L15,15 C15,17.209139 13.209139,19 11,19 L4,19 C1.790861,19 0,17.209139 0,15 L0,7 C0,4.790861 1.790861,3 4,3 L11,3 Z M11,4.5 L4,4.5 C2.6745166,4.5 1.58996133,5.53153594 1.50531768,6.83562431 L1.5,7 L1.5,15 C1.5,16.3254834 2.53153594,17.4100387 3.83562431,17.4946823 L4,17.5 L11,17.5 C12.3254834,17.5 13.4100387,16.4684641 13.4946823,15.1643757 L13.5,15 L13.5,7 C13.5,5.6745166 12.4684641,4.58996133 11.1643757,4.50531768 L11,4.5 Z" id="Rectangle-Copy-6" fill="#000000" fill-rule="nonzero"></path>
                <path d="M7,6 C8.65685425,6 10,7.34314575 10,9 C10,10.6568542 8.65685425,12 7,12 C5.34314575,12 4,10.6568542 4,9 C4,7.34314575 5.34314575,6 7,6 Z M7,7.5 C6.17157288,7.5 5.5,8.17157288 5.5,9 C5.5,9.82842712 6.17157288,10.5 7,10.5 C7.82842712,10.5 8.5,9.82842712 8.5,9 C8.5,8.17157288 7.82842712,7.5 7,7.5 Z" id="Oval" fill="#000000" fill-rule="nonzero"></path>
            </g>
        </g>
    </g>
</svg>