<?xml version="1.0" encoding="UTF-8"?>
<svg width="32px" height="32px" viewBox="0 0 32 32" version="1.1" xmlns="http://www.w3.org/2000/svg" xmlns:xlink="http://www.w3.org/1999/xlink">
    <title>F9352BED-FA86-41C5-AA89-33CF37FD6597</title>
    <g id="首頁" stroke="none" stroke-width="1" fill="none" fill-rule="evenodd">
        <g id="UI" transform="translate(-910.000000, -158.000000)" stroke-width="1.5">
            <g id="icon/recommend/sharehistory" transform="translate(910.000000, 158.000000)">
                <path d="M8.38673814,2.75 L24.25,2.75 C25.9068542,2.75 27.25,4.09314575 27.25,5.75 L27.25,26.25 C27.25,27.9068542 25.9068542,29.25 24.25,29.25 L7.75,29.25 C6.09314575,29.25 4.75,27.9068542 4.75,26.25 L4.75,23.3346964 L4.75,23.3346964" id="Rectangle" stroke="#000000" stroke-linecap="round" transform="translate(16.000000, 16.000000) rotate(-180.000000) translate(-16.000000, -16.000000) "></path>
                <path d="M23.7687877,11.8313791 C24.4072993,11.9087217 24.5238093,12.0252317 24.5885704,12.1709441 L24.5885704,12.1709441 L29.7338407,23.7478025 C29.8060759,23.9103317 29.8055947,24.0867534 29.7464223,24.2406016 C29.6872499,24.3944498 29.5693864,24.5257245 29.4068572,24.5979597 C29.2307654,24.6762227 29.028882,24.6715297 28.856617,24.5851688 L28.856617,24.5851688 L24,22.1504191 L19.143383,24.5851688 C18.9843859,24.6648782 18.8081324,24.6725952 18.6517008,24.6206356 C18.4952692,24.568676 18.3586596,24.4570398 18.2789502,24.2980427 C18.1925892,24.1257777 18.1878962,23.9238944 18.2661593,23.7478025 L18.2661593,23.7478025 L23.4114296,12.1709441 C23.4836649,12.0084149 23.6149395,11.8905514 23.7687877,11.8313791 Z" id="Triangle" stroke="#000000" fill="#FFFFFF" transform="translate(24.000000, 18.000000) rotate(-345.000000) translate(-24.000000, -18.000000) "></path>
                <line x1="10" y1="10" x2="20" y2="10" id="Path-3" stroke="#FFDC00"></line>
                <line x1="10" y1="15" x2="16" y2="15" id="Path-3" stroke="#FFDC00"></line>
                <line x1="10" y1="20" x2="13" y2="20" id="Path-3" stroke="#FFDC00"></line>
                <line x1="22.9647238" y1="21.8637033" x2="23.741181" y2="18.9659258" id="Path-4" stroke="#FFDC00"></line>
            </g>
        </g>
    </g>
</svg>