<?xml version="1.0" encoding="UTF-8"?>
<svg width="22px" height="22px" viewBox="0 0 22 22" version="1.1" xmlns="http://www.w3.org/2000/svg" xmlns:xlink="http://www.w3.org/1999/xlink">
    <title>FF90C2AD-4F98-4988-835C-39F42A841835</title>
    <g id="首頁" stroke="none" stroke-width="1" fill="none" fill-rule="evenodd">
        <g id="UI" transform="translate(-373.000000, -341.000000)">
            <g id="icon/backupaccount" transform="translate(373.000000, 341.000000)">
                <rect id="Rectangle" fill="#D8D8D8" opacity="0" x="0" y="0" width="22" height="22"></rect>
                <path d="M11,2.75 C13.1113591,2.75 15.2227182,3.55545635 16.8336309,5.16636906 C18.4445436,6.77728176 19.25,8.88864088 19.25,11 C19.25,13.1113591 18.4445436,15.2227182 16.8336309,16.8336309 C15.2227182,18.4445436 13.1113591,19.25 11,19.25 C8.88864088,19.25 6.77728176,18.4445436 5.16636906,16.8336309 C3.55545635,15.2227182 2.75,13.1113591 2.75,11 C2.75,8.88864088 3.55545635,6.77728176 5.16636906,5.16636906 C6.77728176,3.55545635 8.88864088,2.75 11,2.75 Z" id="Oval" stroke="#000000" stroke-width="1.5"></path>
                <line x1="17.363961" y1="17.363961" x2="19.4852814" y2="19.4852814" id="Path-5" stroke="#000000" stroke-width="1.5" stroke-linecap="round"></line>
            </g>
        </g>
    </g>
</svg>