<?xml version="1.0" encoding="UTF-8"?>
<svg width="22px" height="22px" viewBox="0 0 22 22" version="1.1" xmlns="http://www.w3.org/2000/svg" xmlns:xlink="http://www.w3.org/1999/xlink">
    <title>70D2F919-124B-44C9-8892-DF40421964F3</title>
    <g id="首頁" stroke="none" stroke-width="1" fill="none" fill-rule="evenodd">
        <g id="UI" transform="translate(-163.000000, -341.000000)" fill="#000000">
            <g id="icon/trash" transform="translate(163.000000, 341.000000)">
                <path d="M5.96206739,6.25087029 L6.06405086,6.25274001 L13.3202543,6.87470031 C15.1954094,7.03542789 16.6501715,8.5574837 16.7450721,10.4174288 L16.75,10.6110002 L16.75,15.3889998 C16.75,17.2710306 15.3577431,18.8504632 13.5126977,19.1038586 L13.3202543,19.1252997 L6.06405086,19.74726 C5.65135056,19.7826343 5.28811432,19.4767512 5.25274001,19.0640509 C5.22031356,18.6857423 5.47463817,18.3489972 5.8351351,18.2682529 L5.93594914,18.25274 L13.1921526,17.6307797 C14.3031379,17.5355524 15.1681734,16.6438837 15.2445175,15.5470257 L15.25,15.3889998 L15.25,10.6110002 C15.25,9.49594121 14.4354639,8.55791648 13.349133,8.38817831 L13.1921526,8.36922028 L5.93594914,7.74725999 C5.52324885,7.71188568 5.2173657,7.34864944 5.25274001,6.93594914 C5.28516646,6.55764054 5.59308801,6.26908801 5.96206739,6.25087029 Z" id="Rectangle" fill-rule="nonzero" transform="translate(10.999978, 13.000457) rotate(-270.000000) translate(-10.999978, -13.000457) "></path>
                <path d="M3.75,4 L18.25,4 C18.6642136,4 19,4.33578644 19,4.75 C19,5.16421356 18.6642136,5.5 18.25,5.5 L3.75,5.5 C3.33578644,5.5 3,5.16421356 3,4.75 C3,4.33578644 3.33578644,4 3.75,4 Z" id="Rectangle"></path>
                <path d="M11.75,8 L11.75,14.5 C11.75,14.9142136 11.4142136,15.25 11,15.25 C10.5857864,15.25 10.25,14.9142136 10.25,14.5 L10.25,8 C10.25,7.58578644 10.5857864,7.25 11,7.25 C11.4142136,7.25 11.75,7.58578644 11.75,8 Z" id="Rectangle"></path>
                <path d="M8.66097745,9.95072758 L8.9051251,13.4422018 C8.93401918,13.8554063 8.62247398,14.2137981 8.20926942,14.2426922 C7.79606486,14.2715862 7.43767311,13.960041 7.40877903,13.5468365 L7.16463137,10.0553623 C7.13573729,9.64215773 7.44728249,9.28376598 7.86048705,9.2548719 C8.27369161,9.22597782 8.63208337,9.53752302 8.66097745,9.95072758 Z" id="Rectangle"></path>
                <path d="M14.8353686,10.0553623 L14.591221,13.5468365 C14.5623269,13.960041 14.2039351,14.2715862 13.7907306,14.2426922 C13.377526,14.2137981 13.0659808,13.8554063 13.0948749,13.4422018 L13.3390226,9.95072758 C13.3679166,9.53752302 13.7263084,9.22597782 14.1395129,9.2548719 C14.5527175,9.28376598 14.8642627,9.64215773 14.8353686,10.0553623 Z" id="Rectangle"></path>
                <path d="M11,2.5 C11.5971903,2.5 12.1273796,2.88213884 12.3162278,3.4486833 L12.6709431,4.51282918 C12.8019289,4.90578666 12.5895589,5.33052664 12.1966014,5.46151247 C12.1201266,5.48700409 12.0400422,5.5 11.9594306,5.5 L10.0405694,5.5 C9.62635585,5.5 9.29056942,5.16421356 9.29056942,4.75 C9.29056942,4.66938843 9.30356532,4.58930403 9.32905694,4.51282918 L9.68377223,3.4486833 C9.87262039,2.88213884 10.4028097,2.5 11,2.5 Z" id="Rectangle"></path>
            </g>
        </g>
    </g>
</svg>