<?xml version="1.0" encoding="UTF-8"?>
<svg width="32px" height="32px" viewBox="0 0 32 32" version="1.1" xmlns="http://www.w3.org/2000/svg" xmlns:xlink="http://www.w3.org/1999/xlink">
    <title>3B2BEEF9-C529-4F31-9FBA-F381A7C3DC82</title>
    <g id="首頁" stroke="none" stroke-width="1" fill="none" fill-rule="evenodd">
        <g id="UI" transform="translate(-670.000000, -158.000000)">
            <g id="icon/recommend/viewhistory" transform="translate(670.000000, 158.000000)">
                <rect id="Rectangle" stroke="#000000" stroke-width="1.5" fill="#FFFFFF" x="2.75" y="6.75" width="26.5" height="20.5" rx="4"></rect>
                <path d="M17.8944272,13.7888544 L21.2763932,20.5527864 C21.5233825,21.0467649 21.3231581,21.6474379 20.8291796,21.8944272 C20.6903242,21.9638549 20.5372111,22 20.381966,22 L13.618034,22 C13.0657492,22 12.618034,21.5522847 12.618034,21 C12.618034,20.8447549 12.6541791,20.6916418 12.7236068,20.5527864 L16.1055728,13.7888544 C16.3525621,13.2948759 16.9532351,13.0946515 17.4472136,13.3416408 C17.640741,13.4384045 17.7976635,13.595327 17.8944272,13.7888544 Z" id="Triangle" fill="#FFDC00" transform="translate(17.000000, 17.000000) rotate(-270.000000) translate(-17.000000, -17.000000) "></path>
            </g>
        </g>
    </g>
</svg>