<?xml version="1.0" encoding="UTF-8"?>
<svg width="22px" height="22px" viewBox="0 0 22 22" version="1.1" xmlns="http://www.w3.org/2000/svg" xmlns:xlink="http://www.w3.org/1999/xlink">
    <title>EDAA83CF-B45E-426B-AE0A-2673E7812B71</title>
    <g id="首頁" stroke="none" stroke-width="1" fill="none" fill-rule="evenodd">
        <g id="UI" transform="translate(-271.000000, -153.000000)">
            <g id="icon/footer/find/default-white" transform="translate(271.000000, 153.000000)">
                <circle id="Oval" cx="11" cy="11" r="10"></circle>
                <path d="M11,1 C16.5228475,1 21,5.4771525 21,11 C21,16.5228475 16.5228475,21 11,21 C5.4771525,21 1,16.5228475 1,11 C1,5.4771525 5.4771525,1 11,1 Z M11,2.5 C6.30557963,2.5 2.5,6.30557963 2.5,11 C2.5,15.6944204 6.30557963,19.5 11,19.5 C15.6944204,19.5 19.5,15.6944204 19.5,11 C19.5,6.30557963 15.6944204,2.5 11,2.5 Z" id="Oval" fill="#FFFFFF" fill-rule="nonzero" opacity="0.699999988"></path>
                <path d="M7.95515419,14.7628292 L7.92988194,14.857354 C7.80975841,15.4518317 8.43432158,15.954698 9.00207686,15.6708204 L12,14.172 L14.9979231,15.6708204 C15.5955603,15.969639 16.2561424,15.3967191 16.0448458,14.7628292 L12.7115125,4.76282918 C12.4835884,4.07905694 11.5164116,4.07905694 11.2884875,4.76282918 L7.95515419,14.7628292 Z M12,7.372 L14.048,13.519 L12.3354102,12.6625129 L12.2270682,12.6185243 C12.04246,12.5598727 11.8405445,12.5745356 11.6645898,12.6625129 L9.951,13.519 L12,7.372 Z" id="Triangle" fill="#FFFFFF" fill-rule="nonzero" opacity="0.699999988" transform="translate(12.000000, 10.001155) rotate(-315.000000) translate(-12.000000, -10.001155) "></path>
            </g>
        </g>
    </g>
</svg>