<?xml version="1.0" encoding="UTF-8"?>
<svg width="22px" height="22px" viewBox="0 0 22 22" version="1.1" xmlns="http://www.w3.org/2000/svg" xmlns:xlink="http://www.w3.org/1999/xlink">
    <title>208FCD6E-FF8B-4D54-AB67-2BD784A01350</title>
    <g id="首頁" stroke="none" stroke-width="1" fill="none" fill-rule="evenodd">
        <g id="UI" transform="translate(-119.000000, -153.000000)">
            <g id="icon/footer/game/default-white" transform="translate(119.000000, 153.000000)">
                <rect id="Rectangle-Copy-6" x="0" y="3" width="22" height="16" rx="8"></rect>
                <g id="Group" opacity="0.699999988" transform="translate(0.000000, 3.000000)" fill="#FFFFFF">
                    <path d="M14,0 C18.418278,0 22,3.581722 22,8 C22,12.418278 18.418278,16 14,16 L8,16 C3.581722,16 0,12.418278 0,8 C0,3.581722 3.581722,0 8,0 L14,0 Z M14,1.5 L8,1.5 C4.41014913,1.5 1.5,4.41014913 1.5,8 C1.5,11.5118106 4.28499621,14.3731506 7.76686587,14.495897 L8,14.5 L14,14.5 C17.5898509,14.5 20.5,11.5898509 20.5,8 C20.5,4.48818936 17.7150038,1.62684944 14.2331341,1.50410301 L14,1.5 Z" id="Rectangle-Copy-6" fill-rule="nonzero"></path>
                    <circle id="Oval" cx="14.5" cy="5.5" r="1.5"></circle>
                    <circle id="Oval" cx="16.5" cy="9.5" r="1.5"></circle>
                    <rect id="Rectangle-Copy-6" x="7" y="5" width="1.5" height="6" rx="0.75"></rect>
                    <rect id="Rectangle-Copy-6" transform="translate(7.750000, 8.000000) rotate(-270.000000) translate(-7.750000, -8.000000) " x="7" y="5" width="1.5" height="6" rx="0.75"></rect>
                </g>
            </g>
        </g>
    </g>
</svg>