<?xml version="1.0" encoding="UTF-8"?>
<svg width="22px" height="22px" viewBox="0 0 22 22" version="1.1" xmlns="http://www.w3.org/2000/svg" xmlns:xlink="http://www.w3.org/1999/xlink">
    <title>1AF223C3-B63E-4478-B21E-C56510E56D64</title>
    <g id="首頁" stroke="none" stroke-width="1" fill="none" fill-rule="evenodd">
        <g id="UI" transform="translate(-73.000000, -301.000000)">
            <g id="icon/history" transform="translate(72.898195, 301.000000)">
                <g id="Group-2" transform="translate(0.000000, 1.366025)">
                    <path d="M11.101805,18.9282032 C15.520083,18.9282032 19.101805,15.3464812 19.101805,10.9282032 C19.101805,6.50992523 15.520083,2.92820323 11.101805,2.92820323 C6.68352701,2.92820323 3.10180501,6.50992523 3.10180501,10.9282032" id="Oval" stroke="#000000" stroke-width="1.5" stroke-linecap="round" transform="translate(11.101805, 10.928203) rotate(-300.000000) translate(-11.101805, -10.928203) "></path>
                    <rect id="Rectangle" fill="#000000" x="10.601805" y="6.1339746" width="1.5" height="5" rx="0.75"></rect>
                    <rect id="Rectangle" fill="#000000" transform="translate(13.262059, 12.031089) rotate(-60.000000) translate(-13.262059, -12.031089) " x="12.512059" y="9.53108891" width="1.5" height="5" rx="0.75"></rect>
                    <path d="M5.49053663,5.10317029 L6.97399761,8.56457925 C7.19155323,9.07220904 6.95640167,9.66008796 6.44877188,9.87764358 C6.32429503,9.9309908 6.19027936,9.95849855 6.05485258,9.95849855 L3.08793061,9.95849855 C2.53564586,9.95849855 2.08793061,9.5107833 2.08793061,8.95849855 C2.08793061,8.82307177 2.11543836,8.6890561 2.16878558,8.56457925 L3.65224657,5.10317029 C3.86980219,4.5955405 4.45768111,4.36038894 4.9653109,4.57794456 C5.20132578,4.67909379 5.38938739,4.86715541 5.49053663,5.10317029 Z" id="Triangle" fill="#000000" transform="translate(4.571392, 6.458499) rotate(-138.000000) translate(-4.571392, -6.458499) "></path>
                </g>
            </g>
        </g>
    </g>
</svg>