<?xml version="1.0" encoding="UTF-8"?>
<svg width="14px" height="14px" viewBox="0 0 14 14" version="1.1" xmlns="http://www.w3.org/2000/svg" xmlns:xlink="http://www.w3.org/1999/xlink">
    <title>icon/view</title>
    <g id="Symbols" stroke="none" stroke-width="1" fill="none" fill-rule="evenodd">
        <g id="Path" fill="#CACACA">
            <path d="M3.34843574,1.56512297 C2.87851875,1.69386736 2.47926036,2.00453059 2.23897599,2.42839439 C2.08149264,2.70863831 1.99969387,3.0209971 2,3.33909502 L2,10.668323 C2,11.6772608 2.81589969,12.4962248 3.82482991,12.5 C4.15256161,12.4979501 4.46442455,12.4147447 4.7412257,12.2568309 L11.1047893,8.58054687 C11.5204273,8.34605016 11.831018,7.94657924 11.9598121,7.4777686 C12.0889021,7.00788102 12.0251629,6.50591529 11.7826885,6.08323243 C11.6199153,5.799875 11.3853152,5.56522517 11.1024386,5.40272776 L4.74397801,1.74294835 C4.37347601,1.53045964 3.94283486,1.45506371 3.52601231,1.52582291 L3.34843574,1.56512297 Z M4.24580374,2.61002493 L10.6039603,6.26962983 C10.7336803,6.34414719 10.8409565,6.4514462 10.915422,6.5810764 C11.0251665,6.77237507 11.0540497,6.99987937 10.995539,7.21285843 C10.9371675,7.42533073 10.7964048,7.60637479 10.6089613,7.71214094 L4.24334515,11.3895896 C4.11848263,11.4608146 3.97515595,11.4990543 3.82353293,11.5000152 C3.370464,11.4982938 3.00000023,11.1264387 3.00000023,10.668323 L3.00000023,3.33861249 C2.99985953,3.19216647 3.03739379,3.04883722 3.10983798,2.9199184 C3.21801706,2.72909669 3.39930251,2.58803835 3.61267089,2.52958126 C3.82619168,2.47108241 4.05401383,2.49998707 4.24580374,2.61002493 Z"></path>
        </g>
    </g>
</svg>