<?xml version="1.0" encoding="UTF-8"?>
<svg width="14px" height="14px" viewBox="0 0 14 14" version="1.1" xmlns="http://www.w3.org/2000/svg" xmlns:xlink="http://www.w3.org/1999/xlink">
    <title>1DE45777-9836-426C-975F-AFE6B0FB43AF</title>
    <g id="首頁" stroke="none" stroke-width="1" fill="none" fill-rule="evenodd">
        <g id="UI" transform="translate(-303.000000, -427.000000)" fill="#979797" fill-rule="nonzero">
            <g id="icon/view-gray" transform="translate(303.000000, 427.000000)">
                <path d="M6,3 C7.1045695,3 8,3.8954305 8,5 L8,9 C8,10.1045695 7.1045695,11 6,11 L3,11 C1.8954305,11 1,10.1045695 1,9 L1,5 C1,3.8954305 1.8954305,3 3,3 L6,3 Z M6,4.5 L3,4.5 C2.75454011,4.5 2.55039163,4.67687516 2.50805567,4.91012437 L2.5,5 L2.5,9 C2.5,9.24545989 2.67687516,9.44960837 2.91012437,9.49194433 L3,9.5 L6,9.5 C6.24545989,9.5 6.44960837,9.32312484 6.49194433,9.08987563 L6.5,9 L6.5,5 C6.5,4.75454011 6.32312484,4.55039163 6.08987563,4.50805567 L6,4.5 Z" id="Rectangle"></path>
                <path d="M12.854102,4.61803399 C12.9500487,4.80992748 13,5.02152453 13,5.23606798 L13,8.76393202 C13,9.52717078 12.3812727,10.145898 11.618034,10.145898 C11.4034905,10.145898 11.1918935,10.0959467 11,10 L10.1055728,9.5527864 C9.42800475,9.21400238 9,8.52147614 9,7.76393202 L9,6.23606798 C9,5.47852386 9.42800475,4.78599762 10.1055728,4.4472136 L11,4 C11.6826615,3.65866925 12.5127712,3.9353725 12.854102,4.61803399 Z M11.5,5.426 L10.7763932,5.78885438 C10.6352332,5.85943439 10.5374001,5.99142797 10.5087102,6.14306367 L10.5,6.23606798 L10.5,7.76393202 C10.5,7.92175371 10.5743064,8.06828758 10.697103,8.16176216 L10.7763932,8.21114562 L11.5,8.573 L11.5,5.426 Z" id="Rectangle"></path>
            </g>
        </g>
    </g>
</svg>