<?xml version="1.0" encoding="UTF-8"?>
<svg width="40px" height="40px" viewBox="0 0 40 40" version="1.1" xmlns="http://www.w3.org/2000/svg" xmlns:xlink="http://www.w3.org/1999/xlink">
    <title>D120B233-B4BD-4D28-BE15-C5F4C18375C1</title>
    <g id="首頁" stroke="none" stroke-width="1" fill="none" fill-rule="evenodd">
        <g id="UI" transform="translate(-630.000000, -107.000000)">
            <g id="icon/theme/game" transform="translate(630.000000, 107.000000)">
                <g id="Group-7" transform="translate(1.000000, 9.000000)">
                    <path d="M12,0 L29,0 C34.5228475,-1.01453063e-15 39,4.4771525 39,10 C39,15.5228475 34.5228475,20 29,20 L12,20 C6.4771525,20 2,15.5228475 2,10 C2,4.4771525 6.4771525,1.01453063e-15 12,0 Z" id="Rectangle" fill="#FFDC00"></path>
                    <path d="M10,2 L27,2 C32.5228475,2 37,6.4771525 37,12 C37,17.5228475 32.5228475,22 27,22 L10,22 C4.4771525,22 6.76353751e-16,17.5228475 0,12 C-6.76353751e-16,6.4771525 4.4771525,2 10,2 Z" id="Rectangle" stroke="#000000" stroke-width="1.5" stroke-linejoin="round"></path>
                    <path d="M12,6 C13.1045695,6 14,6.8954305 14,8 L13.999,8.999 L15,9 C16.1045695,9 17,9.8954305 17,11 C17,12.1045695 16.1045695,13 15,13 L13.999,12.999 L14,14 C14,15.1045695 13.1045695,16 12,16 C10.8954305,16 10,15.1045695 10,14 L9.999,12.999 L9,13 C7.8954305,13 7,12.1045695 7,11 C7,9.8954305 7.8954305,9 9,9 L9.999,8.999 L10,8 C10,6.8954305 10.8954305,6 12,6 Z" id="Combined-Shape" fill="#FFFFFF"></path>
                    <path d="M10,7 C11.1045695,7 12,7.8954305 12,9 L11.999,9.999 L13,10 C14.1045695,10 15,10.8954305 15,12 C15,13.1045695 14.1045695,14 13,14 L11.999,13.999 L12,15 C12,16.1045695 11.1045695,17 10,17 C8.8954305,17 8,16.1045695 8,15 L7.999,13.999 L7,14 C5.8954305,14 5,13.1045695 5,12 C5,10.8954305 5.8954305,10 7,10 L7.999,9.999 L8,9 C8,7.8954305 8.8954305,7 10,7 Z" id="Combined-Shape" stroke="#000000" stroke-width="1.5" fill="#FFFFFF" stroke-linejoin="round"></path>
                    <circle id="Oval" fill="#FFFFFF" cx="25.5" cy="7.5" r="2.5"></circle>
                    <circle id="Oval" fill="#FFFFFF" cx="31.5" cy="13.5" r="2.5"></circle>
                    <circle id="Oval" stroke="#000000" stroke-width="1.5" fill="#FFFFFF" stroke-linejoin="round" cx="23" cy="8" r="2"></circle>
                    <circle id="Oval" stroke="#000000" stroke-width="1.5" fill="#FFFFFF" stroke-linejoin="round" cx="29" cy="14" r="2"></circle>
                </g>
            </g>
        </g>
    </g>
</svg>