<?xml version="1.0" encoding="UTF-8"?>
<svg width="40px" height="40px" viewBox="0 0 40 40" version="1.1" xmlns="http://www.w3.org/2000/svg" xmlns:xlink="http://www.w3.org/1999/xlink">
    <title>BAD3FF17-1DBE-4E81-B3FA-80600578C2FD</title>
    <g id="首頁" stroke="none" stroke-width="1" fill="none" fill-rule="evenodd">
        <g id="UI" transform="translate(-686.000000, -107.000000)">
            <g id="icon/theme/live" transform="translate(686.000000, 107.000000)">
                <g id="Group-8" transform="translate(1.000000, 9.000000)">
                    <rect id="Rectangle" fill="#FFDC00" x="2" y="0" width="24" height="20" rx="6"></rect>
                    <rect id="Rectangle" stroke="#000000" stroke-width="1.5" stroke-linejoin="round" x="0" y="2" width="24" height="20" rx="6"></rect>
                    <path d="M31.9747708,4.19099243 L34,3.45454545 C35.5473412,2.89187593 37.2578428,3.69011003 37.8205124,5.23745122 C37.9392564,5.56399746 38,5.90878853 38,6.25625451 L38,13.7437455 C38,15.390215 36.6652728,16.7249422 35.0188033,16.7249422 C34.6713373,16.7249422 34.3265462,16.6641986 34,16.5454545 L31.9747708,15.8090076 C30.7892032,15.3778921 30,14.2511466 30,12.9896273 L30,7.0103727 C30,5.74885338 30.7892032,4.62210791 31.9747708,4.19099243 Z" id="Rectangle" fill="#FFDC00"></path>
                    <path d="M28.9747708,6.19099243 L31,5.45454545 C32.5473412,4.89187593 34.2578428,5.69011003 34.8205124,7.23745122 C34.9392564,7.56399746 35,7.90878853 35,8.25625451 L35,15.7437455 C35,17.390215 33.6652728,18.7249422 32.0188033,18.7249422 C31.6713373,18.7249422 31.3265462,18.6641986 31,18.5454545 L28.9747708,17.8090076 C27.7892032,17.3778921 27,16.2511466 27,14.9896273 L27,9.0103727 C27,7.74885338 27.7892032,6.62210791 28.9747708,6.19099243 Z" id="Rectangle" stroke="#000000" stroke-width="1.5" stroke-linejoin="round"></path>
                    <circle id="Oval" fill="#FFFFFF" cx="10.5" cy="9.5" r="4.5"></circle>
                    <circle id="Oval" stroke="#000000" stroke-width="1.5" fill="#FFFFFF" stroke-linejoin="round" cx="8" cy="10" r="4"></circle>
                </g>
            </g>
        </g>
    </g>
</svg>