<?xml version="1.0" encoding="UTF-8"?>
<svg width="22px" height="22px" viewBox="0 0 22 22" version="1.1" xmlns="http://www.w3.org/2000/svg" xmlns:xlink="http://www.w3.org/1999/xlink">
    <title>3ACA5B8D-4457-4A05-8F2C-4A4359AAF69A</title>
    <g id="首頁" stroke="none" stroke-width="1" fill="none" fill-rule="evenodd">
        <g id="UI" transform="translate(-302.000000, -1101.000000)" fill="#000000">
            <g id="popup/1" transform="translate(29.000000, 1085.000000)">
                <g id="icon/close" transform="translate(273.000000, 16.000000)">
                    <path d="M5.69033009,4.62966991 L10.993,9.932 L16.2969318,4.62966991 C16.589825,4.3367767 17.0646988,4.3367767 17.357592,4.62966991 C17.6504852,4.92256313 17.6504852,5.39743687 17.357592,5.69033009 L12.054,10.993 L17.357592,16.2969318 C17.6504852,16.589825 17.6504852,17.0646988 17.357592,17.357592 C17.0646988,17.6504852 16.589825,17.6504852 16.2969318,17.357592 L10.993,12.054 L5.69033009,17.357592 C5.39743687,17.6504852 4.92256313,17.6504852 4.62966991,17.357592 C4.3367767,17.0646988 4.3367767,16.589825 4.62966991,16.2969318 L9.932,10.993 L4.62966991,5.69033009 C4.3367767,5.39743687 4.3367767,4.92256313 4.62966991,4.62966991 C4.92256313,4.3367767 5.39743687,4.3367767 5.69033009,4.62966991 Z" id="Combined-Shape"></path>
                </g>
            </g>
        </g>
    </g>
</svg>