<?xml version="1.0" encoding="UTF-8"?>
<svg width="14px" height="14px" viewBox="0 0 14 14" version="1.1" xmlns="http://www.w3.org/2000/svg" xmlns:xlink="http://www.w3.org/1999/xlink">
    <title>B316DA3F-7BBA-470D-8CC6-2750C74FAEF9</title>
    <g id="首頁" stroke="none" stroke-width="1" fill="none" fill-rule="evenodd">
        <g id="UI" transform="translate(-95.000000, -427.000000)" stroke="#979797" stroke-width="1.5">
            <g id="icon/heart-gray" transform="translate(95.000000, 427.000000)">
                <path d="M9.31831732,2.75114334 C9.95541602,2.76929217 10.5614874,3.00676861 11.0275107,3.47017409 C11.489666,3.9297468 11.7303685,4.52627331 11.748841,5.12848301 C11.7672182,5.72758709 11.5659486,6.33214567 11.1449049,6.81240247 L11.1449049,6.81240247 L6.99953241,10.941842 L2.98841769,6.95320068 C2.50942588,6.41261445 2.26805256,5.77571043 2.2680513,5.15246238 C2.26805004,4.53304521 2.50801893,3.93204891 2.97248157,3.47018181 C3.43618716,3.009081 4.03826204,2.76958369 4.64572377,2.7511583 C5.2568347,2.73262223 5.87383764,2.93749266 6.36107631,3.36706733 C6.52639368,3.51281963 6.66791855,3.67663394 6.78509235,3.85323018 C6.93733183,3.69551369 7.1077193,3.54804679 7.29496818,3.41338211 C7.92843622,2.95780785 8.63940148,2.73180329 9.31831732,2.75114334 Z" id="Combined-Shape"></path>
            </g>
        </g>
    </g>
</svg>