<svg width="13" height="12" viewBox="0 0 13 12" xmlns="http://www.w3.org/2000/svg">
    <path d="M3.578 2.358a2.925 2.925 0 0 0-.798 4.934l2.747 2.413c.473.416 1.18.427 1.666.026l2.825-2.328a2.9 2.9 0 0 0 1.165-2.336c0-1.19-.722-2.261-1.825-2.71l-.166-.061a2.925 2.925 0 0 0-2.63.389l-.094.07-.093-.07a2.925 2.925 0 0 0-2.797-.327zm5.458.794a2.068 2.068 0 0 1 .455 3.576L6.648 9.069a.429.429 0 0 1-.556-.008L3.341 6.644a2.066 2.066 0 0 1 .56-3.492 2.068 2.068 0 0 1 2.26.474l.307.316.308-.316a2.068 2.068 0 0 1 2.26-.474z" fill="#FFF" fill-rule="evenodd"/>
</svg>
