<?xml version="1.0" encoding="UTF-8"?>
<svg width="33px" height="34px" viewBox="0 0 33 34" version="1.1" xmlns="http://www.w3.org/2000/svg" xmlns:xlink="http://www.w3.org/1999/xlink">
    <title>E13DDD14-E3B0-4BC1-AFC7-639C1294EC7A</title>
    <g id="首頁" stroke="none" stroke-width="1" fill="none" fill-rule="evenodd">
        <g id="i1.3-個人中心-已登陸-有VIP" transform="translate(-126.000000, -489.000000)" stroke-width="1.5">
            <g id="Group-5" transform="translate(29.000000, 415.000000)">
                <g id="icon/recommend/share" transform="translate(96.554564, 68.054564)">
                    <path d="M19.5833036,9.39829765 C19.9442683,9.25649007 20.3593308,9.2523859 20.7429332,9.41959718 C21.0838973,9.56822256 21.3582919,9.83705593 21.5138666,10.1749058 L21.5138666,10.1749058 L30.3285847,29.3171654 C30.5036143,29.697264 30.5080085,30.1123236 30.3736206,30.4761159 C30.2392326,30.8399081 29.9660627,31.1524332 29.585964,31.3274628 C29.1649515,31.5213326 28.6783663,31.5118636 28.2652152,31.3017608 L28.2652152,31.3017608 L20.4406435,27.3226738 L12.5189852,31.1675958 C12.1425241,31.3503181 11.7276397,31.3631511 11.36119,31.2361882 C10.9947404,31.1092253 10.6767254,30.8424666 10.4940031,30.4660056 C10.30066,30.0676625 10.2912118,29.6046835 10.4681423,29.198784 L10.4681423,29.198784 L18.7482606,10.2032186 C18.9154719,9.81961621 19.2223388,9.54010523 19.5833036,9.39829765 Z" id="Triangle" stroke="#000000" fill="#FFFFFF" transform="translate(20.533825, 20.097626) rotate(-315.000000) translate(-20.533825, -20.097626) "></path>
                    <line x1="15.8492424" y1="24.6054315" x2="19.3847763" y2="20.9594122" id="Path-4" stroke="#FFDC00"></line>
                </g>
            </g>
        </g>
    </g>
</svg>