<?xml version="1.0" encoding="UTF-8"?>
<svg width="14px" height="14px" viewBox="0 0 14 14" version="1.1" xmlns="http://www.w3.org/2000/svg" xmlns:xlink="http://www.w3.org/1999/xlink">
    <title>2D3799BE-3695-4453-9905-7B7B7F92302C</title>
    <g id="首頁" stroke="none" stroke-width="1" fill="none" fill-rule="evenodd">
        <g id="UI" transform="translate(-173.000000, -427.000000)">
            <g id="icon/timer" transform="translate(173.000000, 427.000000)">
                <rect id="Rectangle" fill="#393939" opacity="0" x="0" y="0" width="14" height="14"></rect>
                <rect id="Rectangle" fill="#979797" x="6.25" y="3.75" width="1.5" height="4" rx="0.75"></rect>
                <rect id="Rectangle" fill="#979797" transform="translate(8.250000, 7.000000) rotate(-270.000000) translate(-8.250000, -7.000000) " x="7.5" y="5" width="1.5" height="4" rx="0.75"></rect>
                <path d="M7,0.75 C3.54822031,0.75 0.75,3.54822031 0.75,7 C0.75,10.4517797 3.54822031,13.25 7,13.25 C10.4517797,13.25 13.25,10.4517797 13.25,7 C13.25,3.54822031 10.4517797,0.75 7,0.75 Z M7,2.25 C9.62335256,2.25 11.75,4.37664744 11.75,7 C11.75,9.62335256 9.62335256,11.75 7,11.75 C4.37664744,11.75 2.25,9.62335256 2.25,7 C2.25,4.37664744 4.37664744,2.25 7,2.25 Z" id="Oval" fill="#979797" fill-rule="nonzero"></path>
            </g>
        </g>
    </g>
</svg>