<?xml version="1.0" encoding="UTF-8"?>
<svg width="40px" height="40px" viewBox="0 0 40 40" version="1.1" xmlns="http://www.w3.org/2000/svg" xmlns:xlink="http://www.w3.org/1999/xlink">
    <title>425A8021-5C70-4121-8442-6046207AA51A</title>
    <g id="首頁" stroke="none" stroke-width="1" fill="none" fill-rule="evenodd">
        <g id="UI" transform="translate(-742.000000, -107.000000)">
            <g id="icon/theme/diamon" transform="translate(742.000000, 107.000000)">
                <g id="Group-11" transform="translate(3.000000, 9.000000)">
                    <polygon id="Rectangle" fill="#FFDC00" points="10.3157895 0 27.6842105 0 34 8.02387268 19 22 4 8.02387268"></polygon>
                    <polygon id="Rectangle" stroke="#000000" stroke-width="1.5" stroke-linejoin="round" points="6.31578947 1 23.6842105 1 30 9.02387268 15 23 1.0658141e-13 9.02387268"></polygon>
                    <rect id="Rectangle" fill="#000000" x="0" y="8" width="30" height="1.5"></rect>
                    <rect id="Rectangle" fill="#000000" transform="translate(15.000000, 15.750000) rotate(-270.000000) translate(-15.000000, -15.750000) " x="8" y="15" width="14" height="1.5"></rect>
                    <rect id="Rectangle" fill="#000000" transform="translate(10.619598, 4.989346) rotate(-320.000000) translate(-10.619598, -4.989346) " x="5.11959783" y="4.23934617" width="11" height="1.5"></rect>
                    <rect id="Rectangle" fill="#000000" transform="translate(19.380402, 4.989346) rotate(-220.000000) translate(-19.380402, -4.989346) " x="13.8804022" y="4.23934617" width="11" height="1.5"></rect>
                </g>
            </g>
        </g>
    </g>
</svg>