<?xml version="1.0" encoding="UTF-8"?>
<svg width="22px" height="22px" viewBox="0 0 22 22" version="1.1" xmlns="http://www.w3.org/2000/svg" xmlns:xlink="http://www.w3.org/1999/xlink">
    <title>E1EEF6F7-E134-4E0D-8E25-FE650DEB9259</title>
    <g id="首頁" stroke="none" stroke-width="1" fill="none" fill-rule="evenodd">
        <g id="UI" transform="translate(-253.000000, -301.000000)" fill="#FFFFFF">
            <g id="icon/sound" transform="translate(253.000000, 301.000000)">
                <path d="M9.62746694,4.72390226 C9.86975373,5.06310376 10,5.46953269 10,5.88637865 L10,16.1136214 C10,17.2181909 9.1045695,18.1136214 8,18.1136214 C7.58315405,18.1136214 7.17672512,17.9833751 6.83752361,17.7410883 L4.166,15.8320171 L1.60776773,15.3215535 C0.672919336,15.1345839 1.44902081e-15,14.3137542 0,13.3603922 L0,8.63960781 C7.71425243e-16,7.68624577 0.672919336,6.86541613 1.60776773,6.67844645 L4.166,6.16601712 L6.83752361,4.25891171 C7.73634879,3.61689372 8.98544896,3.82507709 9.62746694,4.72390226 Z" id="Combined-Shape"></path>
                <path d="M12.2954303,7.9210109 C12.4337924,7.53058958 12.862456,7.32625521 13.2528773,7.4646173 C14.7377041,7.99082765 15.75,9.39918112 15.75,11 C15.75,12.6017387 14.7365454,14.0107207 13.2504851,14.5362296 C12.8599697,14.6743258 12.4314452,14.4696996 12.293349,14.0791842 C12.1552528,13.6886687 12.359879,13.2601443 12.7503944,13.1220481 C13.6417176,12.8068534 14.25,11.9611728 14.25,11 C14.25,10.0393773 13.6424146,9.19407596 12.7518239,8.87845796 C12.3614025,8.74009587 12.1570682,8.31143222 12.2954303,7.9210109 Z" id="Oval" fill-rule="nonzero"></path>
                <path d="M14.3235846,4.35217206 C14.5013787,3.97805694 14.9487896,3.81890731 15.3229047,3.99670143 C18.0043204,5.27101487 19.75,7.97806371 19.75,11 C19.75,14.0229575 18.0031383,16.7307581 15.3203356,18.0045189 C14.9461549,18.1821752 14.4988028,18.0228607 14.3211465,17.6486801 C14.1434903,17.2744994 14.3028048,16.8271473 14.6769854,16.649491 C16.84135,15.6218781 18.25,13.4383376 18.25,11 C18.25,8.56248484 16.8423047,6.37955273 14.6790552,5.35149215 C14.3049401,5.17369803 14.1457905,4.72628719 14.3235846,4.35217206 Z" id="Oval" fill-rule="nonzero"></path>
            </g>
        </g>
    </g>
</svg>