<?xml version="1.0" encoding="UTF-8"?>
<svg width="22px" height="22px" viewBox="0 0 22 22" version="1.1" xmlns="http://www.w3.org/2000/svg" xmlns:xlink="http://www.w3.org/1999/xlink">
    <title>D60E8B7E-0DD1-4F23-95A2-49A489410509</title>
    <g id="首頁" stroke="none" stroke-width="1" fill="none" fill-rule="evenodd">
        <g id="n1.8-熱門-區域樣式1-看更多" transform="translate(-337.000000, -60.000000)" fill="#B3B3B3">
            <g id="Group-2" transform="translate(16.000000, 59.000000)">
                <g id="Group" transform="translate(321.000000, 1.000000)">
                    <path d="M11.4462117,9.39705176 L11.5303301,9.46966991 L14.5303301,12.4696699 C14.8232233,12.7625631 14.8232233,13.2374369 14.5303301,13.5303301 C14.2640635,13.7965966 13.8473998,13.8208027 13.5537883,13.6029482 L13.4696699,13.5303301 L11.75,11.811 L11.75,19 C11.75,19.4142136 11.4142136,19.75 11,19.75 C10.6203042,19.75 10.306509,19.4678461 10.2568466,19.1017706 L10.25,19 L10.25,11.811 L8.53033009,13.5303301 C8.26406352,13.7965966 7.84739984,13.8208027 7.55378835,13.6029482 L7.46966991,13.5303301 C7.20340335,13.2640635 7.1791973,12.8473998 7.39705176,12.5537883 L7.46966991,12.4696699 L10.4696699,9.46966991 C10.7359365,9.20340335 11.1526002,9.1791973 11.4462117,9.39705176 Z M11,1.25 C14.1864779,1.25 16.8740909,3.43836357 17.4329966,6.37024574 L17.452,6.489 L17.6133666,6.53655719 C19.9614977,7.27092132 21.6422583,9.33884033 21.7450127,11.7642043 L21.75,12 C21.75,14.897998 19.5046864,17.330813 16.5024601,17.7232832 L16.2638968,17.75 L15.0003664,17.75 C14.5861528,17.75 14.2503664,17.4142136 14.2503664,17 C14.2503664,16.6203042 14.5325202,16.306509 14.8985958,16.2568466 L15.0003664,16.25 L16.1933683,16.2533235 C18.4877074,16.0366082 20.25,14.1854726 20.25,12 C20.25,9.97436484 18.7292032,8.23182635 16.6348597,7.83555644 C16.3015895,7.77249852 16.0521211,7.49361648 16.0264449,7.15540644 C15.8392015,4.68900798 13.6548125,2.75 11,2.75 C8.2084161,2.75 5.96052632,4.8854953 5.96052632,7.5 C5.96052632,7.65245943 5.96812299,7.80184016 5.98325225,7.94695446 C6.02634529,8.36028698 5.725134,8.72986035 5.31160603,8.77103564 C3.28850112,8.97247772 1.75,10.5854948 1.75,12.5 C1.75,14.4849729 3.39685521,16.1251537 5.49745356,16.2432336 L5.7021137,16.2498696 L7.42826837,16.25 C7.84248193,16.25 8.17826837,16.5857864 8.17826837,17 C8.17826837,17.4142136 7.84248193,17.75 7.42826837,17.75 L5.68568173,17.749776 C2.68509957,17.7234895 0.25,15.3899793 0.25,12.5 C0.25,10.0975656 1.94010437,8.05866534 4.2639144,7.44124922 L4.462,7.392 L4.46466583,7.27528034 C4.58574974,3.99398844 7.34811398,1.36897959 10.7659718,1.25393293 L11,1.25 Z" id="Combined-Shape"></path>
                </g>
            </g>
        </g>
    </g>
</svg>