<?xml version="1.0" encoding="UTF-8"?>
<svg width="22px" height="22px" viewBox="0 0 22 22" version="1.1" xmlns="http://www.w3.org/2000/svg" xmlns:xlink="http://www.w3.org/1999/xlink">
    <title>9A226799-0C64-43B7-90D7-E20106C78E85</title>
    <g id="首頁" stroke="none" stroke-width="1" fill="none" fill-rule="evenodd">
        <g id="UI" transform="translate(-493.000000, -341.000000)">
            <g id="icon/setting" transform="translate(493.000000, 341.000000)">
                <rect id="Rectangle" fill="#D8D8D8" opacity="0" x="0" y="0" width="22" height="22"></rect>
                <path d="M11,2.05940108 C11.2158122,2.05940108 11.4316243,2.11522383 11.625,2.22686932 L11.625,2.22686932 L18.285254,6.07216878 C18.6720054,6.29545978 18.910254,6.70811855 18.910254,7.15470054 L18.910254,7.15470054 L18.910254,14.8452995 C18.910254,15.0685905 18.8506919,15.2834006 18.7427858,15.4702995 C18.6348797,15.6571983 18.4786297,15.8161857 18.285254,15.9278312 L18.285254,15.9278312 L11.625,19.7731307 C11.2382487,19.9964217 10.7617513,19.9964217 10.375,19.7731307 L10.375,19.7731307 L3.71474596,15.9278312 C3.32799462,15.7045402 3.08974596,15.2918814 3.08974596,14.8452995 L3.08974596,14.8452995 L3.08974596,7.15470054 C3.08974596,6.70811855 3.32799462,6.29545978 3.71474596,6.07216878 L3.71474596,6.07216878 L10.375,2.22686932 C10.5683757,2.11522383 10.7841878,2.05940108 11,2.05940108 Z" id="Polygon" stroke="#000000" stroke-width="1.5"></path>
                <path d="M11,7.90470054 L13.5891016,9.36084392 C13.6277767,9.38317302 13.6590267,9.41497051 13.680608,9.45235027 C13.7021892,9.48973003 13.7141016,9.53269207 13.7141016,9.57735027 L13.7141016,9.57735027 L13.7141016,12.4226497 C13.7141016,12.5119661 13.6664519,12.5944979 13.5891016,12.6391561 L13.5891016,12.6391561 L11.125,14.0618058 C11.0476497,14.106464 10.9523503,14.106464 10.875,14.0618058 L10.875,14.0618058 L8.41089838,12.6391561 C8.33354812,12.5944979 8.28589838,12.5119661 8.28589838,12.4226497 L8.28589838,12.4226497 L8.28589838,9.57735027 C8.28589838,9.53269207 8.29781082,9.48973003 8.31939203,9.45235027 C8.34097325,9.41497051 8.37222325,9.38317302 8.41089838,9.36084392 L8.41089838,9.36084392 L10.875,7.93819419 C10.9136751,7.91586509 10.9568376,7.90470054 11,7.90470054 L11,7.90470054 Z" id="Polygon" stroke="#000000" stroke-width="1.5"></path>
            </g>
        </g>
    </g>
</svg>