<?xml version="1.0" encoding="UTF-8"?>
<svg width="22px" height="22px" viewBox="0 0 22 22" version="1.1" xmlns="http://www.w3.org/2000/svg" xmlns:xlink="http://www.w3.org/1999/xlink">
    <title>F405B0A6-ED92-4682-952E-A07D6810F030</title>
    <g id="首頁" stroke="none" stroke-width="1" fill="none" fill-rule="evenodd">
        <g id="UI" transform="translate(-81.000000, -119.000000)">
            <g id="icon/footer/story/active-dark" transform="translate(81.000000, 119.000000)">
                <circle id="Oval" fill="#181818" cx="8.5" cy="15.5" r="5.5"></circle>
                <path d="M8.5,10 C11.5375661,10 14,12.4624339 14,15.5 C14,18.5375661 11.5375661,21 8.5,21 C5.46243388,21 3,18.5375661 3,15.5 C3,12.4624339 5.46243388,10 8.5,10 Z M8.5,11.5 C6.290861,11.5 4.5,13.290861 4.5,15.5 C4.5,17.709139 6.290861,19.5 8.5,19.5 C10.709139,19.5 12.5,17.709139 12.5,15.5 C12.5,13.290861 10.709139,11.5 8.5,11.5 Z" id="Oval" fill="#FFDC00" fill-rule="nonzero"></path>
                <rect id="Rectangle" fill="#FFDC00" fill-rule="nonzero" x="12.5" y="1" width="1.5" height="14"></rect>
                <polygon id="Rectangle" fill="#181818" points="12.5 1 20.5 1 20.5 7 12.5 7"></polygon>
                <path d="M20.5,1 L20.5,7 L12.5,7 L12.5,1 L20.5,1 Z M19,2.5 L14,2.5 L14,5.5 L19,5.5 L19,2.5 Z" id="Rectangle" fill="#FFDC00" fill-rule="nonzero"></path>
            </g>
        </g>
    </g>
</svg>