<?xml version="1.0" encoding="UTF-8"?>
<svg width="32px" height="32px" viewBox="0 0 32 32" version="1.1" xmlns="http://www.w3.org/2000/svg" xmlns:xlink="http://www.w3.org/1999/xlink">
    <title>375E28AE-7729-4E90-B8BC-C687D11F081D</title>
    <g id="首頁" stroke="none" stroke-width="1" fill="none" fill-rule="evenodd">
        <g id="UI" transform="translate(-862.000000, -158.000000)" stroke-width="1.5">
            <g id="icon/recommend/share" transform="translate(862.000000, 152.000000)">
                <path d="M18.9059666,9.06740891 C19.2683804,8.92934654 19.6834631,8.92954034 20.0653135,9.10071466 C20.4046084,9.25281234 20.6761414,9.52434541 20.8282391,9.86364024 L20.8282391,9.86364024 L29.1747592,28.4828004 C29.3459335,28.8646508 29.3461273,29.2797336 29.2080649,29.6421473 C29.0700025,30.004561 28.793684,30.3143058 28.4118336,30.4854801 C27.9982327,30.6708874 27.523354,30.6614221 27.1174697,30.4596808 L27.1174697,30.4596808 L19.4454365,26.6463625 L11.7734033,30.4596808 C11.3986771,30.6459352 10.9839318,30.6626691 10.6163044,30.539158 C10.248677,30.4156468 9.92816746,30.1518904 9.74191306,29.7771643 C9.54017176,29.37128 9.53070647,28.8964013 9.71611379,28.4828004 L9.71611379,28.4828004 L18.0626339,9.86364024 C18.2338082,9.48178984 18.5435529,9.20547129 18.9059666,9.06740891 Z" id="Triangle" stroke="#000000" fill="#FFFFFF" transform="translate(19.445436, 19.445436) rotate(-315.000000) translate(-19.445436, -19.445436) "></path>
                <line x1="14.8492424" y1="24.0416306" x2="18.3847763" y2="20.5060967" id="Path-4" stroke="#FFDC00"></line>
            </g>
        </g>
    </g>
</svg>