<?xml version="1.0" encoding="UTF-8"?>
<svg width="22px" height="22px" viewBox="0 0 22 22" version="1.1" xmlns="http://www.w3.org/2000/svg" xmlns:xlink="http://www.w3.org/1999/xlink">
    <title>3E88960A-153E-4734-9B97-F257051D7043</title>
    <g id="首頁" stroke="none" stroke-width="1" fill="none" fill-rule="evenodd">
        <g id="UI" transform="translate(-133.000000, -381.000000)">
            <g id="icon/invite" transform="translate(133.000000, 381.000000)">
                <rect id="Rectangle" fill="#D8D8D8" opacity="0" x="0" y="0" width="22" height="22"></rect>
                <path d="M4,10.1490289 C4.21243031,10.1490289 4.42135616,10.203167 4.60705366,10.3063323 L4.60705366,10.3063323 L9.66448194,13.1160147 C10.4950439,13.577438 11.5049561,13.577438 12.3355181,13.1160147 L12.3355181,13.1160147 L17.3929463,10.3063323 C17.6946862,10.1386991 18.0358071,10.1092399 18.3434014,10.197124 C18.6509957,10.2850081 18.9250634,10.4902354 19.0926966,10.7919753 C19.1958619,10.9776728 19.25,11.1865986 19.25,11.3990289 L19.25,11.3990289 L19.25,17 C19.25,17.6213203 18.9981602,18.1838203 18.5909903,18.5909903 C18.1838203,18.9981602 17.6213203,19.25 17,19.25 L17,19.25 L5,19.25 C4.37867966,19.25 3.81617966,18.9981602 3.40900974,18.5909903 C3.00183983,18.1838203 2.75,17.6213203 2.75,17 L2.75,17 L2.75,11.3990289 C2.75,11.053851 2.88991102,10.741351 3.11611652,10.5151454 C3.34232203,10.2889399 3.65482203,10.1490289 4,10.1490289 Z" id="Rectangle" stroke="#000000" stroke-width="1.5"></path>
                <path d="M7.25,0.75 L12.75,0.75 C13.8545695,0.75 14.75,1.6454305 14.75,2.75 L14.75,10.75 C14.75,11.8545695 13.8545695,12.75 12.75,12.75 L7.25,12.75 L7.25,12.75" id="Rectangle" stroke="#000000" stroke-width="1.5" stroke-linejoin="round" transform="translate(11.000000, 6.750000) rotate(-90.000000) translate(-11.000000, -6.750000) "></path>
                <line x1="11" y1="10" x2="11" y2="6" id="Path-9" stroke="#000000" stroke-width="1.5" stroke-linecap="round" stroke-linejoin="round"></line>
                <line x1="9" y1="8" x2="13" y2="8" id="Path-9" stroke="#000000" stroke-width="1.5" stroke-linecap="round" stroke-linejoin="round"></line>
            </g>
        </g>
    </g>
</svg>