<?xml version="1.0" encoding="UTF-8"?>
<svg width="14px" height="14px" viewBox="0 0 14 14" version="1.1" xmlns="http://www.w3.org/2000/svg" xmlns:xlink="http://www.w3.org/1999/xlink">
    <title>112B9F9C-EBDB-4328-8268-76F5246D3FD3</title>
    <g id="首頁" stroke="none" stroke-width="1" fill="none" fill-rule="evenodd">
        <g id="UI" transform="translate(-147.000000, -427.000000)" fill="#000000">
            <g id="icon/more" transform="translate(147.000000, 427.000000)">
                <path d="M7.18284834,1.89966991 L11.7790424,6.49586399 L11.7822693,6.4984341 C11.8204728,6.53663756 11.8536932,6.5779371 11.8819305,6.62152504 C11.8889042,6.63409678 11.89648,6.6466485 11.9036915,6.65943297 C11.913791,6.67506024 11.9224168,6.69169521 11.9303782,6.70856577 C11.9351076,6.72144037 11.94066,6.73416859 11.9458638,6.7470748 C11.9564734,6.76987059 11.9646263,6.79332001 11.9715833,6.81704562 C11.9718749,6.82310581 11.9736427,6.82947268 11.9753281,6.83587301 C12.0430276,7.08594907 11.9781466,7.36321699 11.7822693,7.55909427 L7.18607521,12.1552883 C6.89318199,12.4481816 6.41830826,12.4481816 6.12541504,12.1552883 C5.83252182,11.8623951 5.83252182,11.3875214 6.12541504,11.0946282 L9.443,7.777 L2.75,7.77738155 C2.33578644,7.77738155 2,7.44159511 2,7.02738155 C2,6.61316798 2.33578644,6.27738155 2.75,6.27738155 L9.439,6.277 L6.12218817,2.96033009 C5.82929495,2.66743687 5.82929495,2.19256313 6.12218817,1.89966991 C6.41508139,1.6067767 6.88995512,1.6067767 7.18284834,1.89966991 Z" id="Combined-Shape"></path>
            </g>
        </g>
    </g>
</svg>