<?xml version="1.0" encoding="UTF-8"?>
<svg width="14px" height="14px" viewBox="0 0 14 14" version="1.1" xmlns="http://www.w3.org/2000/svg" xmlns:xlink="http://www.w3.org/1999/xlink" style="background-color:#0xffffdc00">
    <title>AFC9F09F-27D7-49DB-B5E6-01B4B35C1336</title>
    <g id="首頁" stroke="none" stroke-width="1" fill="none" fill-rule="evenodd">
        <g id="i1.2-個人中心-已登陸-無VIP" transform="translate(-69.000000, -147.000000)" fill="#000000">
            <g id="Group" transform="translate(69.000000, 147.000000)">
                <path d="M7,0.636363636 C10.5145393,0.636363636 13.3636364,3.48546068 13.3636364,7 C13.3636364,10.5145393 10.5145393,13.3636364 7,13.3636364 C3.48546068,13.3636364 0.636363636,10.5145393 0.636363636,7 C0.636363636,3.48546068 3.48546068,0.636363636 7,0.636363636 Z M7,1.56872342 C4.00038877,1.56872342 1.56872342,4.00038877 1.56872342,7 C1.56872342,9.99961123 4.00038877,12.4312766 7,12.4312766 C9.99961123,12.4312766 12.4312766,9.99961123 12.4312766,7 C12.4312766,4.00038877 9.99961123,1.56872342 7,1.56872342 Z M7,4.00633876 C7.31108392,4.00633876 7.56747446,4.24050901 7.60251451,4.54220516 L7.60659552,4.61295018 L7.60609003,6.39267432 L9.38706571,6.39340448 C9.67422011,6.39340448 9.91477184,6.59293416 9.97764062,6.86091321 L9.98958023,6.92925815 L9.99366124,7 C9.99366124,7.31108392 9.75949099,7.56747446 9.45779485,7.60251451 L9.38704983,7.60659552 L7.60609003,7.60609003 L7.60659552,9.38706571 C7.60659552,9.67422011 7.40706584,9.91477184 7.13908679,9.97764062 L7.07074185,9.98958023 L7,9.99366124 C6.68891608,9.99366124 6.43252554,9.75949099 6.39748549,9.45783724 L6.39340448,9.38710278 L6.39267432,7.60609003 L4.61293429,7.60659552 C4.32577989,7.60659552 4.08522816,7.40706584 4.02235938,7.13908679 L4.01041977,7.07074185 L4.00633876,7 C4.00633876,6.68891608 4.24050901,6.43252554 4.54216275,6.39748549 L4.61289721,6.39340448 L6.39267432,6.39267432 L6.39340448,4.61293429 C6.39340448,4.32577989 6.59293416,4.08522816 6.86091321,4.02235938 L6.92925815,4.01041977 L7,4.00633876 Z" id="Combined-Shape"></path>
            </g>
        </g>
    </g>
</svg>