<?xml version="1.0" encoding="UTF-8"?>
<svg width="14px" height="14px" viewBox="0 0 14 14" version="1.1" xmlns="http://www.w3.org/2000/svg" xmlns:xlink="http://www.w3.org/1999/xlink">
    <title>277602C1-B897-49B7-BA47-EDF2F238DB63</title>
    <g id="首頁" stroke="none" stroke-width="1" fill="none" fill-rule="evenodd">
        <g id="UI" transform="translate(-329.000000, -427.000000)">
            <g id="icon/view-black" transform="translate(329.000000, 427.000000)">
                <path d="M6,3 C7.1045695,3 8,3.8954305 8,5 L8,9 C8,10.1045695 7.1045695,11 6,11 L3,11 C1.8954305,11 1,10.1045695 1,9 L1,5 C1,3.8954305 1.8954305,3 3,3 L6,3 Z M6,4.5 L3,4.5 C2.75454011,4.5 2.55039163,4.67687516 2.50805567,4.91012437 L2.5,5 L2.5,9 C2.5,9.24545989 2.67687516,9.44960837 2.91012437,9.49194433 L3,9.5 L6,9.5 C6.24545989,9.5 6.44960837,9.32312484 6.49194433,9.08987563 L6.5,9 L6.5,5 C6.5,4.75454011 6.32312484,4.55039163 6.08987563,4.50805567 L6,4.5 Z" id="Rectangle" fill="#000000" fill-rule="nonzero"></path>
                <path d="M11.3354102,4.67082039 C11.491499,4.59277599 11.6644446,4.58538753 11.8178792,4.63653238 C12.2271575,5.0411961 12.25,5.13795835 12.25,5.23606798 L12.25,5.23606798 L12.25,8.76393202 C12.25,8.93844462 12.1792648,9.09643612 12.0649014,9.21079947 C11.9505381,9.32516283 11.7925466,9.39589803 11.618034,9.39589803 C11.5199244,9.39589803 11.4231621,9.37305556 11.3354102,9.32917961 L11.3354102,9.32917961 L10.440983,8.88196601 C10.229243,8.776096 10.0564972,8.61495377 9.93668649,8.42109591 C9.81687574,8.22723805 9.75,8.00066456 9.75,7.76393202 L9.75,7.76393202 L9.75,6.23606798 C9.75,5.99933544 9.81687574,5.77276195 9.93668649,5.57890409 C10.0564972,5.38504623 10.229243,5.223904 10.440983,5.11803399 L10.440983,5.11803399 Z" id="Rectangle" stroke="#000000" stroke-width="1.5"></path>
            </g>
        </g>
    </g>
</svg>