<?xml version="1.0" encoding="UTF-8"?>
<svg width="22px" height="22px" viewBox="0 0 22 22" version="1.1" xmlns="http://www.w3.org/2000/svg" xmlns:xlink="http://www.w3.org/1999/xlink">
    <title>B8588C28-40B5-4A77-AA1E-CE8940E9A4CA</title>
    <g id="首頁" stroke="none" stroke-width="1" fill="none" fill-rule="evenodd">
        <g id="UI" transform="translate(-195.000000, -153.000000)">
            <g id="icon/footer/community/default-white" transform="translate(195.000000, 153.000000)">
                <path d="M4,2 L18,2 C20.209139,2 22,3.790861 22,6 L22,13 C22,15.209139 20.209139,17 18,17 L17.5097121,17 L17.5097121,17 L15.3007729,19.7571593 C14.6101417,20.6191931 13.351458,20.7581424 12.4894241,20.0675112 C12.4648073,20.047789 12.4406605,20.0274873 12.4170039,20.006623 L9.00801097,17 L9.00801097,17 L4,17 C1.790861,17 2.705415e-16,15.209139 0,13 L0,6 C-2.705415e-16,3.790861 1.790861,2 4,2 Z" id="Rectangle-Copy-8"></path>
                <g id="Group" opacity="0.699999988" transform="translate(0.000000, 2.000000)" fill="#FFFFFF">
                    <path d="M18,0 C20.209139,0 22,1.790861 22,4 L22,11 C22,13.209139 20.209139,15 18,15 L17.5097121,15 L15.3007729,17.7571593 C14.6101417,18.6191931 13.351458,18.7581424 12.4894241,18.0675112 L12.4170039,18.006623 L9.00801097,15 L4,15 C1.790861,15 0,13.209139 0,11 L0,4 C0,1.790861 1.790861,0 4,0 L18,0 Z M18,1.5 L4,1.5 C2.6745166,1.5 1.58996133,2.53153594 1.50531768,3.83562431 L1.5,4 L1.5,11 C1.5,12.3254834 2.53153594,13.4100387 3.83562431,13.4946823 L4,13.5 L9.57498225,13.5 L13.427298,16.8968735 C13.618861,17.0503471 13.8887747,17.0399529 14.0676536,16.8843899 L14.1301352,16.8192855 L16.7894301,13.5 L18,13.5 C19.3254834,13.5 20.4100387,12.4684641 20.4946823,11.1643757 L20.5,11 L20.5,4 C20.5,2.6745166 19.4684641,1.58996133 18.1643757,1.50531768 L18,1.5 Z" id="Rectangle-Copy-8" fill-rule="nonzero"></path>
                    <circle id="Oval" cx="5" cy="7.5" r="1.5"></circle>
                    <circle id="Oval" cx="11" cy="7.5" r="1.5"></circle>
                    <circle id="Oval" cx="17" cy="7.5" r="1.5"></circle>
                </g>
            </g>
        </g>
    </g>
</svg>