<?xml version="1.0" encoding="UTF-8"?>
<svg width="10px" height="10px" viewBox="0 0 10 10" version="1.1" xmlns="http://www.w3.org/2000/svg" xmlns:xlink="http://www.w3.org/1999/xlink">
    <title>7F6B043C-4928-4991-B51E-09B1D29A1583</title>
    <g id="首頁" stroke="none" stroke-width="1" fill="none" fill-rule="evenodd">
        <g id="UI" transform="translate(-636.000000, -732.000000)" fill="#000000">
            <g id="mark/5" transform="translate(627.000000, 721.000000)">
                <g id="icon/plus" transform="translate(9.000000, 11.000000)">
                    <path d="M5,0.714285714 C5.29586683,0.714285714 5.53571429,0.95413317 5.53571429,1.25 L5.53571429,8.75 C5.53571429,9.04586683 5.29586683,9.28571429 5,9.28571429 C4.70413317,9.28571429 4.46428571,9.04586683 4.46428571,8.75 L4.46428571,1.25 C4.46428571,0.95413317 4.70413317,0.714285714 5,0.714285714 Z" id="Rectangle"></path>
                    <path d="M9.28571429,5 C9.28571429,5.29586683 9.04586683,5.53571429 8.75,5.53571429 L1.25,5.53571429 C0.95413317,5.53571429 0.714285714,5.29586683 0.714285714,5 C0.714285714,4.70413317 0.95413317,4.46428571 1.25,4.46428571 L8.75,4.46428571 C9.04586683,4.46428571 9.28571429,4.70413317 9.28571429,5 Z" id="Rectangle"></path>
                </g>
            </g>
        </g>
    </g>
</svg>