<?xml version="1.0" encoding="UTF-8"?>
<svg width="22px" height="22px" viewBox="0 0 22 22" version="1.1" xmlns="http://www.w3.org/2000/svg" xmlns:xlink="http://www.w3.org/1999/xlink">
    <title>09807CCA-3DBD-4251-8D0D-328D7141D12E</title>
    <g id="首頁" stroke="none" stroke-width="1" fill="none" fill-rule="evenodd">
        <g id="UI" transform="translate(-233.000000, -119.000000)">
            <g id="icon/footer/member/active-dark" transform="translate(233.000000, 119.000000)">
                <circle id="Oval" fill="#181818" cx="11" cy="6" r="4"></circle>
                <path d="M6.27921561,12 L15.7207844,12 C17.6275085,12 19.2691677,13.3458387 19.6431071,15.2155355 L19.8,16 C20.1622122,17.8110608 18.9876883,19.5728466 17.1766275,19.9350587 C16.9606847,19.9782473 16.7410038,20 16.5207844,20 L5.47921561,20 C3.63228877,20 2.13505873,18.50277 2.13505873,16.6558431 C2.13505873,16.4356238 2.15681143,16.2159429 2.2,16 L2.35689291,15.2155355 C2.73083227,13.3458387 4.37249153,12 6.27921561,12 Z" id="Rectangle" fill="#181818"></path>
                <path d="M11,2 C13.209139,2 15,3.790861 15,6 C15,8.209139 13.209139,10 11,10 C8.790861,10 7,8.209139 7,6 C7,3.790861 8.790861,2 11,2 Z M11,3.5 C9.61928813,3.5 8.5,4.61928813 8.5,6 C8.5,7.38071187 9.61928813,8.5 11,8.5 C12.3807119,8.5 13.5,7.38071187 13.5,6 C13.5,4.61928813 12.3807119,3.5 11,3.5 Z" id="Oval" fill="#FFDC00" fill-rule="nonzero"></path>
                <path d="M15.7207844,12 C17.6275085,12 19.2691677,13.3458387 19.6431071,15.2155355 L19.8,16 C20.1622122,17.8110608 18.9876883,19.5728466 17.1766275,19.9350587 C16.9606847,19.9782473 16.7410038,20 16.5207844,20 L5.47921561,20 C3.63228877,20 2.13505873,18.50277 2.13505873,16.6558431 C2.13505873,16.4356238 2.15681143,16.2159429 2.2,16 L2.35689291,15.2155355 C2.73083227,13.3458387 4.37249153,12 6.27921561,12 L15.7207844,12 Z M15.7207844,13.5 L6.27921561,13.5 C5.1442608,13.5 4.15956949,14.2629471 3.86647366,15.3450552 L3.82776392,15.5097097 L3.67087101,16.2941742 C3.6470544,16.4132573 3.63505873,16.5344017 3.63505873,16.6558431 C3.63505873,17.6234179 4.38021432,18.4169522 5.32796607,18.4938867 L5.47921561,18.5 L16.5207844,18.5 C16.6422258,18.5 16.7633702,18.4880043 16.8824533,18.4641877 C17.8312384,18.2744307 18.4632258,17.3881207 18.3527969,16.4436855 L18.329129,16.2941742 L18.1722361,15.5097097 C17.9496531,14.3967949 17.0084081,13.5808519 15.889833,13.5056666 L15.7207844,13.5 Z" id="Rectangle" fill="#FFDC00" fill-rule="nonzero"></path>
            </g>
        </g>
    </g>
</svg>