<?xml version="1.0" encoding="UTF-8"?>
<svg width="22px" height="22px" viewBox="0 0 22 22" version="1.1" xmlns="http://www.w3.org/2000/svg" xmlns:xlink="http://www.w3.org/1999/xlink">
    <title>2F0E8ADB-5EDC-4706-BFEB-010955D79FD2</title>
    <g id="首頁" stroke="none" stroke-width="1" fill="none" fill-rule="evenodd">
        <g id="UI" transform="translate(-43.000000, -301.000000)">
            <g id="icon/announcement" transform="translate(43.000000, 301.000000)">
                <g id="Group" transform="translate(2.000000, 3.500000)">
                    <path d="M3.5,3 L6,3 L6,3 L6,10 L3.5,10 C1.56700338,10 2.36723813e-16,8.43299662 0,6.5 C-2.36723813e-16,4.56700338 1.56700338,3 3.5,3 Z" id="Rectangle" fill="#FFE962"></path>
                    <rect id="Rectangle" fill="#FFE962" x="5" y="8" width="5" height="7" rx="2.5"></rect>
                    <path d="M4,3 L14.3714127,0.777554414 C15.9914888,0.430395253 17.5862481,1.46229831 17.9334072,3.08237439 C17.9776785,3.28897379 18,3.49967214 18,3.71096166 L18,10.02281 C18,11.6796643 16.6568542,13.02281 15,13.02281 C14.7212504,13.02281 14.443861,12.9839603 14.1758366,12.9073819 L4,10 L4,10 L4,3 Z" id="Rectangle" fill="#FFE962"></path>
                    <path d="M17.9334072,3.08237439 C17.9776785,3.28897379 18,3.49967214 18,3.71096166 L18,10.02281 C18,11.6796643 16.6568542,13.02281 15,13.02281 C14.7212504,13.02281 14.443861,12.9839603 14.1758366,12.9073819 L10,11.7143409 L10,12.5 C10,13.8807119 8.88071187,15 7.5,15 C6.11928813,15 5,13.8807119 5,12.5 L5,10.5 C5,10.4219824 5.00357373,10.3511852 5.01056641,10.2870414 L4,10 L3.5,10 C1.56700338,10 0,8.43299662 0,6.5 C0,4.56700338 1.56700338,3 3.5,3 L4,3 L14.3714127,0.777554414 C15.9914888,0.430395253 17.5862481,1.46229831 17.9334072,3.08237439 Z M6.5,10.7133409 L6.5,12.5 C6.5,13.0522847 6.94771525,13.5 7.5,13.5 C8.01283584,13.5 8.43550716,13.1139598 8.49327227,12.6166211 L8.5,12.5 L8.5,11.2853409 L6.5,10.7133409 Z M14.8283985,2.22070362 L14.6857064,2.24425804 L5.5,4.212 L5.5,8.868 L14.5879183,11.465096 C14.6772598,11.4906221 14.7686824,11.5077641 14.8610001,11.5163558 L15,11.52281 C15.7796961,11.52281 16.4204487,10.927922 16.4931334,10.1672701 L16.5,10.02281 L16.5,3.71096166 C16.5,3.64053182 16.4950397,3.57023335 16.4851741,3.50058592 L16.4667036,3.39666802 C16.3033346,2.63427928 15.5873953,2.13239623 14.8283985,2.22070362 Z M4,4.49934093 L3.5,4.5 C2.4456382,4.5 1.58183488,5.31587779 1.50548574,6.35073766 L1.5,6.5 C1.5,7.5543618 2.31587779,8.41816512 3.35073766,8.49451426 L3.5,8.5 L4,8.49934093 L4,4.49934093 Z" id="Combined-Shape" fill="#000000" fill-rule="nonzero"></path>
                </g>
            </g>
        </g>
    </g>
</svg>