<?xml version="1.0" encoding="UTF-8"?>
<svg width="32px" height="32px" viewBox="0 0 32 32" version="1.1" xmlns="http://www.w3.org/2000/svg" xmlns:xlink="http://www.w3.org/1999/xlink">
    <title>3880EA7A-4E59-4C2D-98DC-68609BC18420</title>
    <g id="首頁" stroke="none" stroke-width="1" fill="none" fill-rule="evenodd">
        <g id="UI" transform="translate(-814.000000, -158.000000)">
            <g id="icon/recommend/creator" transform="translate(814.000000, 158.000000)">
                <path d="M16,2.75 C18.554317,2.75 20.866817,3.78534152 22.5407377,5.45926227 C24.2146585,7.13318303 25.25,9.44568303 25.25,12 C25.25,13.9031548 24.6754383,15.6721649 23.6898965,17.142696 C22.6740359,18.6584662 21.2220822,19.8574662 19.5133958,20.5596254 C18.8702099,21.6755349 18.4501764,22.2392403 17.9014994,22.6359877 C17.3670347,23.0224581 16.7100622,23.25 16,23.25 C15.2899373,23.25 14.6329689,23.0224517 14.0983559,22.6359354 C13.5493116,22.2389855 13.1288536,21.6749181 12.9124168,21.0180232 C10.7771216,19.8571305 9.3255051,18.6582202 8.30983119,17.1424748 C7.32451847,15.6720391 6.75,13.903087 6.75,12 C6.75,9.44568303 7.78534152,7.13318303 9.45926227,5.45926227 C11.133183,3.78534152 13.445683,2.75 16,2.75 L16,2.75 Z" id="Combined-Shape" stroke="#000000" stroke-width="1.5" fill="#FFFFFF"></path>
                <rect id="Rectangle" stroke="#000000" stroke-width="1.5" fill="#FFFFFF" x="13.75" y="25.75" width="4.5" height="3.5" rx="1.75"></rect>
                <rect id="Rectangle" fill="#FFDC00" x="12" y="10" width="8" height="1.5" rx="0.75"></rect>
                <rect id="Rectangle" fill="#FFDC00" x="14" y="14" width="4" height="1.5" rx="0.75"></rect>
            </g>
        </g>
    </g>
</svg>