<?xml version="1.0" encoding="UTF-8"?>
<svg width="35px" height="32px" viewBox="0 0 35 32" version="1.1" xmlns="http://www.w3.org/2000/svg" xmlns:xlink="http://www.w3.org/1999/xlink">
    <title>4FD60485-2C72-4248-B71A-30F4E1CE736B</title>
    <g id="首頁" stroke="none" stroke-width="1" fill="none" fill-rule="evenodd">
        <g id="i1.3-個人中心-已登陸-有VIP" transform="translate(-216.000000, -489.000000)" stroke-width="1.5">
            <g id="Group-5" transform="translate(29.000000, 415.000000)">
                <g id="icon/recommend/sharehistory" transform="translate(187.000000, 74.000000)">
                    <path d="M8.92578997,2.75 L26.001475,2.75 C27.6583293,2.75 29.001475,4.09314575 29.001475,5.75 L29.001475,26.25 C29.001475,27.9068542 27.6583293,29.25 26.001475,29.25 L8.05530299,29.25 C6.39844874,29.25 5.05530299,27.9068542 5.05530299,26.25 L5.05530299,23.3346964 L5.05530299,23.3346964" id="Rectangle" stroke="#000000" stroke-linecap="round" transform="translate(17.028389, 16.000000) rotate(-180.000000) translate(-17.028389, -16.000000) "></path>
                    <path d="M25.4287174,11.597061 C26.0564687,11.6900295 26.1648963,11.8007321 26.2273647,11.9376273 L26.2273647,11.9376273 L31.6195862,23.7543098 C31.6934229,23.9161178 31.6946838,24.0925356 31.6370336,24.2469607 C31.5793833,24.4013857 31.4628219,24.5338179 31.301014,24.6076545 C31.129991,24.6856962 30.9334081,24.6851251 30.7628415,24.6060911 L30.7628415,24.6060911 L25.4428787,22.1410245 L20.1843126,24.6991174 C20.0243744,24.7769213 19.8480413,24.7825317 19.6922417,24.7287066 C19.5364422,24.6748815 19.4011763,24.5616209 19.3233724,24.4016827 C19.2372305,24.2246044 19.2368277,24.017849 19.3222789,23.8404363 L19.3222789,23.8404363 L25.0611252,11.9255199 C25.1383053,11.7652797 25.2731288,11.6514928 25.4287174,11.597061 Z" id="Triangle" stroke="#000000" fill="#FFFFFF" transform="translate(25.386259, 18.024655) rotate(-345.000000) translate(-25.386259, -18.024655) "></path>
                    <line x1="10.6427431" y1="10" x2="21.2854863" y2="10" id="Path-3" stroke="#FFDC00"></line>
                    <line x1="10.6427431" y1="15" x2="17.028389" y2="15" id="Path-3" stroke="#FFDC00"></line>
                    <line x1="10.6427431" y1="20" x2="13.8355661" y2="20" id="Path-3" stroke="#FFDC00"></line>
                    <line x1="24.4407657" y1="21.8637033" x2="25.2671291" y2="18.9659258" id="Path-4" stroke="#FFDC00"></line>
                </g>
            </g>
        </g>
    </g>
</svg>