<?xml version="1.0" encoding="UTF-8"?>
<svg width="32px" height="32px" viewBox="0 0 32 32" version="1.1" xmlns="http://www.w3.org/2000/svg" xmlns:xlink="http://www.w3.org/1999/xlink">
    <title>897A93CE-AD7E-4C1D-BE95-BAA7F6606E42</title>
    <g id="首頁" stroke="none" stroke-width="1" fill="none" fill-rule="evenodd">
        <g id="UI" transform="translate(-718.000000, -158.000000)">
            <g id="icon/recommend/wallet" transform="translate(718.000000, 158.000000)">
                <rect id="Rectangle" stroke="#000000" stroke-width="1.5" fill="#FFFFFF" transform="translate(13.880388, 9.853802) rotate(-285.000000) translate(-13.880388, -9.853802) " x="9.63038833" y="-0.396197666" width="8.5" height="20.5" rx="4"></rect>
                <rect id="Rectangle" stroke="#000000" stroke-width="1.5" fill="#FFFFFF" x="2.75" y="7.75" width="23.5" height="20.5" rx="4"></rect>
                <path d="M27,12.75 C27.6213203,12.75 28.1838203,13.0018398 28.5909903,13.4090097 C28.9981602,13.8161797 29.25,14.3786797 29.25,15 L29.25,15 L29.25,21 C29.25,21.6213203 28.9981602,22.1838203 28.5909903,22.5909903 C28.1838203,22.9981602 27.6213203,23.25 27,23.25 L27,23.25 L22,23.25 C21.1025373,23.25 20.2900373,22.8862314 19.701903,22.298097 C19.1137686,21.7099627 18.75,20.8974627 18.75,20 L18.75,20 L18.75,16 C18.75,15.1025373 19.1137686,14.2900373 19.701903,13.701903 C20.2900373,13.1137686 21.1025373,12.75 22,12.75 L22,12.75 Z" id="Rectangle" stroke="#000000" stroke-width="1.5" fill="#FFFFFF"></path>
                <circle id="Oval" fill="#FFDC00" cx="24" cy="18" r="2"></circle>
            </g>
        </g>
    </g>
</svg>