<?xml version="1.0" encoding="UTF-8"?>
<svg width="22px" height="22px" viewBox="0 0 22 22" version="1.1" xmlns="http://www.w3.org/2000/svg" xmlns:xlink="http://www.w3.org/1999/xlink">
    <title>185FFC4E-A984-4AC4-AB96-516C7F56E224</title>
    <g id="首頁" stroke="none" stroke-width="1" fill="none" fill-rule="evenodd">
        <g id="UI" transform="translate(-81.000000, -153.000000)">
            <g id="icon/footer/story/default-white" transform="translate(81.000000, 153.000000)">
                <circle id="Oval" cx="8.5" cy="15.5" r="5.5"></circle>
                <g id="Group" opacity="0.699999988" transform="translate(3.000000, 1.000000)" fill="#FFFFFF">
                    <path d="M5.5,9 C8.53756612,9 11,11.4624339 11,14.5 C11,17.5375661 8.53756612,20 5.5,20 C2.46243388,20 0,17.5375661 0,14.5 C0,11.4624339 2.46243388,9 5.5,9 Z M5.5,10.5 C3.290861,10.5 1.5,12.290861 1.5,14.5 C1.5,16.709139 3.290861,18.5 5.5,18.5 C7.709139,18.5 9.5,16.709139 9.5,14.5 C9.5,12.290861 7.709139,10.5 5.5,10.5 Z" id="Oval" fill-rule="nonzero"></path>
                    <rect id="Rectangle" x="9.5" y="0" width="1.5" height="14"></rect>
                    <path d="M17.5,0 L17.5,6 L9.5,6 L9.5,0 L17.5,0 Z M16,1.5 L11,1.5 L11,4.5 L16,4.5 L16,1.5 Z" id="Rectangle" fill-rule="nonzero"></path>
                </g>
                <polygon id="Rectangle" points="12.5 1 20.5 1 20.5 7 12.5 7"></polygon>
            </g>
        </g>
    </g>
</svg>