<?xml version="1.0" encoding="UTF-8"?>
<svg width="48px" height="48px" viewBox="0 0 48 48" version="1.1" xmlns="http://www.w3.org/2000/svg" xmlns:xlink="http://www.w3.org/1999/xlink">
    <title>D437648B-56A5-42F3-9908-B06141949434</title>
    <g id="首頁" stroke="none" stroke-width="1" fill="none" fill-rule="evenodd">
        <g id="UI" transform="translate(-574.000000, -214.000000)">
            <g id="icon/publisher" transform="translate(574.000000, 214.000000)">
                <circle id="Oval" fill="#F2F2F2" cx="24" cy="24" r="24"></circle>
                <g id="Group" transform="translate(16.000000, 13.961454)" fill="#979797">
                    <path d="M2,-1.9673152e-13 C2.09930583,-1.9673152e-13 2.19847376,0.00739622209 2.29668091,0.0221272943 L10.2966809,1.22212729 C10.5862089,1.2655565 10.8534571,1.36969358 11.0862825,1.52043831 L5.22701205,3.08375528 C3.97344545,3.4180397 3.08389378,4.51691905 3.00561546,5.79823653 L3,5.9824601 L3,16.328 L1.70331909,16.133123 C0.72427918,15.986267 0,15.1452432 0,14.1552503 L0,2 C0,0.8954305 0.8954305,-1.9673152e-13 2,-1.9673152e-13 Z" id="Path"></path>
                    <path d="M6.4846747,4.28171191 L14.4846747,2.14837857 C15.5519483,1.86377227 16.6478636,2.49824951 16.9324699,3.56552315 C16.9772983,3.73362982 17,3.90686729 17,4.08084845 L17,16.1410685 C17,17.0471699 16.3908321,17.8400699 15.5153253,18.0735384 L7.5153253,20.2068717 C6.44805166,20.491478 5.35213643,19.8570008 5.06753012,18.7897272 C5.02270167,18.6216205 5,18.448383 5,18.2744019 L5,6.21418178 C5,5.30808039 5.60916787,4.51518039 6.4846747,4.28171191 Z" id="Rectangle"></path>
                </g>
            </g>
        </g>
    </g>
</svg>