<?xml version="1.0" encoding="UTF-8"?>
<svg width="40px" height="40px" viewBox="0 0 40 40" version="1.1" xmlns="http://www.w3.org/2000/svg" xmlns:xlink="http://www.w3.org/1999/xlink">
    <title>2A8CCF5E-CCB0-470C-8DB2-E66A0BF58218</title>
    <g id="首頁" stroke="none" stroke-width="1" fill="none" fill-rule="evenodd">
        <g id="UI" transform="translate(-798.000000, -107.000000)">
            <g id="icon/theme/chart" transform="translate(798.000000, 107.000000)">
                <g id="Group-12" transform="translate(5.000000, 4.000000)">
                    <rect id="Rectangle" fill="#FFDC00" x="2" y="22.5" width="29" height="5" rx="2.5"></rect>
                    <rect id="Rectangle" fill="#FFDC00" transform="translate(8.000000, 13.000000) rotate(-90.000000) translate(-8.000000, -13.000000) " x="3" y="10.5" width="10" height="5" rx="2.5"></rect>
                    <rect id="Rectangle" fill="#FFDC00" transform="translate(16.000000, 9.000000) rotate(-90.000000) translate(-16.000000, -9.000000) " x="7" y="6.5" width="18" height="5" rx="2.5"></rect>
                    <rect id="Rectangle" fill="#FFDC00" transform="translate(25.000000, 14.000000) rotate(-90.000000) translate(-25.000000, -14.000000) " x="21" y="11.5" width="8" height="5" rx="2.5"></rect>
                    <rect id="Rectangle" stroke="#000000" stroke-width="1.5" stroke-linejoin="round" x="0" y="24.5" width="29" height="5" rx="2.5"></rect>
                    <rect id="Rectangle" stroke="#000000" stroke-width="1.5" stroke-linejoin="round" transform="translate(5.500000, 15.500000) rotate(-90.000000) translate(-5.500000, -15.500000) " x="0.5" y="13" width="10" height="5" rx="2.5"></rect>
                    <rect id="Rectangle" stroke="#000000" stroke-width="1.5" stroke-linejoin="round" transform="translate(14.500000, 11.500000) rotate(-90.000000) translate(-14.500000, -11.500000) " x="5.5" y="9" width="18" height="5" rx="2.5"></rect>
                    <rect id="Rectangle" stroke="#000000" stroke-width="1.5" stroke-linejoin="round" transform="translate(23.500000, 16.500000) rotate(-90.000000) translate(-23.500000, -16.500000) " x="19.5" y="14" width="8" height="5" rx="2.5"></rect>
                </g>
            </g>
        </g>
    </g>
</svg>