<?xml version="1.0" encoding="UTF-8"?>
<svg width="12px" height="12px" viewBox="0 0 12 12" version="1.1" xmlns="http://www.w3.org/2000/svg" xmlns:xlink="http://www.w3.org/1999/xlink">
    <title>DBF02B77-B366-4154-874D-DABC62DE4428</title>
    <g id="首頁" stroke="none" stroke-width="1" fill="none" fill-rule="evenodd">
        <g id="UI" transform="translate(-941.000000, -1613.000000)" fill="#000000" fill-rule="nonzero">
            <g id="input/phone-type" transform="translate(885.000000, 1599.000000)">
                <g id="icon/back-black" transform="translate(62.000000, 20.000000) rotate(-90.000000) translate(-62.000000, -20.000000) translate(56.000000, 14.000000)">
                    <path d="M7.19620494,2.43800177 C7.35596488,2.27824183 7.61498691,2.27824183 7.77474685,2.43800177 C7.91998316,2.58323808 7.93318646,2.81050918 7.81435675,2.9706609 L7.77474685,3.01654368 L4.79127273,6 L7.77474685,8.98345632 C7.91998316,9.12869262 7.93318646,9.35596372 7.81435675,9.51611545 L7.77474685,9.56199823 C7.62951054,9.70723454 7.40223945,9.72043784 7.24208772,9.60160813 L7.19620494,9.56199823 L3.92347767,6.28927096 C3.77824136,6.14403465 3.76503806,5.91676355 3.88386777,5.75661183 L3.92347767,5.71072904 L7.19620494,2.43800177 Z" id="Path"></path>
                </g>
            </g>
        </g>
    </g>
</svg>