<?xml version="1.0" encoding="UTF-8"?>
<svg width="22px" height="22px" viewBox="0 0 22 22" version="1.1" xmlns="http://www.w3.org/2000/svg" xmlns:xlink="http://www.w3.org/1999/xlink">
    <title>43A0DE9B-4752-42CB-8ECB-B77C637BCB79</title>
    <g id="首頁" stroke="none" stroke-width="1" fill="none" fill-rule="evenodd">
        <g id="UI" transform="translate(-119.000000, -119.000000)">
            <g id="icon/footer/game/active-dark" transform="translate(119.000000, 119.000000)">
                <rect id="Rectangle-Copy-6" fill="#181818" x="0" y="3" width="22" height="16" rx="8"></rect>
                <path d="M14,3 C18.418278,3 22,6.581722 22,11 C22,15.418278 18.418278,19 14,19 L8,19 C3.581722,19 0,15.418278 0,11 C0,6.581722 3.581722,3 8,3 L14,3 Z M14,4.5 L8,4.5 C4.41014913,4.5 1.5,7.41014913 1.5,11 C1.5,14.5118106 4.28499621,17.3731506 7.76686587,17.495897 L8,17.5 L14,17.5 C17.5898509,17.5 20.5,14.5898509 20.5,11 C20.5,7.48818936 17.7150038,4.62684944 14.2331341,4.50410301 L14,4.5 Z" id="Rectangle-Copy-6" fill="#FFDC00" fill-rule="nonzero"></path>
                <circle id="Oval" fill="#FFDC00" fill-rule="nonzero" cx="14.5" cy="8.5" r="1.5"></circle>
                <circle id="Oval" fill="#FFDC00" fill-rule="nonzero" cx="16.5" cy="12.5" r="1.5"></circle>
                <rect id="Rectangle-Copy-6" fill="#FFDC00" fill-rule="nonzero" x="7" y="8" width="1.5" height="6" rx="0.75"></rect>
                <rect id="Rectangle-Copy-6" fill="#FFDC00" fill-rule="nonzero" transform="translate(7.750000, 11.000000) rotate(-270.000000) translate(-7.750000, -11.000000) " x="7" y="8" width="1.5" height="6" rx="0.75"></rect>
            </g>
        </g>
    </g>
</svg>