<svg width="22" height="22" viewBox="0 0 22 22" xmlns="http://www.w3.org/2000/svg">
    <path d="M3.853 5.502C6.657 1.938 11.664.939 15.601 3.226c.39.227.473.678.263 1.038-.21.36-.643.51-1.033.283-3.304-1.92-7.664-1.062-9.862 2-2.032 2.831-1.91 6.769.35 9.336 2.658 3.02 7.35 3.483 10.4.948 1.515-1.259 2.518-3.021 2.727-4.87.258-2.285-.473-4.511-2.035-6.16-.308-.325-.268-.78.024-1.073.297-.297.755-.326 1.068.004.717.756 1.29 1.579 1.682 2.446 1.855 4.106.457 9.029-3.311 11.421-3.62 2.298-8.519 1.718-11.42-1.396-2.867-3.077-3.279-7.846-.934-11.25l.164-.23.17-.221zm4.915.166c.356-.133.683-.008.892.326.3.465.509.854.621 1.162.068.17.089.332.064.477l1.082-.001.108-.204a15.8 15.8 0 0 0 .345-.715l.151-.349.138-.343c.16-.32.447-.456.783-.387l.113.03.028.011c.397.177.534.534.363.917-.104.266-.205.51-.305.733l-.144.307h.276c.41 0 .718.05.921.16l.081.05.068.058c.206.165.295.462.312.905l.004.173v1.654c.03.78-.305 1.253-.938 1.28l-.889-.002.001 2.306c0 .051.029.077.2.082l1.113.001c.284 0 .44-.043.493-.106.004-.004.008-.019.012-.045l.013-.11.008-.171a5.06 5.06 0 0 0-.006-.365c0-.426.255-.706.745-.748.391.043.633.31.676.738.029.875-.044 1.414-.251 1.652-.212.318-.624.469-1.226.493l-.186.004h-1.497c-.882.03-1.41-.38-1.47-1.156l-.005-.15V11.91h-1.097l-.02.252c-.075.78-.229 1.398-.465 1.851l-.093.162-.09.133c-.39.6-1.125 1.06-2.226 1.406-.397.08-.726-.061-.923-.477-.089-.397.107-.716.53-.884.782-.244 1.277-.55 1.508-.917.176-.242.295-.633.346-1.171l.016-.209.007-.146h-.632c-.599 0-.965-.334-1.049-.913l-.014-.128-.005-.145V8.716c-.034-.696.42-1.07 1.196-1.085l.54.002a2.827 2.827 0 0 0-.091-.177l-.128-.216a6.953 6.953 0 0 1-.339-.595c-.168-.379-.068-.732.335-.977zm-.134 3.3.002.01v1.389c0 .139.016.181.056.196l.028.006h4.567V9.057c0-.041.004-.063.01-.074l.01-.01H8.646l-.012-.004z" fill="#000" fill-rule="nonzero"/>
</svg>
