<?xml version="1.0" encoding="UTF-8"?>
<svg width="40px" height="40px" viewBox="0 0 40 40" version="1.1" xmlns="http://www.w3.org/2000/svg" xmlns:xlink="http://www.w3.org/1999/xlink">
    <title>E3046E85-613E-4F67-81FC-16E69F465A3B</title>
    <g id="首頁" stroke="none" stroke-width="1" fill="none" fill-rule="evenodd">
        <g id="n1.8-熱門-區域樣式1-看更多" transform="translate(-286.000000, -630.000000)">
            <g id="Group-10" transform="translate(-83.000000, 589.000000)">
                <g id="IMG_2333" transform="translate(336.000000, 0.000000)">
                    <g id="icon/delete" transform="translate(53.000000, 61.000000) rotate(135.000000) translate(-53.000000, -61.000000) translate(39.000000, 47.000000)">
                        <circle id="Oval" stroke="#F2F2F2" stroke-width="2.18181818" fill="#CACACA" cx="14" cy="14" r="12.9090909"></circle>
                        <path d="M18.4997704,9.50022957 C18.8725436,9.87300276 18.8725436,10.4773875 18.4997704,10.8501607 L10.8501607,18.4997704 C10.4773875,18.8725436 9.87300276,18.8725436 9.50022957,18.4997704 C9.12745639,18.1269972 9.12745639,17.5226125 9.50022957,17.1498393 L17.1498393,9.50022957 C17.5226125,9.12745639 18.1269972,9.12745639 18.4997704,9.50022957 Z" id="Rectangle" fill="#F2F2F2"></path>
                        <path d="M18.4997704,18.4997704 C18.1269972,18.8725436 17.5226125,18.8725436 17.1498393,18.4997704 L9.50022957,10.8501607 C9.12745639,10.4773875 9.12745639,9.87300276 9.50022957,9.50022957 C9.87300276,9.12745639 10.4773875,9.12745639 10.8501607,9.50022957 L18.4997704,17.1498393 C18.8725436,17.5226125 18.8725436,18.1269972 18.4997704,18.4997704 Z" id="Rectangle" fill="#F2F2F2"></path>
                    </g>
                </g>
            </g>
        </g>
    </g>
</svg>