<?xml version="1.0" encoding="UTF-8"?>
<svg width="22px" height="22px" viewBox="0 0 22 22" version="1.1" xmlns="http://www.w3.org/2000/svg" xmlns:xlink="http://www.w3.org/1999/xlink">
    <title>DB950D5C-DA60-4D74-9BFE-85BF6F11448B</title>
    <g id="首頁" stroke="none" stroke-width="1" fill="none" fill-rule="evenodd">
        <g id="UI" transform="translate(-157.000000, -153.000000)">
            <g id="icon/footer/live/default-white" transform="translate(157.000000, 153.000000)">
                <rect id="Rectangle-Copy-6" x="0" y="3" width="15" height="16" rx="4"></rect>
                <path d="M18.1587313,5.99176893 L19,5.55555556 C20.0072332,5.03328651 21.2471397,5.4264276 21.7694087,6.43366076 C21.9209166,6.72585453 22,7.05017449 22,7.37931252 L22,14.6206875 C22,15.7552727 21.080237,16.6750357 19.9456518,16.6750357 C19.6165137,16.6750357 19.2921938,16.5959523 19,16.4444444 L18.1587313,16.0082311 C16.8324957,15.3205533 16,13.9511345 16,12.4572129 L16,9.54278706 C16,8.0488655 16.8324957,6.67944667 18.1587313,5.99176893 Z" id="Rectangle-Copy-6"></path>
                <g id="Group" opacity="0.699999988" transform="translate(0.000000, 3.000000)" fill="#FFFFFF" fill-rule="nonzero">
                    <path d="M21.7694087,3.43366076 C21.9209166,3.72585453 22,4.05017449 22,4.37931252 L22,11.6206875 C22,12.7552727 21.080237,13.6750357 19.9456518,13.6750357 C19.6165137,13.6750357 19.2921938,13.5959523 19,13.4444444 L18.1587313,13.0082311 C16.8324957,12.3205533 16,10.9511345 16,9.45721294 L16,6.54278706 C16,5.0488655 16.8324957,3.67944667 18.1587313,2.99176893 L19,2.55555556 C20.0072332,2.03328651 21.2471397,2.4264276 21.7694087,3.43366076 Z M20.4377769,4.12413651 C20.312506,3.88254253 20.0342289,3.77187792 19.7830471,3.84924794 L19.6904757,3.88718735 L18.8492071,4.32340073 C18.0755696,4.72454608 17.5707461,5.49686158 17.5068747,6.35718758 L17.5,6.54278706 L17.5,9.45721294 C17.5,10.3286672 17.9532477,11.1323366 18.6876049,11.5850616 L18.8492071,11.6765993 L19.6904757,12.1128126 C19.7693217,12.1536957 19.8568367,12.1750357 19.9456518,12.1750357 C20.221194,12.1750357 20.4497823,11.9740017 20.4927445,11.7106056 L20.5,11.6206875 L20.5,4.37931252 C20.5,4.32010247 20.4905156,4.26147025 20.4720791,4.20559923 L20.4377769,4.12413651 Z" id="Rectangle-Copy-6"></path>
                    <path d="M11,0 C13.209139,0 15,1.790861 15,4 L15,12 C15,14.209139 13.209139,16 11,16 L4,16 C1.790861,16 0,14.209139 0,12 L0,4 C0,1.790861 1.790861,0 4,0 L11,0 Z M11,1.5 L4,1.5 C2.6745166,1.5 1.58996133,2.53153594 1.50531768,3.83562431 L1.5,4 L1.5,12 C1.5,13.3254834 2.53153594,14.4100387 3.83562431,14.4946823 L4,14.5 L11,14.5 C12.3254834,14.5 13.4100387,13.4684641 13.4946823,12.1643757 L13.5,12 L13.5,4 C13.5,2.6745166 12.4684641,1.58996133 11.1643757,1.50531768 L11,1.5 Z" id="Rectangle-Copy-6"></path>
                    <path d="M7,3 C8.65685425,3 10,4.34314575 10,6 C10,7.65685425 8.65685425,9 7,9 C5.34314575,9 4,7.65685425 4,6 C4,4.34314575 5.34314575,3 7,3 Z M7,4.5 C6.17157288,4.5 5.5,5.17157288 5.5,6 C5.5,6.82842712 6.17157288,7.5 7,7.5 C7.82842712,7.5 8.5,6.82842712 8.5,6 C8.5,5.17157288 7.82842712,4.5 7,4.5 Z" id="Oval"></path>
                </g>
                <circle id="Oval" cx="7" cy="9" r="3"></circle>
            </g>
        </g>
    </g>
</svg>