<?xml version="1.0" encoding="UTF-8"?>
<svg width="22px" height="22px" viewBox="0 0 22 22" version="1.1" xmlns="http://www.w3.org/2000/svg" xmlns:xlink="http://www.w3.org/1999/xlink">
    <title>5923F53D-47A0-4BFB-87D1-CC79904552BB</title>
    <g id="首頁" stroke="none" stroke-width="1" fill="none" fill-rule="evenodd">
        <g id="UI" transform="translate(-223.000000, -341.000000)">
            <g id="icon/delete" transform="translate(223.000000, 341.000000)">
                <circle id="Oval" stroke="#F2F2F2" stroke-width="1.5" fill="#CACACA" cx="11" cy="11" r="10.25"></circle>
                <path d="M14.5355339,7.46446609 C14.8284271,7.75735931 14.8284271,8.23223305 14.5355339,8.52512627 L8.52512627,14.5355339 C8.23223305,14.8284271 7.75735931,14.8284271 7.46446609,14.5355339 C7.17157288,14.2426407 7.17157288,13.767767 7.46446609,13.4748737 L13.4748737,7.46446609 C13.767767,7.17157288 14.2426407,7.17157288 14.5355339,7.46446609 Z" id="Rectangle" fill="#F2F2F2"></path>
                <path d="M14.5355339,14.5355339 C14.2426407,14.8284271 13.767767,14.8284271 13.4748737,14.5355339 L7.46446609,8.52512627 C7.17157288,8.23223305 7.17157288,7.75735931 7.46446609,7.46446609 C7.75735931,7.17157288 8.23223305,7.17157288 8.52512627,7.46446609 L14.5355339,13.4748737 C14.8284271,13.767767 14.8284271,14.2426407 14.5355339,14.5355339 Z" id="Rectangle" fill="#F2F2F2"></path>
            </g>
        </g>
    </g>
</svg>