<?xml version="1.0" encoding="UTF-8"?>
<svg width="14px" height="14px" viewBox="0 0 14 14" version="1.1" xmlns="http://www.w3.org/2000/svg" xmlns:xlink="http://www.w3.org/1999/xlink">
    <title>FDCC38EE-3A7B-431A-811A-5CB30D449869</title>
    <g id="首頁" stroke="none" stroke-width="1" fill="none" fill-rule="evenodd">
        <g id="UI" transform="translate(-199.000000, -427.000000)">
            <g id="icon/share-gray" transform="translate(199.000000, 427.000000)">
                <rect id="Rectangle" fill="#393939" opacity="0" x="0" y="0" width="14" height="14"></rect>
                <path d="M11,7.5 L6,7.5 C2.6862915,7.5 -4.05812251e-16,10.1862915 0,13.5 L0,13.5 L0,10.5 C-4.05812251e-16,7.1862915 2.6862915,4.5 6,4.5 L11,4.5 L11,7.5 Z" id="Combined-Shape" fill="#979797"></path>
                <path d="M11.7682213,3.92186554 L14.6331797,7.3598156 C14.9867437,7.7840925 14.9294197,8.4146572 14.5051428,8.76822128 C14.3254278,8.91798378 14.0988949,9 13.8649584,9 L8.13504161,9 C7.58275686,9 7.13504161,8.55228475 7.13504161,8 C7.13504161,7.76606349 7.21705783,7.5395306 7.36682033,7.3598156 L10.2317787,3.92186554 C10.5853428,3.49758864 11.2159075,3.44026457 11.6401844,3.79382866 C11.6866475,3.83254788 11.7295021,3.87540247 11.7682213,3.92186554 Z" id="Triangle" fill="#979797" transform="translate(11.000000, 6.000000) rotate(-270.000000) translate(-11.000000, -6.000000) "></path>
            </g>
        </g>
    </g>
</svg>