<?xml version="1.0" encoding="UTF-8"?>
<svg width="40px" height="40px" viewBox="0 0 40 40" version="1.1" xmlns="http://www.w3.org/2000/svg" xmlns:xlink="http://www.w3.org/1999/xlink">
    <title>27A48C85-8EEB-44C5-B390-496347D68264</title>
    <g id="首頁" stroke="none" stroke-width="1" fill="none" fill-rule="evenodd">
        <g id="n1.3-動態-UP主" transform="translate(-326.000000, -632.000000)" fill="#FFFFFF" fill-rule="nonzero">
            <g id="Group-4" transform="translate(323.000000, 424.000000)">
                <g id="icon/share-white" transform="translate(3.000000, 208.000000)">
                    <path d="M25.0606812,5.71428571 L24.6392801,5.73520285 C22.2893775,5.97036775 20.606044,8.15608715 20.606044,10.6485587 L20.6052156,12.0944093 L18.4035402,12.0955312 C9.32612247,12.0955308 3.14315722,19.0970084 2.86680209,30.56552 L2.85714286,31.8012396 C2.85714286,34.0241624 5.74881366,34.8852824 6.96491183,33.0245053 L7.47154124,32.2687842 C11.022332,27.1082105 14.6652771,24.6623252 18.4048433,24.6623252 L20.6052156,24.6608676 L20.606044,26.1092973 C20.606044,27.1833827 20.9194475,28.2361583 21.5117408,29.1005657 C23.0780416,31.3864638 26.1278706,31.7236604 28.0726675,29.7526294 L35.700147,22.0222601 C35.8972916,21.8224562 36.076815,21.6041221 36.2371012,21.3701964 C37.6193826,19.3528608 37.40327,16.4616929 35.700147,14.7355959 L28.0726675,7.00522658 C27.2638793,6.18552834 26.1936529,5.71428571 25.0606812,5.71428571 Z" id="Path"></path>
                </g>
            </g>
        </g>
    </g>
</svg>