<?xml version="1.0" encoding="UTF-8"?>
<svg width="22px" height="22px" viewBox="0 0 22 22" version="1.1" xmlns="http://www.w3.org/2000/svg" xmlns:xlink="http://www.w3.org/1999/xlink">
    <title>81AB01EF-EEAD-4C4A-A9A9-DF8F9BCC1282</title>
    <g id="首頁" stroke="none" stroke-width="1" fill="none" fill-rule="evenodd">
        <g id="UI" transform="translate(-193.000000, -341.000000)">
            <g id="icon/add" transform="translate(193.000000, 341.000000)">
                <rect id="Rectangle" stroke="#CACACA" stroke-width="1.5" fill="#F2F2F2" x="0.75" y="0.75" width="20.5" height="20.5" rx="10.25"></rect>
                <path d="M11,6 C11.4142136,6 11.75,6.33578644 11.75,6.75 L11.75,15.25 C11.75,15.6642136 11.4142136,16 11,16 C10.5857864,16 10.25,15.6642136 10.25,15.25 L10.25,6.75 C10.25,6.33578644 10.5857864,6 11,6 Z" id="Rectangle" fill="#CACACA"></path>
                <path d="M16,11 C16,11.4142136 15.6642136,11.75 15.25,11.75 L6.75,11.75 C6.33578644,11.75 6,11.4142136 6,11 C6,10.5857864 6.33578644,10.25 6.75,10.25 L15.25,10.25 C15.6642136,10.25 16,10.5857864 16,11 Z" id="Rectangle" fill="#CACACA"></path>
            </g>
        </g>
    </g>
</svg>