<?xml version="1.0" encoding="UTF-8"?>
<svg width="14px" height="14px" viewBox="0 0 14 14" version="1.1" xmlns="http://www.w3.org/2000/svg" xmlns:xlink="http://www.w3.org/1999/xlink">
    <title>EDF1751F-6B54-4452-98DC-E3E4A0ECA5CA</title>
    <g id="首頁" stroke="none" stroke-width="1" fill="none" fill-rule="evenodd">
        <g id="UI" transform="translate(-47.000000, -3251.000000)">
            <g id="component/videolist1" transform="translate(29.000000, 3151.000000)">
                <g id="icon/eye" transform="translate(18.000000, 100.000000)">
                    <path d="M7,12 C10.2439955,12 12.5773288,10.3333333 14,7 C12.5773288,3.66666667 10.2439955,2 7,2 C3.7560045,2 1.42267117,3.66666667 0,7 C1.42267117,10.3333333 3.7560045,12 7,12 Z" id="Oval" fill="#FFFFFF"></path>
                    <path d="M7,2 C10.2439955,2 12.5773288,3.66666667 14,7 C12.5773288,10.3333333 10.2439955,12 7,12 C3.7560045,12 1.42267117,10.3333333 0,7 C1.42267117,3.66666667 3.7560045,2 7,2 Z M7,3 C4.35421043,3 2.44964352,4.23847915 1.17459157,6.83574951 L1.096,7 L1.17459157,7.16425049 C2.40567621,9.6719598 4.22360952,10.912972 6.72893713,10.9955772 L7,11 C9.64578957,11 11.5503565,9.76152085 12.8254084,7.16425049 L12.903,6.999 L12.8254084,6.83574951 C11.5943238,4.3280402 9.77639048,3.08702804 7.27106287,3.00442281 L7,3 Z" id="Oval" fill="#979797" fill-rule="nonzero"></path>
                    <circle id="Oval" stroke="#979797" fill="#979797" cx="7" cy="7" r="2"></circle>
                </g>
            </g>
        </g>
    </g>
</svg>