<?xml version="1.0" encoding="UTF-8"?>
<svg width="40px" height="40px" viewBox="0 0 40 40" version="1.1" xmlns="http://www.w3.org/2000/svg" xmlns:xlink="http://www.w3.org/1999/xlink">
    <title>0C07B92B-CEFB-4060-A5EB-A74498DB9E0E</title>
    <g id="首頁" stroke="none" stroke-width="1" fill="none" fill-rule="evenodd">
        <g id="UI" transform="translate(-574.000000, -107.000000)">
            <g id="icon/theme/actor" transform="translate(574.000000, 107.000000)">
                <g id="Group-6" transform="translate(2.000000, 2.000000)">
                    <path d="M15.5642314,13.9095967 L13.6038297,14.7417585 C12.8236284,15.0729425 11.9226725,14.7089421 11.5914885,13.9287407 C11.4933126,13.6974586 11.4534236,13.4456092 11.4753243,13.1953088 L11.6609597,11.0737039 C11.6846054,10.8034604 11.5974444,10.5352064 11.4194695,10.3304735 L10.0222392,8.72317281 C9.46616899,8.08349874 9.53394331,7.11415648 10.1736174,6.55808628 C10.3632418,6.39324533 10.5904384,6.27748288 10.8352559,6.22096459 L12.9103866,5.74190243 C13.1747103,5.68088099 13.4029008,5.51509089 13.5426162,5.28256079 L14.639482,3.45703257 C15.076013,2.73050822 16.0188557,2.4954222 16.7453801,2.93195324 C16.9607503,3.06135811 17.1410545,3.24166236 17.2704594,3.45703257 L18.3673253,5.28256079 C18.5070406,5.51509089 18.7352311,5.68088099 18.9995548,5.74190243 L21.0746855,6.22096459 C21.9005467,6.41162192 22.4154812,7.23567303 22.2248239,8.06153426 C22.1683056,8.30635181 22.0525432,8.53354841 21.8877022,8.72317281 L20.4904719,10.3304735 C20.312497,10.5352064 20.225336,10.8034604 20.2489817,11.0737039 L20.4346172,13.1953088 C20.5084964,14.0396658 19.8839008,14.7840434 19.0395437,14.8579227 C18.7892433,14.8798234 18.5373939,14.8399344 18.3061117,14.7417585 L16.3457101,13.9095967 C16.0960002,13.8035985 15.8139412,13.8035985 15.5642314,13.9095967 Z" id="Star" fill="#FFDC00" transform="translate(15.954971, 9.267647) rotate(-10.000000) translate(-15.954971, -9.267647) "></path>
                    <path d="M10.6528993,29.1485388 L8.98639025,29.8559475 C8.30371408,30.1457335 7.51537771,29.8272331 7.22559168,29.144557 C7.13968777,28.9421851 7.10478488,28.7218169 7.12394799,28.502804 L7.281754,26.6992584 C7.30539967,26.429015 7.21823866,26.160761 7.04026381,25.956028 L5.85249857,24.589685 C5.36593713,24.0299702 5.42523966,23.1817957 5.98495447,22.6952343 C6.15087582,22.5509985 6.34967285,22.4497063 6.56388821,22.4002528 L8.32792673,21.993009 C8.59225041,21.9319876 8.82044091,21.7661975 8.96015626,21.5336674 L9.89258601,19.9818123 C10.2745507,19.3461035 11.099538,19.1404032 11.7352468,19.5223679 C11.9236958,19.6355972 12.081462,19.7933634 12.1946913,19.9818123 L13.127121,21.5336674 C13.2668364,21.7661975 13.4950269,21.9319876 13.7593505,21.993009 L15.5233891,22.4002528 C16.2460176,22.567078 16.6965853,23.2881227 16.5297602,24.0107513 C16.4803067,24.2249666 16.3790145,24.4237637 16.2347787,24.589685 L15.0470135,25.956028 C14.8690386,26.160761 14.7818776,26.429015 14.8055233,26.6992584 L14.9633293,28.502804 C15.0279736,29.2416164 14.4814524,29.8929468 13.74264,29.9575912 C13.5236271,29.9767543 13.3032589,29.9418514 13.100887,29.8559475 L11.434378,29.1485388 C11.1846681,29.0425406 10.9026092,29.0425406 10.6528993,29.1485388 Z" id="Star-Copy" fill="#FFDC00" transform="translate(11.043639, 25.066100) rotate(-21.000000) translate(-11.043639, -25.066100) "></path>
                    <path d="M28.9698111,24.770858 L27.3033021,25.4782666 C26.6206259,25.7680527 25.8322896,25.4495523 25.5425035,24.7668761 C25.4565996,24.5645042 25.4216967,24.344136 25.4408599,24.1251231 L25.5986659,22.3215776 C25.6223115,22.0513341 25.5351505,21.7830801 25.3571757,21.5783472 L24.1694104,20.2120042 C23.682849,19.6522894 23.7421515,18.8041149 24.3018663,18.3175535 C24.4677877,18.1733176 24.6665847,18.0720255 24.8808001,18.022572 L26.6448386,17.6153282 C26.9091623,17.5543067 27.1373528,17.3885166 27.2770681,17.1559865 L28.2094979,15.6041315 C28.5914625,14.9684227 29.4164499,14.7627224 30.0521587,15.1446871 C30.2406076,15.2579163 30.3983739,15.4156825 30.5116031,15.6041315 L31.4440329,17.1559865 C31.5837482,17.3885166 31.8119387,17.5543067 32.0762624,17.6153282 L33.8403009,18.022572 C34.5629295,18.1893971 35.0134972,18.9104419 34.846672,19.6330704 C34.7972185,19.8472858 34.6959264,20.0460828 34.5516906,20.2120042 L33.3639253,21.5783472 C33.1859505,21.7830801 33.0987895,22.0513341 33.1224351,22.3215776 L33.2802411,24.1251231 C33.3448855,24.8639356 32.7983643,25.515266 32.0595519,25.5799103 C31.840539,25.5990734 31.6201708,25.5641705 31.4177989,25.4782666 L29.7512898,24.770858 C29.50158,24.6648598 29.219521,24.6648598 28.9698111,24.770858 Z" id="Star" fill="#FFDC00" transform="translate(29.360550, 20.688419) rotate(23.000000) translate(-29.360550, -20.688419) "></path>
                    <path d="M13.5642314,14.9095967 L11.6038297,15.7417585 C10.8236284,16.0729425 9.92267251,15.7089421 9.59148847,14.9287407 C9.49331258,14.6974586 9.45342356,14.4456092 9.47532426,14.1953088 L9.66095972,12.0737039 C9.68460538,11.8034604 9.59744437,11.5352064 9.41946952,11.3304735 L8.0222392,9.72317281 C7.46616899,9.08349874 7.53394331,8.11415648 8.17361738,7.55808628 C8.36324178,7.39324533 8.59043838,7.27748288 8.83525593,7.22096459 L10.9103866,6.74190243 C11.1747103,6.68088099 11.4029008,6.51509089 11.5426162,6.28256079 L12.639482,4.45703257 C13.076013,3.73050822 14.0188557,3.4954222 14.7453801,3.93195324 C14.9607503,4.06135811 15.1410545,4.24166236 15.2704594,4.45703257 L16.3673253,6.28256079 C16.5070406,6.51509089 16.7352311,6.68088099 16.9995548,6.74190243 L19.0746855,7.22096459 C19.9005467,7.41162192 20.4154812,8.23567303 20.2248239,9.06153426 C20.1683056,9.30635181 20.0525432,9.53354841 19.8877022,9.72317281 L18.4904719,11.3304735 C18.312497,11.5352064 18.225336,11.8034604 18.2489817,12.0737039 L18.4346172,14.1953088 C18.5084964,15.0396658 17.8839008,15.7840434 17.0395437,15.8579227 C16.7892433,15.8798234 16.5373939,15.8399344 16.3061117,15.7417585 L14.3457101,14.9095967 C14.0960002,14.8035985 13.8139412,14.8035985 13.5642314,14.9095967 Z" id="Star" stroke="#090909" stroke-width="1.5" stroke-linejoin="round" transform="translate(13.954971, 10.267647) rotate(-10.000000) translate(-13.954971, -10.267647) "></path>
                    <path d="M8.65289929,30.1485388 L6.98639025,30.8559475 C6.30371408,31.1457335 5.51537771,30.8272331 5.22559168,30.144557 C5.13968777,29.9421851 5.10478488,29.7218169 5.12394799,29.502804 L5.281754,27.6992584 C5.30539967,27.429015 5.21823866,27.160761 5.04026381,26.956028 L3.85249857,25.589685 C3.36593713,25.0299702 3.42523966,24.1817957 3.98495447,23.6952343 C4.15087582,23.5509985 4.34967285,23.4497063 4.56388821,23.4002528 L6.32792673,22.993009 C6.59225041,22.9319876 6.82044091,22.7661975 6.96015626,22.5336674 L7.89258601,20.9818123 C8.27455068,20.3461035 9.09953803,20.1404032 9.73524684,20.5223679 C9.92369578,20.6355972 10.081462,20.7933634 10.1946913,20.9818123 L11.127121,22.5336674 C11.2668364,22.7661975 11.4950269,22.9319876 11.7593505,22.993009 L13.5233891,23.4002528 C14.2460176,23.567078 14.6965853,24.2881227 14.5297602,25.0107513 C14.4803067,25.2249666 14.3790145,25.4237637 14.2347787,25.589685 L13.0470135,26.956028 C12.8690386,27.160761 12.7818776,27.429015 12.8055233,27.6992584 L12.9633293,29.502804 C13.0279736,30.2416164 12.4814524,30.8929468 11.74264,30.9575912 C11.5236271,30.9767543 11.3032589,30.9418514 11.100887,30.8559475 L9.43437798,30.1485388 C9.18466811,30.0425406 8.90260915,30.0425406 8.65289929,30.1485388 Z" id="Star-Copy" stroke="#090909" stroke-width="1.5" stroke-linejoin="round" transform="translate(9.043639, 26.066100) rotate(-21.000000) translate(-9.043639, -26.066100) "></path>
                    <path d="M26.9698111,25.770858 L25.3033021,26.4782666 C24.6206259,26.7680527 23.8322896,26.4495523 23.5425035,25.7668761 C23.4565996,25.5645042 23.4216967,25.344136 23.4408599,25.1251231 L23.5986659,23.3215776 C23.6223115,23.0513341 23.5351505,22.7830801 23.3571757,22.5783472 L22.1694104,21.2120042 C21.682849,20.6522894 21.7421515,19.8041149 22.3018663,19.3175535 C22.4677877,19.1733176 22.6665847,19.0720255 22.8808001,19.022572 L24.6448386,18.6153282 C24.9091623,18.5543067 25.1373528,18.3885166 25.2770681,18.1559865 L26.2094979,16.6041315 C26.5914625,15.9684227 27.4164499,15.7627224 28.0521587,16.1446871 C28.2406076,16.2579163 28.3983739,16.4156825 28.5116031,16.6041315 L29.4440329,18.1559865 C29.5837482,18.3885166 29.8119387,18.5543067 30.0762624,18.6153282 L31.8403009,19.022572 C32.5629295,19.1893971 33.0134972,19.9104419 32.846672,20.6330704 C32.7972185,20.8472858 32.6959264,21.0460828 32.5516906,21.2120042 L31.3639253,22.5783472 C31.1859505,22.7830801 31.0987895,23.0513341 31.1224351,23.3215776 L31.2802411,25.1251231 C31.3448855,25.8639356 30.7983643,26.515266 30.0595519,26.5799103 C29.840539,26.5990734 29.6201708,26.5641705 29.4177989,26.4782666 L27.7512898,25.770858 C27.50158,25.6648598 27.219521,25.6648598 26.9698111,25.770858 Z" id="Star" stroke="#090909" stroke-width="1.5" stroke-linejoin="round" transform="translate(27.360550, 21.688419) rotate(23.000000) translate(-27.360550, -21.688419) "></path>
                </g>
            </g>
        </g>
    </g>
</svg>