<?xml version="1.0" encoding="UTF-8"?>
<svg width="14px" height="14px" viewBox="0 0 14 14" version="1.1" xmlns="http://www.w3.org/2000/svg" xmlns:xlink="http://www.w3.org/1999/xlink">
    <title>4220F173-A747-4B34-A34D-7B1C68932298</title>
    <g id="首頁" stroke="none" stroke-width="1" fill="none" fill-rule="evenodd">
        <g id="UI" transform="translate(-433.000000, -427.000000)">
            <g id="icon/reload-black" transform="translate(433.000000, 427.000000)">
                <g id="Group" transform="translate(7.000000, 7.000000) rotate(-270.000000) translate(-7.000000, -7.000000) translate(0.000000, 0.000000)">
                    <path d="M7,1.5 C10.0375661,1.5 12.5,3.96243388 12.5,7 C12.5,8.75116103 11.6754152,10.3662371 10.3023713,11.3985844 C10.0816554,11.5645336 9.7682015,11.5201363 9.60225237,11.2994205 C9.43630324,11.0787046 9.48070045,10.7652507 9.70141632,10.5993016 C10.8258324,9.75388942 11.5,8.43342865 11.5,7 C11.5,4.51471863 9.48528137,2.5 7,2.5 C6.72385763,2.5 6.5,2.27614237 6.5,2 C6.5,1.72385763 6.72385763,1.5 7,1.5 Z" id="Oval" stroke="#000000" stroke-width="0.25" fill="#000000" fill-rule="nonzero"></path>
                    <path d="M8.40662808,0.388361117 C8.63180716,0.228520592 8.94392722,0.281487954 9.10376774,0.506667033 C9.24584821,0.706826215 9.21978417,0.975679503 9.05408762,1.14521469 L8.98546183,1.2038067 L7.702,2.114 L8.61141327,3.36275563 C8.75594785,3.56114996 8.73319662,3.83030383 8.5696004,4.00186666 L8.50170135,4.06129932 C8.30330701,4.20583391 8.03415314,4.18308268 7.86259032,4.01948646 L7.80315765,3.95158741 L6.59587219,2.29441589 C6.45007739,2.09429173 6.47463857,1.82256253 6.64142595,1.65140901 L6.71058313,1.59227721 L8.40662808,0.388361117 Z" id="Path-5" stroke="#000000" stroke-width="0.25" fill="#000000" fill-rule="nonzero"></path>
                    <path d="M1.99428792,2.50166038 C5.03185404,2.50166038 7.49428792,4.96409426 7.49428792,8.00166038 C7.49428792,9.75282141 6.66970308,11.3678975 5.29665922,12.4002448 C5.07594335,12.5661939 4.76248943,12.5217967 4.59654029,12.3010809 C4.43059116,12.080365 4.47498837,11.7669111 4.69570425,11.6009619 C5.82012034,10.7555498 6.49428792,9.43508903 6.49428792,8.00166038 C6.49428792,5.51637901 4.47956929,3.50166038 1.99428792,3.50166038 C1.71814555,3.50166038 1.49428792,3.27780276 1.49428792,3.00166038 C1.49428792,2.72551801 1.71814555,2.50166038 1.99428792,2.50166038 Z" id="Oval" stroke="#000000" stroke-width="0.25" fill="#000000" fill-rule="nonzero" transform="translate(4.494288, 7.501146) rotate(-180.000000) translate(-4.494288, -7.501146) "></path>
                    <path d="M6.70487105,9.93570907 C6.93005013,9.77586854 7.24217018,9.8288359 7.40201071,10.054015 C7.54409118,10.2541742 7.51802714,10.5230275 7.35233059,10.6925626 L7.28370479,10.7511546 L6,11.662 L6.90965623,12.9101036 C7.05419082,13.1084979 7.03143959,13.3776518 6.86784336,13.5492146 L6.79994431,13.6086473 C6.60154998,13.7531819 6.33239611,13.7304306 6.16083329,13.5668344 L6.10140062,13.4989354 L4.89411516,11.8417638 C4.74832036,11.6416397 4.77288154,11.3699105 4.93966892,11.198757 L5.00882609,11.1396252 L6.70487105,9.93570907 Z" id="Path-5" stroke="#000000" stroke-width="0.25" fill="#000000" fill-rule="nonzero" transform="translate(6.146266, 11.773973) rotate(-180.000000) translate(-6.146266, -11.773973) "></path>
                    <rect id="Rectangle" x="0" y="0" width="14" height="14"></rect>
                </g>
            </g>
        </g>
    </g>
</svg>