<?xml version="1.0" encoding="UTF-8"?>
<svg width="22px" height="22px" viewBox="0 0 22 22" version="1.1" xmlns="http://www.w3.org/2000/svg" xmlns:xlink="http://www.w3.org/1999/xlink">
    <title>23046535-1E75-442B-BB97-F09180DE1F17</title>
    <g id="首頁" stroke="none" stroke-width="1" fill="none" fill-rule="evenodd">
        <g id="UI" transform="translate(-283.000000, -301.000000)">
            <g id="icon/chat" transform="translate(283.000000, 301.000000)">
                <path d="M11,17.8686994 C12.006249,17.8686994 12.9691071,17.7076673 13.8561456,17.4137118 C13.9575276,17.3801149 14.1050001,17.3630574 14.298563,17.3625394 L14.552962,17.3698568 C14.5990491,17.3723995 14.6469798,17.3756038 14.6967541,17.3794697 L15.0175234,17.4106039 L15.0175234,17.4106039 L15.3825396,17.457616 L15.3825396,17.457616 L15.7918026,17.520506 C15.8637004,17.5323108 15.9374418,17.5447772 16.0130267,17.5579052 L16.4886601,17.644612 C16.5716196,17.6603864 16.6564227,17.6768222 16.7430694,17.6939197 L17.2850731,17.8044434 L17.2850731,17.8044434 L17.8713236,17.930845 C17.9727193,17.9532351 18.0759586,17.9762868 18.1810415,18 C17.6097867,16.1835661 17.5022454,15.0189886 17.8584176,14.5062678 C18.5831401,13.4630074 19,12.2408753 19,10.9343497 C19,7.10461411 15.418278,4 11,4 C6.581722,4 3,7.10461411 3,10.9343497 C3,14.7640853 6.581722,17.8686994 11,17.8686994 Z" id="Oval" stroke="#FFFFFF" stroke-width="1.5"></path>
                <circle id="Oval" fill="#FFFFFF" cx="7" cy="11" r="1"></circle>
                <circle id="Oval" fill="#FFFFFF" cx="11" cy="11" r="1"></circle>
                <circle id="Oval" fill="#FFFFFF" cx="15" cy="11" r="1"></circle>
            </g>
        </g>
    </g>
</svg>