<?xml version="1.0" encoding="UTF-8"?>
<svg width="22px" height="22px" viewBox="0 0 22 22" version="1.1" xmlns="http://www.w3.org/2000/svg" xmlns:xlink="http://www.w3.org/1999/xlink">
    <title>E1A90E3F-A9E1-410C-A6F8-9252395B1BDE</title>
    <g id="首頁" stroke="none" stroke-width="1" fill="none" fill-rule="evenodd">
        <g id="UI" transform="translate(-195.000000, -119.000000)">
            <g id="icon/footer/community/active-dark" transform="translate(195.000000, 119.000000)">
                <path d="M4,2 L18,2 C20.209139,2 22,3.790861 22,6 L22,13 C22,15.209139 20.209139,17 18,17 L17.5097121,17 L17.5097121,17 L15.3007729,19.7571593 C14.6101417,20.6191931 13.351458,20.7581424 12.4894241,20.0675112 C12.4648073,20.047789 12.4406605,20.0274873 12.4170039,20.006623 L9.00801097,17 L9.00801097,17 L4,17 C1.790861,17 2.705415e-16,15.209139 0,13 L0,6 C-2.705415e-16,3.790861 1.790861,2 4,2 Z" id="Rectangle-Copy-8" fill="#181818"></path>
                <path d="M18,2 C20.209139,2 22,3.790861 22,6 L22,13 C22,15.209139 20.209139,17 18,17 L17.5097121,17 L15.3007729,19.7571593 C14.6101417,20.6191931 13.351458,20.7581424 12.4894241,20.0675112 L12.4170039,20.006623 L9.00801097,17 L4,17 C1.790861,17 0,15.209139 0,13 L0,6 C0,3.790861 1.790861,2 4,2 L18,2 Z M18,3.5 L4,3.5 C2.6745166,3.5 1.58996133,4.53153594 1.50531768,5.83562431 L1.5,6 L1.5,13 C1.5,14.3254834 2.53153594,15.4100387 3.83562431,15.4946823 L4,15.5 L9.57498225,15.5 L13.427298,18.8968735 C13.618861,19.0503471 13.8887747,19.0399529 14.0676536,18.8843899 L14.1301352,18.8192855 L16.7894301,15.5 L18,15.5 C19.3254834,15.5 20.4100387,14.4684641 20.4946823,13.1643757 L20.5,13 L20.5,6 C20.5,4.6745166 19.4684641,3.58996133 18.1643757,3.50531768 L18,3.5 Z" id="Rectangle-Copy-8" fill="#FFDC00" fill-rule="nonzero"></path>
                <circle id="Oval" fill="#FFDC00" fill-rule="nonzero" cx="5" cy="9.5" r="1.5"></circle>
                <circle id="Oval" fill="#FFDC00" fill-rule="nonzero" cx="11" cy="9.5" r="1.5"></circle>
                <circle id="Oval" fill="#FFDC00" fill-rule="nonzero" cx="17" cy="9.5" r="1.5"></circle>
            </g>
        </g>
    </g>
</svg>