<?xml version="1.0" encoding="UTF-8"?>
<svg width="80px" height="107px" viewBox="0 0 80 107" version="1.1" xmlns="http://www.w3.org/2000/svg" xmlns:xlink="http://www.w3.org/1999/xlink">
    <title>CB28F943-D7B2-4C66-BB53-231B08B5B526</title>
    <defs>
        <linearGradient x1="50%" y1="-29.3296539%" x2="50%" y2="100%" id="linearGradient-1">
            <stop stop-color="#CACACA" offset="0%"></stop>
            <stop stop-color="#CACACA" stop-opacity="0.2" offset="100%"></stop>
        </linearGradient>
        <linearGradient x1="50%" y1="0%" x2="50%" y2="100%" id="linearGradient-2">
            <stop stop-color="#CACACA" offset="0%"></stop>
            <stop stop-color="#CACACA" stop-opacity="0.59663103" offset="100%"></stop>
        </linearGradient>
        <linearGradient x1="50%" y1="0%" x2="50%" y2="101.760913%" id="linearGradient-3">
            <stop stop-color="#D8D8D8" stop-opacity="0.350523622" offset="0%"></stop>
            <stop stop-color="#EEEEEE" stop-opacity="0" offset="100%"></stop>
        </linearGradient>
        <radialGradient cx="50%" cy="50%" fx="50%" fy="50%" r="50%" gradientTransform="translate(0.500000,0.500000),scale(0.083333,1.000000),rotate(90.000000),scale(1.000000,11.911046),translate(-0.500000,-0.500000)" id="radialGradient-4">
            <stop stop-color="#B4B4B4" stop-opacity="0.352218948" offset="0%"></stop>
            <stop stop-color="#B4B4B4" stop-opacity="0" offset="100%"></stop>
        </radialGradient>
    </defs>
    <g id="首頁" stroke="none" stroke-width="1" fill="none" fill-rule="evenodd">
        <g id="UI" transform="translate(-702.000000, -214.000000)">
            <g id="icon/empty" transform="translate(702.000000, 214.000000)">
                <g id="Rectangle">
                    <g id="Mask">
                        <rect id="Rectangle" fill="#FFFFFF" x="0" y="7" width="80" height="86" rx="12"></rect>
                        <path d="M68,7 C74.627417,7 80,12.372583 80,19 L80,81 C80,87.627417 74.627417,93 68,93 L12,93 C5.372583,93 0,87.627417 0,81 L0,19 C0,12.372583 5.372583,7 12,7 L68,7 Z M68,10 L12,10 C7.1181973,10 3.14420858,13.8868137 3.00383711,18.7346377 L3,19 L3,81 C3,85.8818027 6.88681368,89.8557914 11.7346377,89.9961629 L12,90 L68,90 C72.8818027,90 76.8557914,86.1131863 76.9961629,81.2653623 L77,81 L77,19 C77,14.1181973 73.1131863,10.1442086 68.2653623,10.0038371 L68,10 Z" id="Rectangle" fill="url(#linearGradient-1)" fill-rule="nonzero"></path>
                        <path d="M21.5,36.75 L58.5,36.75 C59.3284271,36.75 60,36.0784271 60,35.25 C60,34.4215729 59.3284271,33.75 58.5,33.75 L21.5,33.75 C20.6715729,33.75 20,34.4215729 20,35.25 C20,36.0784271 20.6715729,36.75 21.5,36.75 Z" id="Rectangle" fill="#CACACA" opacity="0.600000024"></path>
                        <path d="M21.5,51.75 L58.5,51.75 C59.3284271,51.75 60,51.0784271 60,50.25 C60,49.4215729 59.3284271,48.75 58.5,48.75 L21.5,48.75 C20.6715729,48.75 20,49.4215729 20,50.25 C20,51.0784271 20.6715729,51.75 21.5,51.75 Z" id="Rectangle" fill="#CACACA" opacity="0.400000006"></path>
                        <path d="M21.5,66.75 L46.5,66.75 C47.3284271,66.75 48,66.0784271 48,65.25 C48,64.4215729 47.3284271,63.75 46.5,63.75 L21.5,63.75 C20.6715729,63.75 20,64.4215729 20,65.25 C20,66.0784271 20.6715729,66.75 21.5,66.75 Z" id="Rectangle" fill="#CACACA" opacity="0.300000012"></path>
                        <path d="M25,0 C28.3137085,0 31,2.6862915 31,6 L31,12 C31,15.3137085 28.3137085,18 25,18 C21.6862915,18 19,15.3137085 19,12 L19,6 C19,2.6862915 21.6862915,0 25,0 Z" id="Rectangle" fill="#FFFFFF"></path>
                        <path d="M25,0 C28.3137085,0 31,2.6862915 31,6 L31,12 C31,15.3137085 28.3137085,18 25,18 C21.6862915,18 19,15.3137085 19,12 L19,6 C19,2.6862915 21.6862915,0 25,0 Z M25,3 C23.4023191,3 22.0963391,4.24891996 22.0050927,5.82372721 L22,6 L22,12 C22,13.6568542 23.3431458,15 25,15 C26.5976809,15 27.9036609,13.75108 27.9949073,12.1762728 L28,12 L28,6 C28,4.34314575 26.6568542,3 25,3 Z" id="Rectangle" fill="url(#linearGradient-2)" fill-rule="nonzero"></path>
                        <path d="M55,0 C58.3137085,0 61,2.6862915 61,6 L61,12 C61,15.3137085 58.3137085,18 55,18 C51.6862915,18 49,15.3137085 49,12 L49,6 C49,2.6862915 51.6862915,0 55,0 Z" id="Rectangle" fill="#FFFFFF"></path>
                        <path d="M55,0 C58.3137085,0 61,2.6862915 61,6 L61,12 C61,15.3137085 58.3137085,18 55,18 C51.6862915,18 49,15.3137085 49,12 L49,6 C49,2.6862915 51.6862915,0 55,0 Z M55,3 C53.4023191,3 52.0963391,4.24891996 52.0050927,5.82372721 L52,6 L52,12 C52,13.6568542 53.3431458,15 55,15 C56.5976809,15 57.9036609,13.75108 57.9949073,12.1762728 L58,12 L58,6 C58,4.34314575 56.6568542,3 55,3 Z" id="Rectangle" fill="url(#linearGradient-2)" fill-rule="nonzero"></path>
                    </g>
                    <rect fill="url(#linearGradient-3)" x="0" y="0" width="80" height="93"></rect>
                </g>
                <ellipse id="Oval" fill="url(#radialGradient-4)" opacity="0.600000024" cx="40" cy="104" rx="36" ry="3"></ellipse>
            </g>
        </g>
    </g>
</svg>