<?xml version="1.0" encoding="UTF-8"?>
<svg width="22px" height="22px" viewBox="0 0 22 22" version="1.1" xmlns="http://www.w3.org/2000/svg" xmlns:xlink="http://www.w3.org/1999/xlink">
    <title>CB5DDCE5-9195-4F7F-83AF-D74C4729A485</title>
    <g id="首頁" stroke="none" stroke-width="1" fill="none" fill-rule="evenodd">
        <g id="UI" transform="translate(-43.000000, -153.000000)">
            <g id="icon/footer/home/default-white" transform="translate(43.000000, 153.000000)">
                <circle id="Oval" cx="10" cy="13" r="8"></circle>
                <circle id="Oval" cx="18" cy="4" r="3"></circle>
                <path d="M10,5 C14.418278,5 18,8.581722 18,13 C18,17.418278 14.418278,21 10,21 C5.581722,21 2,17.418278 2,13 C2,8.581722 5.581722,5 10,5 Z M10,6.5 C6.41014913,6.5 3.5,9.41014913 3.5,13 C3.5,16.5898509 6.41014913,19.5 10,19.5 C13.5898509,19.5 16.5,16.5898509 16.5,13 C16.5,9.41014913 13.5898509,6.5 10,6.5 Z" id="Oval" fill="#FFFFFF" fill-rule="nonzero" opacity="0.699999988"></path>
                <path d="M18,1 C19.6568542,1 21,2.34314575 21,4 C21,5.65685425 19.6568542,7 18,7 C16.3431458,7 15,5.65685425 15,4 C15,2.34314575 16.3431458,1 18,1 Z M18,2.5 C17.1715729,2.5 16.5,3.17157288 16.5,4 C16.5,4.82842712 17.1715729,5.5 18,5.5 C18.8284271,5.5 19.5,4.82842712 19.5,4 C19.5,3.17157288 18.8284271,2.5 18,2.5 Z" id="Oval" fill="#FFFFFF" fill-rule="nonzero" opacity="0.699999988"></path>
            </g>
        </g>
    </g>
</svg>