<?xml version="1.0" encoding="UTF-8"?>
<svg width="14px" height="14px" viewBox="0 0 14 14" version="1.1" xmlns="http://www.w3.org/2000/svg" xmlns:xlink="http://www.w3.org/1999/xlink">
    <title>8B31CB2D-C299-47B7-93A1-BF7ACA81C944</title>
    <g id="首頁" stroke="none" stroke-width="1" fill="none" fill-rule="evenodd">
        <g id="UI" transform="translate(-381.000000, -427.000000)" fill="#000000" fill-rule="nonzero">
            <g id="icon/sequence" transform="translate(381.000000, 427.000000)">
                <path d="M4.49408383,0.446331484 C4.94867569,0.030946879 5.66484025,0.312456218 5.74301103,0.894287147 L5.74999526,1 L5.74999526,12 C5.74999526,12.4142136 5.41421356,12.75 5,12.75 C4.62030423,12.75 4.30650904,12.4678461 4.25684662,12.1017706 L4.24999526,12 L4.24999526,2.7 L1.50591617,5.20867984 C1.22793192,5.46268874 0.810600936,5.46811149 0.527095257,5.23725914 L0.446331484,5.1609275 C0.192322587,4.88294324 0.186899837,4.46561226 0.417752181,4.18210658 L0.494083826,4.10134281 L4.49408383,0.446331484 Z" id="Path"></path>
                <path d="M9,1.25 C9.37969577,1.25 9.69349096,1.53215388 9.74315338,1.89822944 L9.75,2 L9.75,11.298 L12.4940838,8.79132016 C12.7720681,8.53731126 13.1893991,8.53188851 13.4729047,8.76274086 L13.5536685,8.8390725 C13.8076774,9.11705676 13.8131002,9.53438774 13.5822478,9.81789342 L13.5059162,9.89865719 L9.50591617,13.5536685 C9.05132431,13.9690531 8.33515975,13.6875438 8.25698897,13.1057129 L8.25,13 L8.25,2 C8.25,1.58578644 8.58578644,1.25 9,1.25 Z" id="Path"></path>
            </g>
        </g>
    </g>
</svg>