<?xml version="1.0" encoding="UTF-8"?>
<svg width="22px" height="22px" viewBox="0 0 22 22" version="1.1" xmlns="http://www.w3.org/2000/svg" xmlns:xlink="http://www.w3.org/1999/xlink">
    <title>667007F1-019D-44A0-8AF3-72A2604580B4</title>
    <g id="首頁" stroke="none" stroke-width="1" fill="none" fill-rule="evenodd">
        <g id="UI" transform="translate(-103.000000, -381.000000)">
            <g id="icon/edit" transform="translate(103.000000, 381.000000)">
                <rect id="Rectangle" fill="#D8D8D8" opacity="0" x="0" y="0" width="22" height="22"></rect>
                <rect id="Rectangle" fill="#000000" x="5" y="17" width="12" height="1.5" rx="0.75"></rect>
                <g id="Group-2" transform="translate(11.646447, 10.146447) rotate(-330.000000) translate(-11.646447, -10.146447) translate(10.146447, 2.646447)" fill="#000000">
                    <path d="M0,4 L3,4 L3,12 L2.39442719,13.2111456 C2.14743794,13.7051241 1.5467649,13.9053485 1.0527864,13.6583592 C0.859259002,13.5615955 0.70233651,13.404673 0.605572809,13.2111456 L0,12 L0,12 L0,4 Z" id="Rectangle"></path>
                    <path d="M1.5,0 C2.32842712,-1.52179594e-16 3,0.671572875 3,1.5 L3,3 L3,3 L0,3 L0,1.5 C-1.01453063e-16,0.671572875 0.671572875,1.52179594e-16 1.5,0 Z" id="Rectangle"></path>
                </g>
            </g>
        </g>
    </g>
</svg>