<svg width="16" height="16" viewBox="0 0 16 16" xmlns="http://www.w3.org/2000/svg">
    <path d="M16 9.367c-.032 1.063-.472 1.894-1.352 2.474-.464.306-.976.443-1.536.451-.792.008-1.576.008-2.368.008-.792.008-1.591.008-2.383.016-1.152.016-2.304.016-3.464.016-.664 0-1.336.017-2 .017a2.763 2.763 0 0 1-1.656-.532A2.83 2.83 0 0 1 .025 9.802 2.928 2.928 0 0 1 1.73 6.739a2.838 2.838 0 0 1 1.712-.21c.136.025.136.025.168-.104.272-1.12.928-1.934 1.968-2.402 1.016-.467 2.04-.419 3.04.089.528.266.952.66 1.28 1.16.047.073.087.105.191.097a2.757 2.757 0 0 1 1.6.258c.384.185.704.443.968.774.048.064.096.04.152.04.432-.032.856.008 1.272.161a2.893 2.893 0 0 1 1.472 1.185c.24.37.384.782.432 1.225.008.105.008.226.016.355zm-8.815-.798c.024-.016.04-.024.056-.024.728-.25 1.4-1.064 1.368-1.975-.024-.508-.248-.879-.72-1.08a1.798 1.798 0 0 0-1.312-.024c-.872.306-1.408.91-1.544 1.837-.04.282-.008.556.144.806.16.266.4.427.68.54.496.194 1 .38 1.496.573.048.016.12.016.096.104-.048.153-.008.137-.144.137-.32 0-.64 0-.96.008-.136 0-.136.008-.168.145-.024.105-.024.105.088.105h1.032c.056 0 .072.016.056.073-.088.379-.168.757-.256 1.136-.016.089-.072.137-.16.137-.096.008-.192.008-.296.016-.016 0-.048-.008-.04.032.024.073.04.154.088.226.032.048.096.016.144.016.08 0 .152 0 .232-.016.184-.032.344-.137.392-.346.072-.363.16-.726.248-1.088.04-.178.04-.178.224-.178.216 0 .168.04.224-.193.008-.049 0-.065-.048-.065h-.248c-.048 0-.056-.008-.04-.056.04-.17.08-.339.12-.5.024-.088 0-.12-.088-.145a29.94 29.94 0 0 0-.664-.201zm1.576.798h-.312c-.056 0-.08.024-.096.08l-.384 1.725c-.016.056.008.072.056.072h.272c.048 0 .072-.016.08-.064.048-.21.096-.42.136-.629.016-.056.04-.08.096-.08.112 0 .224.008.328-.024.263-.065.487-.194.591-.46.105-.274-.023-.516-.303-.588-.144-.04-.304-.032-.464-.032zm4.303-.484a71.852 71.852 0 0 1-.392-.66c-.024-.041-.024-.065.016-.09.144-.12.288-.241.432-.354.032-.032.072-.065.112-.105-.232-.032-.448-.04-.6.161-.048.057-.112.105-.168.153-.04.033-.08.081-.136.105.08-.37.16-.725.24-1.088.016-.08-.008-.088-.072-.08a.985.985 0 0 1-.216.024c-.08 0-.096.04-.112.113-.048.225-.104.459-.152.685l-.24 1.088c-.016.056 0 .072.056.072h.232c.064.008.096-.016.112-.088.032-.162.072-.315.112-.492.112.193.208.37.304.54.016.032.032.072.08.056.112-.024.248 0 .392-.04zm-9.015.234s0 .008 0 0c-.25.008-.501.008-.752 0-.104 0-.152.024-.16.129-.016.104-.024.104.088.104h1.208c.048 0 .088-.008.072.065l-.336 1.49c-.032.138-.08.17-.216.178h-.08c-.224 0-.216 0-.144.21.016.056.048.072.096.072.104 0 .2-.008.304-.016a.443.443 0 0 0 .392-.354c.136-.597.264-1.193.408-1.79.016-.08-.008-.088-.072-.088h-.808zm1.464.862c-.104.435-.192.854-.296 1.274-.016.072-.016.112.08.104.056-.008.112 0 .176.008.064 0 .104-.024.12-.096.12-.557.248-1.105.368-1.653a.216.216 0 0 1 .056-.112 5.52 5.52 0 0 0 .32-.436c.032-.048.024-.072-.032-.088a1.922 1.922 0 0 1-.2-.065c-.048-.016-.072-.008-.096.033-.2.354-.488.62-.808.862-.192.137-.192.129-.072.33.024.04.048.049.088.024.088-.072.184-.129.296-.185zM9.209 8.81c-.04.121.024.121.088.113.063-.008.135-.008.2-.008.04 0 .064-.008.08-.056.08-.379.168-.75.247-1.12.008-.049-.008-.057-.048-.057-.08 0-.152.008-.232 0-.08-.008-.112.032-.128.105-.048.226-.095.451-.151.677a.25.25 0 0 1-.256.201c-.12 0-.168-.056-.144-.177.048-.242.104-.484.16-.717.016-.073 0-.089-.072-.089-.08.008-.168 0-.248 0-.04 0-.056.008-.072.057-.064.29-.136.58-.192.87-.04.193.08.33.28.339.176.007.32-.049.488-.138zm1.12 2.41h.143c.04 0 .088.008.08-.064-.008-.04 0-.08 0-.121 0-.008.008-.016.008-.024l.144-.637c.048-.218-.04-.363-.264-.403a1.234 1.234 0 0 0-.68.097c-.023.008-.048.024-.048.056 0 .137.033.161.16.13.04-.009.08-.025.112-.033a.647.647 0 0 1 .216 0c.072.016.112.064.104.137 0 .08-.048.097-.12.097-.08 0-.16.008-.24.016-.248.024-.464.193-.52.403-.056.185.025.322.209.37.151.04.28 0 .415-.064.04-.024.08-.048.088.024.008.032.04.024.064.024.056 0 .104-.008.128-.008zm-7.8-.233c.024-.017.048-.025.064-.04.24-.154.464-.323.656-.525.048-.048.072-.048.12 0 .136.145.272.282.392.436.048.064.08.056.128.008.048-.049.088-.089.144-.13.048-.04.048-.064 0-.112-.152-.153-.304-.306-.464-.443-.056-.049-.056-.073-.016-.13.08-.104.144-.225.192-.346.024-.048.016-.072-.032-.089-.072-.024-.144-.048-.216-.08-.048-.016-.072-.008-.096.04a5.26 5.26 0 0 1-.16.29c-.208.323-.48.58-.784.806-.024.024-.08.032-.056.08.032.065.064.13.104.194 0 .024.016.032.024.04zm8.591.257a.67.67 0 0 0 .552-.225c.168-.194.136-.395-.08-.524-.064-.04-.144-.073-.208-.113-.032-.024-.072-.048-.064-.097.008-.048.056-.072.104-.08a.474.474 0 0 1 .184.008c.16.048.16.04.248-.097 0-.008.008-.008.008-.016.032-.04.032-.072-.024-.089-.208-.08-.424-.096-.632.008-.16.081-.264.202-.264.387-.008.178.12.266.256.33.04.025.08.041.12.073.032.024.072.04.064.097-.008.056-.048.072-.096.089-.088.024-.168-.008-.256-.025-.056-.008-.12-.08-.168-.04-.048.032-.072.105-.112.153-.032.049-.024.065.024.089a.88.88 0 0 0 .344.072zm1.464-1.297a.561.561 0 0 0-.368.105c-.128.096-.208.217-.2.378.008.154.112.226.232.29.048.025.096.057.144.081.04.024.072.049.056.105-.016.048-.056.072-.104.072a.65.65 0 0 1-.248-.024c-.176-.056-.176-.056-.272.105-.032.048-.032.08.024.097.048.016.096.04.144.048.28.065.536.024.736-.193.168-.186.144-.395-.072-.524-.064-.04-.136-.073-.2-.113-.04-.024-.08-.048-.072-.097.008-.056.048-.072.096-.088a.417.417 0 0 1 .264.032c.024.008.056.04.08.008.04-.065.104-.12.12-.201.008-.025-.032-.025-.048-.033a.907.907 0 0 0-.312-.048zm-1.112-2.305c-.384-.008-.728.201-.856.532-.136.33-.032.669.368.75.16.032.32.015.48-.033.16-.048.152-.048.12-.21-.008-.048-.024-.056-.072-.04-.08.032-.16.032-.24.04a.268.268 0 0 1-.288-.265c-.016-.315.248-.54.592-.5.048.008.104.064.152.016.04-.04.056-.097.088-.153V7.77c.032-.049.008-.065-.032-.08a.894.894 0 0 0-.312-.05zm-9.43 3.691h.087c.064.008.088-.016.104-.08.12-.548.24-1.097.368-1.645.016-.056.008-.08-.056-.08h-.208c-.048 0-.072.008-.088.064l-.36 1.564c-.04.177-.04.177.152.177zm7.998-2.426h.136c.048 0 .064-.016.072-.056.08-.37.16-.742.24-1.104.016-.057 0-.073-.056-.073-.072 0-.144.008-.208 0-.096-.016-.12.032-.136.113-.063.314-.136.629-.208.943-.031.185-.031.185.16.177zM6.89 10.64l-.024-.064a2.542 2.542 0 0 0-.24-.492c-.112-.17-.048-.153-.24-.065a.375.375 0 0 1-.08.04c-.032.017-.048.033-.032.073.096.186.168.387.232.589.008.032.024.048.064.04.088-.032.184-.056.272-.08.024-.017.048-.009.048-.041zM3 9.326c-.008-.008-.016-.024-.032-.04-.08-.097-.16-.185-.24-.274-.16-.177-.16-.17-.352-.024-.04.032-.04.048-.008.088.072.081.136.178.208.258.056.057.072.178.16.178.08-.008.152-.08.224-.121.008-.008.016-.008.024-.016.016-.024.024-.033.016-.049zm7.375-1.894c.12 0 .248-.12.24-.233 0-.09-.072-.154-.168-.154-.12 0-.24.121-.24.226 0 .097.072.161.168.161zM7.833 6.74c-.048.605-.28 1.104-.848 1.386a.903.903 0 0 1-.616.081.674.674 0 0 1-.56-.604c-.072-.645.16-1.17.688-1.54a.995.995 0 0 1 .752-.169c.32.048.56.33.584.677.008.056 0 .113 0 .17zm.832 3.458c-.04.008-.064-.024-.04-.105.032-.12.056-.242.08-.363.008-.056.032-.096.104-.088.032.008.064 0 .088 0 .096.008.192.032.232.137.04.104 0 .185-.064.266-.096.112-.224.137-.4.153zm1.575.475a.475.475 0 0 0-.016.105.298.298 0 0 1-.36.218c-.071-.016-.095-.065-.071-.137.023-.081.08-.121.151-.146a.533.533 0 0 1 .296-.04z" fill="#36C" fill-rule="nonzero"/>
</svg>
