<svg width="32" height="32" viewBox="0 0 32 32" xmlns="http://www.w3.org/2000/svg">
    <g fill="none" fill-rule="evenodd">
        <path d="M22.333 4.727c2.104.03 4.184.894 5.773 2.604 1.48 1.593 2.116 3.645 2.143 5.727.031 2.417-.755 4.881-2.041 6.766-2.454 3.593-7.812 9.426-12.385 9.426-4.57 0-9.58-5.838-12.03-9.426-1.287-1.885-2.073-4.349-2.042-6.766.027-2.082.662-4.134 2.143-5.727 1.567-1.686 3.61-2.55 5.666-2.58 2.06-.03 4.125.776 5.728 2.41.185.188.359.382.522.582a9.06 9.06 0 0 1 .537-.57c1.694-1.65 3.85-2.476 5.986-2.446z" stroke="#000" stroke-width="1.5" fill="#FFF"/>
        <path d="M16 14.868a2.997 2.997 0 0 1 4.218 0c1.146 1.137.916 2.97.058 4.13C19.417 20.16 17.529 22 15.94 22s-3.358-1.84-4.217-3.001c-.858-1.16-1.088-2.994.058-4.131a2.998 2.998 0 0 1 4.16-.057l.058.057z" fill="#FFDC00"/>
    </g>
</svg>
