<svg width="22" height="22" viewBox="0 0 22 22" xmlns="http://www.w3.org/2000/svg">
    <g fill="none" fill-rule="evenodd">
        <rect fill="#FFDC00" y="3" width="15" height="16" rx="4"/>
        <path d="M18.159 5.992 19 5.556a2.054 2.054 0 0 1 3 1.823v7.242a2.054 2.054 0 0 1-3 1.823l-.841-.436A4 4 0 0 1 16 12.458V9.542a4 4 0 0 1 2.159-3.551z" fill="#FFDC00"/>
        <path d="M21.77 6.434c.15.292.23.616.23.945v7.242a2.054 2.054 0 0 1-3 1.823l-.841-.436A4 4 0 0 1 16 12.458V9.542a4 4 0 0 1 2.159-3.551L19 5.556a2.054 2.054 0 0 1 2.77.878zm-1.332.69a.555.555 0 0 0-.655-.275l-.093.038-.84.436a2.5 2.5 0 0 0-1.343 2.034l-.007.186v2.914a2.5 2.5 0 0 0 1.188 2.128l.161.092.841.436a.554.554 0 0 0 .803-.402l.007-.09V7.379c0-.059-.01-.118-.028-.173l-.034-.082z" fill="#000" fill-rule="nonzero"/>
        <circle fill="#FFDC00" cx="7" cy="9" r="3"/>
        <path d="M11 3a4 4 0 0 1 4 4v8a4 4 0 0 1-4 4H4a4 4 0 0 1-4-4V7a4 4 0 0 1 4-4h7zm0 1.5H4a2.5 2.5 0 0 0-2.495 2.336L1.5 7v8a2.5 2.5 0 0 0 2.336 2.495L4 17.5h7a2.5 2.5 0 0 0 2.495-2.336L13.5 15V7a2.5 2.5 0 0 0-2.336-2.495L11 4.5z" fill="#000" fill-rule="nonzero"/>
        <path d="M7 6a3 3 0 1 1 0 6 3 3 0 0 1 0-6zm0 1.5a1.5 1.5 0 1 0 0 3 1.5 1.5 0 0 0 0-3z" fill="#000" fill-rule="nonzero"/>
    </g>
</svg>
