<svg width="22" height="22" viewBox="0 0 22 22" xmlns="http://www.w3.org/2000/svg">
    <g fill="none" fill-rule="evenodd">
        <circle fill="#FFF" cx="11" cy="6" r="4"/>
        <path d="M6.28 12h9.44a4 4 0 0 1 3.923 3.216L19.8 16a3.344 3.344 0 0 1-3.28 4H5.48a3.344 3.344 0 0 1-3.28-4l.157-.784A4 4 0 0 1 6.279 12z" fill="#FFF"/>
        <path d="M11 2a4 4 0 1 1 0 8 4 4 0 0 1 0-8zm0 1.5a2.5 2.5 0 1 0 0 5 2.5 2.5 0 0 0 0-5zM15.72 12a4 4 0 0 1 3.923 3.216L19.8 16a3.344 3.344 0 0 1-3.28 4H5.48a3.344 3.344 0 0 1-3.28-4l.157-.784A4 4 0 0 1 6.279 12h9.442zm0 1.5H6.28a2.5 2.5 0 0 0-2.414 1.845l-.038.165-.157.784a1.844 1.844 0 0 0 1.657 2.2l.151.006h11.042a1.844 1.844 0 0 0 1.832-2.056l-.024-.15-.157-.784a2.5 2.5 0 0 0-2.282-2.004l-.17-.006z" fill="#B3B3B3" fill-rule="nonzero"/>
    </g>
</svg>
