<svg width="48" height="48" viewBox="0 0 48 48" xmlns="http://www.w3.org/2000/svg">
    <defs>
        <filter color-interpolation-filters="auto" id="eh0ktdfiva">
            <feColorMatrix in="SourceGraphic" values="0 0 0 0 0.592157 0 0 0 0 0.592157 0 0 0 0 0.592157 0 0 0 1.000000 0"/>
        </filter>
    </defs>
    <g fill="none" fill-rule="evenodd">
        <circle fill="#F2F2F2" cx="24" cy="24" r="24"/>
        <g filter="url(#eh0ktdfiva)">
            <g fill="#FFF">
                <path d="M18 13.961a2 2 0 0 1 .297.023l8 1.2c.29.043.556.147.79.298l-5.86 1.563a3 3 0 0 0-2.221 2.715l-.006.184v10.345l-1.297-.194A2 2 0 0 1 16 28.117V15.96a2 2 0 0 1 2-2z"/>
                <path d="m22.485 18.243 8-2.133A2 2 0 0 1 33 18.042v12.06a2 2 0 0 1-1.485 1.933l-8 2.133A2 2 0 0 1 21 32.236v-12.06a2 2 0 0 1 1.485-1.933z"/>
            </g>
        </g>
    </g>
</svg>
