<svg width="14" height="14" viewBox="0 0 14 14" xmlns="http://www.w3.org/2000/svg">
    <g fill="#979797" fill-rule="nonzero">
        <path d="M7 1.5a5.5 5.5 0 0 1 3.302 9.899.5.5 0 1 1-.6-.8A4.5 4.5 0 0 0 7 2.5a.5.5 0 0 1-.001-.999z"/>
        <path d="M8.407.388a.5.5 0 0 1 .647.757l-.069.059-1.283.91.91 1.249a.5.5 0 0 1-.042.639l-.068.06a.5.5 0 0 1-.64-.043l-.059-.067-1.207-1.658a.5.5 0 0 1 .045-.643l.07-.059L8.407.388zM6.994 12.5a5.5 5.5 0 0 1-3.302-9.898.5.5 0 0 1 .6.8 4.5 4.5 0 0 0 2.701 8.1.5.5 0 1 1 .001.999z"/>
        <path d="M5.588 13.612a.5.5 0 0 1-.648-.757l.069-.058 1.284-.911-.91-1.248a.5.5 0 0 1 .042-.64l.068-.059a.5.5 0 0 1 .639.042l.06.068 1.206 1.657a.5.5 0 0 1-.045.643l-.07.06-1.695 1.203z"/>
    </g>
</svg>
