<svg width="14" height="14" viewBox="0 0 14 14" xmlns="http://www.w3.org/2000/svg">
    <g fill="#000" fill-rule="nonzero">
        <path d="M4.494.446a.75.75 0 0 1 1.249.448L5.75 1v11a.75.75 0 0 1-1.493.102L4.25 12V2.7L1.506 5.209a.75.75 0 0 1-.979.028l-.08-.076a.75.75 0 0 1-.03-.979l.077-.08 4-3.656zM9 1.25a.75.75 0 0 1 .743.648L9.75 2v9.298l2.744-2.507a.75.75 0 0 1 .979-.028l.08.076a.75.75 0 0 1 .03.979l-.077.08-4 3.656a.75.75 0 0 1-1.249-.448L8.25 13V2A.75.75 0 0 1 9 1.25z"/>
    </g>
</svg>
