<svg width="22" height="22" viewBox="0 0 22 22" xmlns="http://www.w3.org/2000/svg">
    <g stroke="#000" stroke-width="1.5" fill="none" fill-rule="evenodd">
        <path d="M11 2.06c.216 0 .432.055.625.167l6.66 3.845c.387.223.625.636.625 1.083v7.69a1.25 1.25 0 0 1-.625 1.083l-6.66 3.845a1.25 1.25 0 0 1-1.25 0l-6.66-3.845a1.25 1.25 0 0 1-.625-1.083v-7.69c0-.447.238-.86.625-1.083l6.66-3.845A1.25 1.25 0 0 1 11 2.059z"/>
        <path d="m11 7.905 2.59 1.456a.25.25 0 0 1 .124.216v2.846a.25.25 0 0 1-.125.216l-2.464 1.423a.25.25 0 0 1-.25 0l-2.464-1.423a.25.25 0 0 1-.125-.216V9.577a.25.25 0 0 1 .125-.216l2.464-1.423A.25.25 0 0 1 11 7.905z"/>
    </g>
</svg>
