<svg width="32" height="32" viewBox="0 0 32 32" xmlns="http://www.w3.org/2000/svg">
    <g stroke-width="1.5" fill="none" fill-rule="evenodd">
        <path d="M23.613 29.25H7.75a3 3 0 0 1-3-3V5.75a3 3 0 0 1 3-3h16.5a3 3 0 0 1 3 3v2.915h0" stroke="#000" stroke-linecap="round"/>
        <path d="M25.373 11.982c.597.24.68.382.704.54l1.974 12.514a.642.642 0 0 1-.536.737.644.644 0 0 1-.528-.155l-4.061-3.609-5.321 1.095a.642.642 0 0 1-.761-.501.644.644 0 0 1 .13-.535l7.966-9.85a.642.642 0 0 1 .433-.236z" stroke="#000" fill="#FFF"/>
        <path stroke="#FFDC00" d="M10 10h10M10 15h6M10 20h3M22.965 21.864l.776-2.898"/>
    </g>
</svg>
