<svg width="22" height="22" viewBox="0 0 22 22" xmlns="http://www.w3.org/2000/svg">
    <g fill="#FFF" fill-rule="evenodd">
        <path d="M9.627 4.724A2 2 0 0 1 10 5.886v10.228a2 2 0 0 1-3.162 1.627l-2.672-1.909-2.558-.51A2 2 0 0 1 0 13.36V8.64a2 2 0 0 1 1.608-1.962l2.558-.512 2.672-1.907a2 2 0 0 1 2.79.465z"/>
        <path d="M12.295 7.921a.75.75 0 0 1 .958-.456 3.75 3.75 0 0 1-.003 7.071.75.75 0 0 1-.5-1.414 2.251 2.251 0 0 0 .002-4.244.75.75 0 0 1-.457-.957z" fill-rule="nonzero"/>
        <path d="M14.324 4.352a.75.75 0 0 1 .999-.355A7.75 7.75 0 0 1 19.75 11a7.75 7.75 0 0 1-4.43 7.005.75.75 0 1 1-.643-1.356A6.25 6.25 0 0 0 18.25 11a6.25 6.25 0 0 0-3.57-5.649.75.75 0 0 1-.356-.999z" fill-rule="nonzero"/>
    </g>
</svg>
