<svg width="14" height="14" viewBox="0 0 14 14" xmlns="http://www.w3.org/2000/svg">
    <g fill="none" fill-rule="evenodd">
        <path d="M6 3a2 2 0 0 1 2 2v4a2 2 0 0 1-2 2H3a2 2 0 0 1-2-2V5a2 2 0 0 1 2-2h3zm0 1.5H3a.5.5 0 0 0-.492.41L2.5 5v4a.5.5 0 0 0 .41.492L3 9.5h3a.5.5 0 0 0 .492-.41L6.5 9V5a.5.5 0 0 0-.41-.492L6 4.5z" fill="#000" fill-rule="nonzero"/>
        <path d="M11.335 4.67a.63.63 0 0 1 .483-.033c.41.404.432.501.432.6v3.527a.63.63 0 0 1-.915.565l-.894-.447a1.249 1.249 0 0 1-.691-1.118V6.236a1.249 1.249 0 0 1 .691-1.118z" stroke="#000" stroke-width="1.5"/>
    </g>
</svg>
