<svg width="14" height="14" viewBox="0 0 14 14" xmlns="http://www.w3.org/2000/svg">
    <g fill="#979797" fill-rule="nonzero">
        <path d="M6 3a2 2 0 0 1 2 2v4a2 2 0 0 1-2 2H3a2 2 0 0 1-2-2V5a2 2 0 0 1 2-2h3zm0 1.5H3a.5.5 0 0 0-.492.41L2.5 5v4a.5.5 0 0 0 .41.492L3 9.5h3a.5.5 0 0 0 .492-.41L6.5 9V5a.5.5 0 0 0-.41-.492L6 4.5zM12.854 4.618c.096.192.146.404.146.618v3.528A1.382 1.382 0 0 1 11 10l-.894-.447A2 2 0 0 1 9 7.763V6.237a2 2 0 0 1 1.106-1.789L11 4a1.382 1.382 0 0 1 1.854.618zm-1.354.808-.724.363a.5.5 0 0 0-.267.354l-.009.093v1.528a.5.5 0 0 0 .197.398l.08.05.723.361V5.426z"/>
    </g>
</svg>
