<svg width="32" height="32" viewBox="0 0 32 32" xmlns="http://www.w3.org/2000/svg">
    <g fill="none" fill-rule="evenodd">
        <rect stroke="#000" stroke-width="1.5" fill="#FFF" transform="rotate(75 13.88 9.854)" x="9.63" y="-.396" width="8.5" height="20.5" rx="4"/>
        <rect stroke="#000" stroke-width="1.5" fill="#FFF" x="2.75" y="7.75" width="23.5" height="20.5" rx="4"/>
        <path d="M27 12.75c.621 0 1.184.252 1.591.659.407.407.659.97.659 1.591v6c0 .621-.252 1.184-.659 1.591-.407.407-.97.659-1.591.659h-5a3.24 3.24 0 0 1-2.298-.952A3.24 3.24 0 0 1 18.75 20v-4c0-.897.364-1.71.952-2.298A3.24 3.24 0 0 1 22 12.75z" stroke="#000" stroke-width="1.5" fill="#FFF"/>
        <circle fill="#FFDC00" cx="24" cy="18" r="2"/>
    </g>
</svg>
