<svg width="24" height="24" viewBox="0 0 24 24" fill="none" xmlns="http://www.w3.org/2000/svg">
    <path d="M12 21.25c-5.11 0-9.25-4.14-9.25-9.25S6.89 2.75 12 2.75s9.25 4.14 9.25 9.25-4.14 9.25-9.25 9.25z" stroke="#fff" stroke-width="1.5" stroke-linecap="round" stroke-linejoin="round"/>
    <path d="M12.009 16.298a.578.578 0 0 1-.43-.18.616.616 0 0 1-.175-.448v-.664l.263.242a4.367 4.367 0 0 1-1.018-.152 5.17 5.17 0 0 1-.701-.251.656.656 0 0 1-.325-.305.81.81 0 0 1-.07-.404.81.81 0 0 1 .15-.376.57.57 0 0 1 .315-.225c.134-.042.29-.024.465.054.117.066.292.135.526.207.24.065.535.098.886.098.245 0 .438-.024.579-.072.146-.047.248-.11.307-.188a.434.434 0 0 0 .096-.27.353.353 0 0 0-.07-.223.487.487 0 0 0-.21-.17 1.731 1.731 0 0 0-.413-.144l-.99-.216c-.545-.125-.951-.334-1.22-.627-.263-.3-.395-.685-.395-1.158 0-.358.085-.678.255-.96.175-.286.418-.52.728-.699a2.87 2.87 0 0 1 1.105-.34l-.263.152v-.601c0-.18.058-.329.175-.449.117-.12.26-.179.43-.179.175 0 .322.06.438.18.117.119.176.268.176.448v.6l-.263-.17c.222.006.462.045.719.117.257.066.482.158.675.278.135.072.228.17.281.296a.684.684 0 0 1 .061.386.626.626 0 0 1-.14.34.56.56 0 0 1-.316.207c-.128.03-.283.006-.465-.072a2.289 2.289 0 0 0-.456-.143 2.62 2.62 0 0 0-.631-.063c-.31 0-.55.057-.72.17a.515.515 0 0 0-.245.44c0 .12.047.221.14.305.1.077.278.146.535.206l1 .224c.556.126.965.335 1.228.628.27.287.404.66.404 1.121 0 .36-.085.676-.255.951-.17.275-.406.5-.71.673a2.804 2.804 0 0 1-1.044.34l.202-.215v.673c0 .18-.059.329-.176.449a.57.57 0 0 1-.438.179z" fill="#fff"/>
</svg>
