<svg width="16" height="16" viewBox="0 0 16 16" xmlns="http://www.w3.org/2000/svg">
    <path d="M8 0a8.001 8.001 0 0 1 0 16A8.001 8.001 0 0 1 8 0zm2.064 6.516c-1.74 0-3.12 1.206-3.107 2.69 0 1.495 1.38 2.701 3.13 2.701.371 0 .742-.093 1.101-.185l.998.556-.279-.927c.73-.557 1.276-1.299 1.276-2.134 0-1.484-1.461-2.701-3.12-2.701zM6.48 3.71c-2.006 0-3.664 1.391-3.664 3.165 0 1.01.557 1.855 1.473 2.505l-.36 1.124 1.276-.649c.44.104.811.197 1.275.197.116 0 .244-.011.36-.023a2.93 2.93 0 0 1-.116-.777c0-1.623 1.368-2.933 3.107-2.956.116 0 .232.011.348.023C9.867 4.823 8.278 3.71 6.48 3.71zM9.055 8c.278 0 .464.186.464.371 0 .186-.186.371-.464.371-.174 0-.36-.174-.36-.371 0-.174.175-.371.36-.371zm2.017 0c.279 0 .464.186.464.371 0 .186-.185.371-.464.371-.173 0-.359-.174-.359-.371 0-.174.174-.371.36-.371zM5.287 5.31c.278 0 .464.174.464.464 0 .278-.186.464-.464.464s-.557-.186-.557-.464.279-.464.557-.464zm2.574 0c.278 0 .464.186.464.464a.444.444 0 0 1-.464.464c-.278 0-.557-.186-.557-.464s.279-.464.557-.464z" fill="#28C445" fill-rule="nonzero"/>
</svg>
