<svg width="16" height="16" viewBox="0 0 16 16" xmlns="http://www.w3.org/2000/svg">
    <path d="m16 10.889-5.147-1.73s.396-.593.818-1.754c.422-1.16.483-1.798.483-1.798L8.822 5.58V4.442l4.035-.029V3.61H8.82V1.778H6.845v1.83H3.081v.805l3.764-.026v1.22h-3.02v.637h6.216s-.068.518-.307 1.161c-.238.644-.483 1.207-.483 1.207s-2.919-1.02-4.456-1.02c-1.538 0-3.408.617-3.59 2.41-.18 1.792.871 2.763 2.353 3.12 1.482.359 2.85-.004 4.041-.587 1.191-.582 2.36-1.906 2.36-1.906l5.998 2.913A2.96 2.96 0 0 1 13.037 16H2.963A2.96 2.96 0 0 1 0 13.043V2.963A2.96 2.96 0 0 1 2.957 0h10.08A2.96 2.96 0 0 1 16 2.957v7.932zM8.5 9.886S6.626 12.25 4.42 12.25s-2.67-1.123-2.67-1.93c0-.808.459-1.685 2.337-1.812C5.964 8.38 8.5 9.886 8.5 9.886h-.001z" fill="#02A9F1" fill-rule="nonzero"/>
</svg>
