<svg width="24" height="24" viewBox="0 0 24 24" fill="none" xmlns="http://www.w3.org/2000/svg">
    <path d="M8 2.75H5A2.25 2.25 0 0 0 2.75 5v3A2.25 2.25 0 0 0 5 10.25h3A2.25 2.25 0 0 0 10.25 8V5A2.25 2.25 0 0 0 8 2.75zM19 2.75h-3A2.25 2.25 0 0 0 13.75 5v3A2.25 2.25 0 0 0 16 10.25h3A2.25 2.25 0 0 0 21.25 8V5A2.25 2.25 0 0 0 19 2.75zM19 13.75h-3A2.25 2.25 0 0 0 13.75 16v3A2.25 2.25 0 0 0 16 21.25h3A2.25 2.25 0 0 0 21.25 19v-3A2.25 2.25 0 0 0 19 13.75zM8 13.75H5A2.25 2.25 0 0 0 2.75 16v3A2.25 2.25 0 0 0 5 21.25h3A2.25 2.25 0 0 0 10.25 19v-3A2.25 2.25 0 0 0 8 13.75z" stroke="#EBFE69" stroke-width="1.5"/>
</svg>
