<svg width="75" height="75" viewBox="0 0 75 75" xmlns="http://www.w3.org/2000/svg" xmlns:xlink="http://www.w3.org/1999/xlink">
    <defs>
        <linearGradient x1="0%" y1="0%" x2="100%" y2="100%" id="dvnl2x9pwb">
            <stop stop-color="#EAA4F4" offset="0%"/>
            <stop stop-color="#B696E0" offset="51.172%"/>
            <stop stop-color="#72A4F7" offset="100%"/>
        </linearGradient>
        <path d="M12.966 9.111C6.067 15.058 1.766 22.9.28 32.241c-.376 2.457-.376 8.091.015 10.58 1.158 7.386 4.052 13.755 8.776 19.248 5.975 6.964 14.328 11.44 23.698 12.74 1.924.265 7.477.25 9.386-.017 10.902-1.502 20.147-7.151 26.248-16.025 4.849-7.058 7.21-15.93 6.46-24.366C73.252 16.138 59.033 1.819 40.825.128c-1.596-.14-4.896-.172-6.179-.062-8.4.798-15.595 3.787-21.68 9.045z" id="2vk1hcpzxa"/>
    </defs>
    <g fill="none" fill-rule="evenodd">
        <g>
            <use fill="#575964" xlink:href="#2vk1hcpzxa"/>
            <use fill="url(#dvnl2x9pwb)" xlink:href="#2vk1hcpzxa"/>
        </g>
        <g fill="#FFF">
            <path d="M36.407 17.664c4.374-.251 7.471 1.64 9.292 5.672 1.302 3.943.475 7.338-2.48 10.184-2.507 2.043-5.31 2.616-8.41 1.718-3.335-1.23-5.339-3.622-6.012-7.175-.437-4.534 1.343-7.786 5.34-9.754.75-.285 1.506-.5 2.27-.645M36.155 15h2.69c4.94.851 8.178 3.716 9.713 8.594.993 4.401-.03 8.226-3.07 11.472-3.652 3.285-7.773 4.087-12.36 2.407-4.859-2.35-7.2-6.288-7.022-11.817.562-4.747 2.986-8.056 7.274-9.926.912-.34 1.837-.583 2.775-.73M54.402 60h-.925c-.52-.3-.8-.79-.84-1.466.263-2.805.515-5.611.756-8.42-.16-3.173-1.533-5.38-4.12-6.62a35.138 35.138 0 0 0-5.34-1.372l-.294.094-2.986 6.338c-1.448 1.858-3.172 2.253-5.171 1.182a5.117 5.117 0 0 1-1.388-1.655c-.89-1.97-1.8-3.925-2.733-5.865-2.131.19-4.206.71-6.222 1.561-2.199 1.381-3.376 3.494-3.532 6.338.241 2.808.493 5.614.757 8.419-.04.677-.321 1.165-.841 1.466h-.925c-.363-.203-.63-.518-.8-.946a320.75 320.75 0 0 1-.798-8.94c.24-4.713 2.314-7.897 6.223-9.553A40.167 40.167 0 0 1 32.034 39c.475.007.853.228 1.135.662a375.212 375.212 0 0 1 3.196 6.906c.61.984 1.312 1.078 2.102.283l3.364-7.189c.19-.277.428-.482.714-.615 2.455.212 4.866.716 7.232 1.514 3.648 1.487 5.708 4.404 6.181 8.75a7.705 7.705 0 0 1 0 1.608c-.22 2.816-.5 5.623-.841 8.419a2.418 2.418 0 0 1-.715.662"/>
        </g>
    </g>
</svg>
