<svg width="90" height="90" viewBox="0 0 90 90" xmlns="http://www.w3.org/2000/svg" xmlns:xlink="http://www.w3.org/1999/xlink">
    <defs>
        <path id="ma4nwzkyza" d="M0 0h50v62.766H0z"/>
    </defs>
    <g fill="none" fill-rule="evenodd">
        <circle fill="#494D61" cx="45" cy="45" r="45"/>
        <g transform="translate(20 14)">
            <mask id="qmpexc2j9b" fill="#fff">
                <use xlink:href="#ma4nwzkyza"/>
            </mask>
            <path d="M10.67 48.076c1.038 1.324 3.125 3.348 4.443 4.342 2.16 1.619 4.37 2.772 5.31 2.772.866 0 1.27-.331 1.892-1.509.451-.87 1.648-2.392 2.233-2.846l.452-.343.452.343c.598.467 1.794 1.988 2.233 2.858.415.822 1.087 1.472 1.563 1.485.695.024.976-.05 2.172-.614 2.869-1.373 5.505-3.557 8.227-6.856l.427-.516 1.856.417c2.246.516 3.1.92 4.15 1.975 1.33 1.337 1.867 2.858 1.867 5.287 0 1.533-.232 2.257-.976 3.005-.672.675-1.245.883-3.772 1.399-7.19 1.46-20.726 1.84-30.466.846-3.247-.319-6.713-.908-8.324-1.41-1.05-.332-1.88-1.13-2.16-2.086-.245-.81-.257-2.821-.025-3.925.39-1.816 1.66-3.484 3.283-4.281.647-.319 3.43-1.092 4.37-1.214.049-.013.403.392.793.87m27.232-1.815c.122.11-.098.417-.928 1.362-1.025 1.177-2.21 2.244-3.698 3.36-.867.65-3.394 2.11-3.516 2.037-.06-.037-.268-.368-.476-.736-.207-.356-.72-1.092-1.147-1.632l-.781-.956 1.27-.601c2.16-1.006 4.1-2.466 5.394-4.024l.647-.797 1.55.92c.842.515 1.611.993 1.685 1.067m-20.97-.184c1.062 1.043 2.478 2.036 3.894 2.748.72.355 1.428.687 1.586.723.269.074.244.123-.525 1.08-.439.54-.964 1.3-1.171 1.656-.208.368-.415.699-.476.736-.135.086-2.71-1.435-3.748-2.208-1.452-1.104-2.721-2.282-3.612-3.324-.44-.54-.818-1.018-.843-1.08-.024-.061.708-.564 1.611-1.116l1.648-1.006.476.564c.269.307.794.86 1.16 1.227m1.904-6.06c.732.663 1.965 1.338 2.942 1.595 1 .258 5.443.258 6.444 0 .977-.257 2.21-.932 2.942-1.594.317-.307.61-.54.635-.516.012.025.341.773.708 1.669l.683 1.619-.366.466c-1.343 1.693-3.662 3.41-5.676 4.195-1.66.65-2.111.7-3.21.368a14.024 14.024 0 0 1-3.564-1.656c-.879-.564-2.551-2.098-3.198-2.92l-.366-.453.708-1.656c.378-.92.708-1.668.708-1.668.012 0 .293.245.61.552m7.873-7.225c.769.184 1.44.355 1.477.404.085.074-.293 1.804-.415 1.926-.061.062-1.685-.294-2.869-.638-.549-.159-.683-.245-.83-.6-.122-.32-.134-.504-.036-.761.268-.748.634-.797 2.673-.331m11.986-2.527h.854l-.048 1.128c-.025.908-.098 1.264-.342 1.73-.562 1.128-1.636 1.84-2.99 2l-.72.085.56-.724c.977-1.263 1.441-2.453 1.441-3.716 0-.54.037-.638.195-.577.11.037.574.074 1.05.074m2.539-10.304c.5.135 1.147.748 1.33 1.264.086.208.135 1.386.135 2.858 0 2.809-.086 3.177-.88 3.753-.365.258-.548.282-2.05.319-1.648.037-1.648.037-1.953-.282l-.305-.331-.037-3.288c-.036-3.57.025-4.048.61-4.293.38-.147 2.613-.147 3.15 0m-29.355 0c.622.233.683.662.647 4.293l-.037 3.288-.305.33c-.305.32-.305.32-1.953.283-1.501-.037-1.685-.061-2.05-.319-.794-.576-.88-.932-.88-3.766 0-2.76.061-3.042.696-3.655.208-.184.525-.393.72-.454.5-.147 2.771-.147 3.162 0m10.863-4.76c.452.626 1.843 1.755 2.88 2.331 2.149 1.215 5.127 1.988 8.63 2.245l1.135.086-.036 5.912-.037 5.9-.293.552c-.159.307-.537.847-.854 1.215-.305.356-.647.76-.757.895-.183.233-.208.233-1.648-.147l-1.465-.392.05-.43c.072-.589-.294-1.46-.758-1.815-.488-.368-3.6-1.178-4.613-1.19-1.44-.025-2.698 1.018-3.015 2.478-.269 1.226.341 2.637 1.391 3.263.781.453 3.808 1.19 4.663 1.116.72-.05 1.38-.479 1.611-1.043l.147-.356.915.246c.488.135.903.282.903.319 0 .037-.5.613-1.098 1.263-.88.945-1.282 1.276-1.929 1.595l-.818.405h-5.492l-.794-.393c-.488-.245-1.062-.675-1.489-1.104-1.452-1.496-4.65-5.274-4.955-5.863l-.33-.614-.037-6.317-.024-6.317.55-.675c1.33-1.643 3.283-2.858 5.467-3.434 1.392-.368 1.673-.331 2.1.27m4.821-8.623c4.614 1.214 7.812 5.348 7.812 10.07v1.129l-1.062-.086c-2.88-.221-5.139-.773-7.08-1.717-1.488-.736-2.66-1.693-3.295-2.711-.195-.307-.488-.59-.683-.663-.464-.16-2.295.037-3.504.368-1.232.344-3.185 1.325-4.125 2.086-.415.33-.781.613-.806.613-.085 0 .403-1.705.684-2.392 1.025-2.453 3.222-4.882 5.456-6.01 2.075-1.043 4.345-1.276 6.603-.687m.305-4.22c6.775 1.423 11.657 7.347 11.657 14.118v1.276h-.574c-.33 0-.78.037-1.025.074l-.44.073-.073-1.692c-.073-2.098-.341-3.165-1.245-5.017-1.647-3.398-4.638-5.802-8.324-6.71-1.404-.343-3.967-.368-5.188-.061-4.223 1.055-7.677 4.256-9.313 8.623-.415 1.104-.793 3.03-.793 4.036v.834l-.452-.086a8.782 8.782 0 0 0-1.037-.074h-.586v-1.276c0-5.765 3.625-11.125 9.045-13.333 2.538-1.043 5.724-1.337 8.348-.785M23.291.04c-2.063.27-4.028.846-5.627 1.643-4.553 2.306-7.763 6.367-8.886 11.249-.232 1.005-.488 3.385-.5 4.587 0 .405-.037.454-.476.589-.684.196-1.758 1.227-2.173 2.073l-.342.7v3.188c0 3.14 0 3.202.306 3.803.439.92 1.391 1.815 2.258 2.134.659.246.903.27 2.697.233l1.978-.037.06.97c.098 1.484.672 2.514 2.6 4.71l1.538 1.766-.952 2.257-.952 2.257-2.453 1.46-2.441 1.46-2.075.453c-2.832.614-3.98 1.153-5.37 2.564C1.405 49.18.648 50.443.282 51.792c-.256.957-.378 3.803-.195 4.784.366 1.975 1.745 3.52 3.661 4.122C9.73 62.562 24.5 63.31 36.107 62.34c3.809-.331 8.166-1.03 10.144-1.643 1.916-.602 3.295-2.147 3.661-4.122.183-.981.061-3.827-.195-4.784-.366-1.35-1.123-2.613-2.197-3.692-1.392-1.398-2.527-1.95-5.37-2.576l-2.076-.454-2.453-1.472-2.453-1.472-.953-2.257-.952-2.257.318-.319c.305-.306.33-.319 1.013-.184 1.916.393 3.723-.098 5.139-1.373 1.232-1.117 1.782-2.38 1.94-4.404l.086-1.165.512-.209c.757-.282 1.538-1.03 2.027-1.926l.415-.772V20.88l-.342-.7c-.415-.845-1.49-1.876-2.173-2.072-.44-.135-.476-.184-.476-.589-.012-1.312-.28-3.643-.55-4.771-1.476-6.183-6.53-11.102-12.73-12.414-1.16-.245-4.174-.417-5.15-.294" fill="#C2C3C4" mask="url(#qmpexc2j9b)"/>
        </g>
    </g>
</svg>
